<?xml version="1.0" encoding="UTF-8"?>
<svg xmlns="http://www.w3.org/2000/svg" xmlns:xlink="http://www.w3.org/1999/xlink" width="708.75pt" height="567.000005pt" viewBox="0 0 708.75 567.000005" version="1.2">
<defs>
<clipPath id="clip1">
  <path d="M 298 426 L 342 426 L 342 446.582031 L 298 446.582031 Z M 298 426 "/>
</clipPath>
</defs>
<g id="surface1">
<path style=" stroke:none;fill-rule:nonzero;fill:rgb(46.669006%,18.818665%,19.219971%);fill-opacity:1;" d="M 270.785156 144.414062 C 270.785156 144.414062 271.390625 153.253906 268.207031 154.566406 C 268.207031 154.566406 270.328125 155.019531 271.390625 153.253906 C 271.390625 153.253906 269.722656 156.425781 267.296875 157.214844 C 267.296875 157.214844 276.546875 162.640625 280.640625 157.214844 L 277.605469 145.191406 L 270.785156 144.414062 "/>
<path style=" stroke:none;fill-rule:nonzero;fill:rgb(95.289612%,50.979614%,44.309998%);fill-opacity:1;" d="M 369.113281 219.046875 L 374.925781 216.4375 C 374.925781 216.4375 376.277344 211.875 377.09375 210.199219 C 377.09375 210.199219 379.304688 208.128906 380.144531 207.90625 C 380.984375 207.679688 385.515625 206.230469 386.355469 206.003906 C 387.199219 205.78125 388.03125 204.882812 388.03125 204.882812 C 388.03125 204.882812 389.238281 206.449219 388.457031 207.722656 C 388.457031 207.722656 398.417969 204.300781 399.828125 204.667969 C 399.828125 204.667969 400.554688 205.628906 400.113281 206.5625 C 400.113281 206.5625 404.078125 205.195312 404.570312 205.898438 C 404.570312 205.898438 405.6875 206.894531 402.332031 208.410156 C 402.332031 208.410156 404.875 209.246094 403.039062 210.585938 L 400.53125 212.609375 C 400.53125 212.609375 402.035156 211.609375 402.523438 212.308594 C 403.019531 213.011719 401.332031 214.714844 401.332031 214.714844 C 401.332031 214.714844 385.742188 225.875 378.898438 222.917969 C 378.898438 222.917969 377.023438 221.382812 371.746094 225.015625 L 369.113281 219.046875 "/>
<path style=" stroke:none;fill-rule:nonzero;fill:rgb(43.528748%,54.119873%,59.21936%);fill-opacity:1;" d="M 367.175781 218.351562 L 374.457031 214.828125 L 377.640625 224.035156 L 369.792969 228.84375 L 367.175781 218.351562 "/>
<path style=" stroke:none;fill-rule:nonzero;fill:rgb(16.079712%,18.818665%,26.269531%);fill-opacity:1;" d="M 335.859375 230.058594 L 370.164062 216.382812 L 374.457031 227.214844 C 374.457031 227.214844 338.835938 247.390625 331.515625 247.652344 C 324.195312 247.921875 323.585938 237.839844 323.585938 237.839844 L 335.859375 230.058594 "/>
<path style=" stroke:none;fill-rule:nonzero;fill:rgb(69.40918%,81.959534%,88.62915%);fill-opacity:1;" d="M 305.890625 180.269531 C 305.679688 180.082031 305.550781 179.878906 305.480469 179.667969 L 281.085938 179.667969 L 281.085938 278.015625 L 311.691406 278.015625 L 311.691406 183.234375 C 309.550781 182.730469 307.578125 181.773438 305.890625 180.269531 "/>
<path style=" stroke:none;fill-rule:nonzero;fill:rgb(38.819885%,14.898682%,16.468811%);fill-opacity:1;" d="M 312.875 107.785156 C 312.875 107.785156 318.261719 110.492188 319.320312 114.242188 C 320.375 117.984375 318.191406 134.992188 317.773438 135.183594 L 311.226562 112.265625 L 312.875 107.785156 "/>
<path style=" stroke:none;fill-rule:nonzero;fill:rgb(16.079712%,18.818665%,26.269531%);fill-opacity:1;" d="M 325.871094 184.875 C 325.871094 184.875 335.027344 223.527344 337.320312 231.296875 L 330.703125 243.472656 L 324.445312 240.488281 L 312.785156 204.484375 L 325.871094 184.875 "/>
<path style=" stroke:none;fill-rule:nonzero;fill:rgb(16.079712%,18.818665%,26.269531%);fill-opacity:1;" d="M 269.742188 181.324219 C 269.742188 181.324219 258.167969 183.660156 255.253906 186.546875 C 249.019531 192.6875 245.980469 239.730469 245.980469 239.730469 L 257.011719 241.324219 L 267.574219 196.695312 L 269.742188 181.324219 "/>
<path style=" stroke:none;fill-rule:nonzero;fill:rgb(32.548523%,14.509583%,14.898682%);fill-opacity:1;" d="M 293.097656 442.910156 C 293.316406 434.484375 286.777344 425.269531 286.777344 425.269531 L 282.535156 425.902344 L 278.726562 425.269531 C 278.726562 425.269531 271.84375 434.535156 272.0625 442.984375 L 272.402344 445.699219 L 292.6875 445.699219 L 293.097656 442.910156 "/>
<g clip-path="url(#clip1)" clip-rule="nonzero">
<path style=" stroke:none;fill-rule:nonzero;fill:rgb(32.548523%,14.509583%,14.898682%);fill-opacity:1;" d="M 301.480469 426.292969 C 301.480469 426.292969 296.523438 438.636719 299.617188 446.46875 L 340.75 446.46875 C 340.75 446.46875 342.09375 444.863281 340.75 443.695312 C 340.75 443.695312 342.050781 441.277344 337.40625 439.992188 C 332.699219 438.699219 324.125 435.484375 324.125 435.484375 C 324.125 435.484375 317.667969 431.527344 309.40625 426.292969 L 301.480469 426.292969 "/>
</g>
<path style=" stroke:none;fill-rule:nonzero;fill:rgb(12.548828%,14.118958%,18.818665%);fill-opacity:1;" d="M 320.160156 270.5625 L 269.527344 270.5625 C 269.527344 270.5625 267.683594 278.273438 270.851562 285.304688 L 275.746094 426.828125 L 289.890625 426.828125 L 291.546875 296.433594 C 293.046875 296.46875 294.660156 296.445312 296.367188 296.34375 L 297.320312 426.828125 L 312.472656 426.828125 L 317.683594 286.652344 C 319.765625 283.304688 320.664062 278.90625 320.160156 270.5625 "/>
<path style=" stroke:none;fill-rule:nonzero;fill:rgb(10.5896%,11.759949%,15.689087%);fill-opacity:1;" d="M 270.851562 285.304688 L 275.746094 426.828125 L 289.890625 426.828125 L 290 419.792969 C 287.597656 420.761719 276.496094 396.75 274.511719 287.9375 C 274.398438 281.488281 274.226562 275.722656 274 270.5625 L 269.527344 270.5625 C 269.527344 270.5625 267.683594 278.273438 270.851562 285.304688 "/>
<path style=" stroke:none;fill-rule:nonzero;fill:rgb(12.548828%,12.939453%,16.468811%);fill-opacity:1;" d="M 268.996094 269.003906 C 268.996094 269.003906 267.53125 272.601562 269.082031 273.71875 C 269.082031 273.71875 294.90625 279.074219 320.296875 273.964844 C 320.296875 273.964844 321.730469 272.863281 321.046875 269.839844 L 268.996094 269.003906 "/>
<path style=" stroke:none;fill-rule:nonzero;fill:rgb(57.249451%,63.529968%,66.668701%);fill-opacity:1;" d="M 303.011719 275.324219 C 303.011719 276.101562 302.378906 276.726562 301.601562 276.726562 L 296.792969 276.726562 C 296.015625 276.726562 295.386719 276.101562 295.386719 275.324219 L 295.386719 272.601562 C 295.386719 271.828125 296.015625 271.195312 296.792969 271.195312 L 301.601562 271.195312 C 302.378906 271.195312 303.011719 271.828125 303.011719 272.601562 L 303.011719 275.324219 "/>
<path style=" stroke:none;fill-rule:nonzero;fill:rgb(16.079712%,18.818665%,26.269531%);fill-opacity:1;" d="M 284.964844 178.078125 C 276.707031 179.742188 266.742188 181.972656 266.742188 181.972656 C 265.925781 181.972656 265.292969 182.605469 265.292969 183.425781 C 262.84375 206.347656 270.238281 242.542969 270.238281 242.542969 C 270.238281 242.542969 266.769531 270.5625 268.085938 278.472656 C 268.085938 278.472656 276.683594 281.9375 284.761719 282.148438 L 284.964844 178.078125 "/>
<path style=" stroke:none;fill-rule:nonzero;fill:rgb(16.079712%,18.818665%,26.269531%);fill-opacity:1;" d="M 325.972656 185.738281 C 325.972656 184.949219 325.339844 184.308594 324.554688 184.308594 C 323.09375 183.574219 315.84375 181.511719 309.070312 179.667969 L 309.070312 281.085938 C 314.308594 281.441406 322.472656 281.191406 322.472656 276.171875 C 322.472656 276.171875 322.867188 249.917969 322.425781 243.652344 C 324.507812 229.625 325.972656 185.738281 325.972656 185.738281 "/>
<path style=" stroke:none;fill-rule:nonzero;fill:rgb(47.839355%,57.249451%,60.778809%);fill-opacity:1;" d="M 328.53125 287.148438 L 302.445312 280.996094 L 301.195312 279.125 L 312.679688 240.050781 L 340.015625 248.074219 L 341.265625 249.953125 L 328.53125 287.148438 "/>
<path style=" stroke:none;fill-rule:nonzero;fill:rgb(61.569214%,66.668701%,67.83905%);fill-opacity:1;" d="M 329.777344 289.023438 L 302.445312 280.996094 L 313.933594 241.925781 L 341.265625 249.953125 L 329.777344 289.023438 "/>
<path style=" stroke:none;fill-rule:nonzero;fill:rgb(95.289612%,50.979614%,44.309998%);fill-opacity:1;" d="M 294.980469 257.648438 C 294.980469 257.648438 299.234375 259.382812 300.324219 259.382812 C 300.324219 259.382812 304.871094 257.648438 305.761719 257.503906 C 305.761719 257.503906 307.640625 257.105469 308.386719 257.503906 C 308.386719 257.503906 315.308594 261.40625 316.101562 264.125 C 316.101562 264.125 315.605469 265.359375 314.222656 264.472656 C 314.222656 264.472656 311.695312 262.492188 311.15625 262.199219 C 311.15625 262.199219 313.925781 264.765625 313.925781 265.609375 C 313.925781 266.449219 313.332031 266.59375 312.242188 265.953125 C 312.242188 265.953125 309.421875 263.832031 308.285156 263.039062 C 308.285156 263.039062 310.859375 265.808594 310.808594 266.203125 C 310.757812 266.597656 309.769531 267.636719 308.433594 267.238281 L 307.246094 266.5 L 307.9375 267.328125 C 307.9375 267.328125 307.988281 268.625 305.863281 268.132812 C 303.738281 267.636719 302.5 267.09375 301.214844 266.75 C 299.925781 266.402344 298.148438 265.460938 297.277344 264.324219 L 287.066406 262.394531 L 294.980469 257.648438 "/>
<path style=" stroke:none;fill-rule:nonzero;fill:rgb(10.978699%,11.369324%,14.509583%);fill-opacity:1;" d="M 294.796875 192.347656 L 293.679688 248.554688 C 293.679688 248.554688 294.445312 252.84375 297.898438 254.792969 C 297.898438 254.792969 299.367188 253.882812 301.582031 248.089844 L 300.765625 192.132812 L 294.796875 192.347656 "/>
<path style=" stroke:none;fill-rule:nonzero;fill:rgb(10.978699%,11.369324%,14.509583%);fill-opacity:1;" d="M 292.125 184.898438 C 292.125 184.898438 293.761719 191.5625 294.796875 192.347656 C 294.796875 192.347656 297.558594 193.339844 300.765625 192.132812 L 303.714844 186.421875 L 298.902344 179.773438 L 295.996094 179.875 L 292.125 184.898438 "/>
<path style=" stroke:none;fill-rule:nonzero;fill:rgb(94.119263%,43.919373%,40.388489%);fill-opacity:1;" d="M 304.328125 179.875 L 287.644531 179.875 L 287.644531 163.441406 L 304.328125 163.441406 L 304.328125 179.875 "/>
<path style=" stroke:none;fill-rule:nonzero;fill:rgb(43.528748%,54.119873%,59.21936%);fill-opacity:1;" d="M 297.898438 179.875 L 304.328125 172.65625 C 304.328125 172.65625 305.144531 171.34375 306.035156 172.65625 L 309.539062 180.476562 L 307.410156 190.578125 L 297.898438 179.875 "/>
<path style=" stroke:none;fill-rule:nonzero;fill:rgb(43.528748%,54.119873%,59.21936%);fill-opacity:1;" d="M 297.183594 179.875 L 287.644531 172.65625 C 287.644531 172.65625 285.992188 171.601562 284.460938 178.023438 L 286.941406 193.773438 L 297.183594 179.875 "/>
<path style=" stroke:none;fill-rule:nonzero;fill:rgb(95.289612%,50.979614%,44.309998%);fill-opacity:1;" d="M 295.996094 169.335938 C 307.75 170.019531 319.320312 157.25 319.320312 141.5625 C 319.320312 124.269531 314.019531 101 295.996094 101 C 277.804688 101 272.609375 124.269531 272.609375 141.5625 C 272.609375 141.5625 273.800781 151.890625 276.359375 155.675781 C 279.804688 160.835938 286.050781 168.792969 295.996094 169.335938 "/>
<path style=" stroke:none;fill-rule:nonzero;fill:rgb(31.759644%,8.628845%,10.198975%);fill-opacity:1;" d="M 287.644531 151.066406 C 287.644531 151.066406 289.113281 157 296.730469 158.070312 L 299.457031 158.070312 C 307.507812 157.34375 308.527344 151.066406 308.527344 151.066406 C 305.453125 152.195312 294.464844 153.054688 287.644531 151.066406 "/>
<path style=" stroke:none;fill-rule:nonzero;fill:rgb(100%,100%,100%);fill-opacity:1;" d="M 306.742188 153.007812 C 306.742188 153.007812 307.089844 152.328125 307.144531 151.453125 C 303.296875 152.28125 295.320312 152.722656 289.363281 151.480469 C 289.46875 152.195312 289.722656 153.1875 290.203125 153.582031 C 290.203125 153.582031 289.933594 154.105469 289.785156 154.699219 C 291.15625 156.171875 293.328125 157.59375 296.730469 158.070312 L 299.457031 158.070312 C 303.269531 157.726562 305.507812 156.148438 306.792969 154.574219 C 306.855469 154.023438 306.875 153.449219 306.742188 153.007812 "/>
<path style=" stroke:none;fill-rule:nonzero;fill:rgb(83.529663%,72.938538%,67.83905%);fill-opacity:1;" d="M 306.34375 155.09375 C 306.375 155.054688 306.402344 155.019531 306.433594 154.984375 C 306.402344 155.019531 306.367188 155.050781 306.335938 155.085938 C 306.339844 155.089844 306.339844 155.089844 306.34375 155.09375 M 306.640625 154.753906 C 306.691406 154.695312 306.742188 154.636719 306.792969 154.574219 C 306.792969 154.570312 306.792969 154.570312 306.792969 154.570312 C 306.792969 154.570312 306.792969 154.570312 306.792969 154.574219 C 306.742188 154.636719 306.691406 154.695312 306.640625 154.753906 "/>
<path style=" stroke:none;fill-rule:nonzero;fill:rgb(85.099792%,92.158508%,91.369629%);fill-opacity:1;" d="M 290.835938 155.644531 C 292.152344 154.871094 295.773438 152.988281 299.792969 152.988281 C 301.957031 152.988281 304.234375 153.53125 306.335938 155.085938 C 306.367188 155.050781 306.402344 155.019531 306.433594 154.984375 C 306.503906 154.90625 306.570312 154.828125 306.640625 154.753906 C 306.691406 154.695312 306.742188 154.636719 306.792969 154.574219 C 306.792969 154.570312 306.792969 154.570312 306.792969 154.570312 C 306.820312 154.316406 306.84375 154.058594 306.84375 153.8125 C 306.84375 153.523438 306.816406 153.246094 306.742188 153.007812 C 306.742188 153.007812 307.089844 152.328125 307.144531 151.453125 C 305.011719 151.914062 301.609375 152.253906 297.984375 152.253906 C 295.074219 152.253906 292.015625 152.035156 289.363281 151.480469 C 289.46875 152.195312 289.722656 153.1875 290.203125 153.582031 C 290.203125 153.582031 289.933594 154.105469 289.785156 154.699219 C 290.097656 155.03125 290.453125 155.34375 290.835938 155.644531 "/>
<path style=" stroke:none;fill-rule:nonzero;fill:rgb(95.289612%,50.979614%,44.309998%);fill-opacity:1;" d="M 274.078125 137.953125 C 275.167969 141.964844 274.007812 145.8125 271.523438 146.492188 C 269.023438 147.164062 266.082031 144.457031 264.976562 140.402344 C 263.898438 136.355469 265.042969 132.511719 267.53125 131.847656 C 270.023438 131.164062 272.953125 133.898438 274.078125 137.953125 "/>
<path style=" stroke:none;fill-rule:nonzero;fill:rgb(56.469727%,24.308777%,23.919678%);fill-opacity:1;" d="M 305.503906 122.996094 L 304.6875 126.511719 C 304.6875 126.511719 311.226562 125.976562 315.128906 128.003906 L 314.628906 125.699219 C 314.628906 125.699219 311.300781 122.511719 305.503906 122.996094 "/>
<path style=" stroke:none;fill-rule:nonzero;fill:rgb(56.469727%,24.308777%,23.919678%);fill-opacity:1;" d="M 292.671875 123.398438 L 292.671875 126.996094 C 292.671875 126.996094 283.144531 127.03125 279.53125 128.539062 L 280.007812 126.164062 C 280.007812 126.164062 285.992188 123.089844 292.671875 123.398438 "/>
<path style=" stroke:none;fill-rule:nonzero;fill:rgb(100%,100%,100%);fill-opacity:1;" d="M 303.4375 136.429688 C 303.4375 136.429688 304.53125 130.746094 308.910156 130.746094 C 308.910156 130.746094 313.429688 130.078125 314.539062 135.53125 C 314.539062 135.53125 314.621094 140.414062 308.828125 140.640625 C 308.828125 140.640625 303.4375 140.640625 303.4375 136.429688 "/>
<path style=" stroke:none;fill-rule:nonzero;fill:rgb(16.859436%,9.799194%,10.978699%);fill-opacity:1;" d="M 303.4375 136.429688 C 303.4375 136.429688 303.507812 136.164062 303.664062 135.722656 C 303.804688 135.277344 304.078125 134.664062 304.457031 133.988281 C 304.644531 133.648438 304.882812 133.308594 305.144531 132.96875 C 305.414062 132.632812 305.742188 132.332031 306.089844 132.042969 C 306.453125 131.777344 306.859375 131.550781 307.296875 131.394531 C 307.71875 131.222656 308.238281 131.125 308.664062 131.09375 C 309.636719 131.050781 310.628906 131.25 311.460938 131.613281 C 311.863281 131.8125 312.246094 132.035156 312.566406 132.304688 C 312.890625 132.574219 313.148438 132.878906 313.394531 133.171875 C 313.585938 133.5 313.820312 133.773438 313.941406 134.070312 C 314.078125 134.359375 314.214844 134.609375 314.277344 134.832031 C 314.433594 135.273438 314.539062 135.53125 314.539062 135.53125 C 314.539062 135.53125 314.539062 135.261719 314.503906 134.78125 C 314.503906 134.535156 314.433594 134.25 314.363281 133.914062 C 314.3125 133.570312 314.148438 133.21875 313.988281 132.816406 C 313.78125 132.441406 313.542969 132.023438 313.1875 131.660156 C 312.847656 131.28125 312.421875 130.941406 311.941406 130.667969 C 311.453125 130.417969 310.921875 130.171875 310.355469 130.066406 C 309.792969 129.941406 309.210938 129.878906 308.617188 129.890625 C 307.976562 129.957031 307.425781 130.082031 306.867188 130.308594 C 306.3125 130.523438 305.835938 130.875 305.410156 131.230469 C 304.996094 131.609375 304.667969 132.035156 304.40625 132.453125 C 304.148438 132.878906 303.960938 133.304688 303.828125 133.707031 C 303.542969 134.503906 303.480469 135.199219 303.4375 135.679688 C 303.402344 136.160156 303.4375 136.429688 303.4375 136.429688 "/>
<path style=" stroke:none;fill-rule:nonzero;fill:rgb(26.269531%,11.369324%,12.159729%);fill-opacity:1;" d="M 305.636719 135.851562 C 305.636719 137.382812 306.878906 138.664062 308.410156 138.664062 C 309.984375 138.664062 311.226562 137.382812 311.226562 135.851562 C 311.226562 134.320312 309.984375 133.039062 308.410156 133.039062 C 306.878906 133.039062 305.636719 134.320312 305.636719 135.851562 "/>
<path style=" stroke:none;fill-rule:nonzero;fill:rgb(14.509583%,8.239746%,9.408569%);fill-opacity:1;" d="M 307.015625 135.851562 C 307.015625 136.535156 307.585938 137.09375 308.257812 137.09375 C 308.980469 137.09375 309.539062 136.535156 309.539062 135.851562 C 309.539062 135.148438 308.980469 134.570312 308.257812 134.570312 C 307.585938 134.570312 307.015625 135.148438 307.015625 135.851562 "/>
<path style=" stroke:none;fill-rule:nonzero;fill:rgb(100%,100%,100%);fill-opacity:1;" d="M 308.410156 134.660156 C 308.410156 135.1875 308.828125 135.59375 309.351562 135.59375 C 309.859375 135.59375 310.273438 135.1875 310.273438 134.660156 C 310.273438 134.144531 309.859375 133.722656 309.351562 133.722656 C 308.828125 133.722656 308.410156 134.144531 308.410156 134.660156 "/>
<path style=" stroke:none;fill-rule:nonzero;fill:rgb(100%,100%,100%);fill-opacity:1;" d="M 292.207031 136.429688 C 292.207031 136.429688 291.121094 130.746094 286.726562 130.746094 C 286.726562 130.746094 282.222656 130.078125 281.085938 135.53125 C 281.085938 135.53125 281.03125 140.414062 286.808594 140.640625 C 286.808594 140.640625 292.207031 140.640625 292.207031 136.429688 "/>
<path style=" stroke:none;fill-rule:nonzero;fill:rgb(16.859436%,9.799194%,10.978699%);fill-opacity:1;" d="M 292.207031 136.429688 C 292.207031 136.429688 292.238281 136.15625 292.207031 135.679688 C 292.160156 135.199219 292.097656 134.503906 291.8125 133.707031 C 291.675781 133.304688 291.480469 132.878906 291.222656 132.453125 C 290.964844 132.035156 290.632812 131.613281 290.222656 131.234375 C 289.796875 130.878906 289.316406 130.53125 288.765625 130.316406 C 288.207031 130.085938 287.65625 129.960938 287.015625 129.890625 C 286.417969 129.875 285.839844 129.941406 285.273438 130.0625 C 284.703125 130.171875 284.175781 130.414062 283.6875 130.664062 C 283.199219 130.941406 282.773438 131.28125 282.433594 131.660156 C 282.082031 132.023438 281.84375 132.441406 281.640625 132.816406 C 281.476562 133.21875 281.3125 133.570312 281.265625 133.914062 C 281.191406 134.25 281.121094 134.535156 281.117188 134.78125 C 281.085938 135.261719 281.085938 135.53125 281.085938 135.53125 C 281.085938 135.53125 281.191406 135.273438 281.347656 134.832031 C 281.40625 134.609375 281.542969 134.359375 281.6875 134.070312 C 281.804688 133.773438 282.042969 133.5 282.230469 133.171875 C 282.476562 132.878906 282.734375 132.574219 283.0625 132.304688 C 283.378906 132.035156 283.761719 131.8125 284.167969 131.609375 C 284.996094 131.25 285.996094 131.046875 286.960938 131.09375 C 287.390625 131.132812 287.910156 131.226562 288.328125 131.394531 C 288.769531 131.554688 289.175781 131.78125 289.542969 132.046875 C 289.890625 132.332031 290.222656 132.636719 290.492188 132.96875 C 290.753906 133.308594 290.992188 133.648438 291.183594 133.988281 C 291.5625 134.664062 291.835938 135.277344 291.980469 135.722656 C 292.136719 136.164062 292.207031 136.429688 292.207031 136.429688 "/>
<path style=" stroke:none;fill-rule:nonzero;fill:rgb(26.269531%,11.369324%,12.159729%);fill-opacity:1;" d="M 290.015625 135.851562 C 290.015625 137.382812 288.75 138.664062 287.199219 138.664062 C 285.667969 138.664062 284.417969 137.382812 284.417969 135.851562 C 284.417969 134.320312 285.667969 133.039062 287.199219 133.039062 C 288.75 133.039062 290.015625 134.320312 290.015625 135.851562 "/>
<path style=" stroke:none;fill-rule:nonzero;fill:rgb(14.509583%,8.239746%,9.408569%);fill-opacity:1;" d="M 288.617188 135.851562 C 288.617188 136.535156 288.050781 137.09375 287.355469 137.09375 C 286.652344 137.09375 286.09375 136.535156 286.09375 135.851562 C 286.09375 135.148438 286.652344 134.570312 287.355469 134.570312 C 288.050781 134.570312 288.617188 135.148438 288.617188 135.851562 "/>
<path style=" stroke:none;fill-rule:nonzero;fill:rgb(100%,100%,100%);fill-opacity:1;" d="M 287.234375 134.660156 C 287.234375 135.1875 286.808594 135.59375 286.277344 135.59375 C 285.761719 135.59375 285.378906 135.1875 285.378906 134.660156 C 285.378906 134.144531 285.761719 133.722656 286.277344 133.722656 C 286.808594 133.722656 287.234375 134.144531 287.234375 134.660156 "/>
<path style=" stroke:none;fill-rule:nonzero;fill:rgb(95.289612%,50.979614%,44.309998%);fill-opacity:1;" d="M 300.457031 134.1875 C 302.621094 133.6875 300.457031 139.546875 301.222656 141.011719 C 302.007812 142.460938 305.570312 144.910156 305.570312 144.910156 C 304.988281 147.910156 300.132812 149.359375 300.132812 149.359375 C 300.132812 149.359375 296.160156 148.402344 295.996094 145.273438 C 295.996094 145.273438 297.027344 134.953125 300.457031 134.1875 "/>
<path style=" stroke:none;fill-rule:nonzero;fill:rgb(96.859741%,65.098572%,58.039856%);fill-opacity:1;" d="M 305.570312 144.910156 C 305.570312 144.910156 305.011719 144.304688 304.15625 143.460938 C 303.730469 143.035156 303.230469 142.546875 302.726562 142.019531 C 302.460938 141.753906 302.285156 141.511719 302.035156 141.230469 L 301.695312 140.742188 C 301.691406 140.6875 301.617188 140.464844 301.570312 140.335938 C 301.5 140.011719 301.421875 139.660156 301.433594 139.289062 C 301.417969 138.921875 301.417969 138.554688 301.445312 138.191406 C 301.484375 137.46875 301.570312 136.785156 301.644531 136.195312 C 301.8125 134.996094 301.921875 134.195312 301.921875 134.195312 C 301.921875 134.195312 301.816406 134.371094 301.640625 134.679688 C 301.570312 134.796875 301.5 134.933594 301.421875 135.097656 C 301.609375 136.71875 300.679688 139.972656 301.222656 141.011719 C 302.007812 142.460938 305.570312 144.910156 305.570312 144.910156 "/>
<path style=" stroke:none;fill-rule:nonzero;fill:rgb(96.859741%,65.098572%,58.039856%);fill-opacity:1;" d="M 305.570312 144.910156 C 305.570312 144.910156 302.007812 142.460938 301.222656 141.011719 C 300.679688 139.972656 301.609375 136.71875 301.421875 135.097656 C 301.292969 135.359375 301.160156 135.679688 301.023438 136.039062 C 300.925781 136.332031 300.800781 136.640625 300.71875 136.988281 C 300.636719 137.335938 300.515625 137.695312 300.472656 138.085938 C 300.414062 138.472656 300.351562 138.875 300.363281 139.304688 C 300.339844 139.722656 300.410156 140.175781 300.5 140.628906 C 300.59375 140.878906 300.628906 141.046875 300.792969 141.351562 L 301.144531 141.835938 C 301.417969 142.148438 301.761719 142.484375 302.050781 142.730469 C 302.644531 143.234375 303.234375 143.640625 303.757812 143.960938 C 304.800781 144.609375 305.570312 144.910156 305.570312 144.910156 "/>
<path style=" stroke:none;fill-rule:nonzero;fill:rgb(79.60968%,34.899902%,34.118652%);fill-opacity:1;" d="M 296.109375 146.0625 C 296.824219 148.539062 300.132812 149.359375 300.132812 149.359375 C 300.132812 149.359375 304.695312 147.992188 305.503906 145.191406 C 304.035156 145.8125 301.554688 145.878906 299.417969 145.335938 C 297.742188 144.910156 296.660156 145.519531 296.109375 146.0625 "/>
<path style=" stroke:none;fill-rule:nonzero;fill:rgb(85.879517%,42.749023%,39.219666%);fill-opacity:1;" d="M 265.84375 136.988281 C 265.84375 136.988281 267.46875 132.40625 269.527344 133.9375 C 269.527344 133.9375 273.902344 138.621094 272.011719 143.003906 C 272.011719 143.003906 271.660156 137.226562 268.554688 139.546875 C 268.554688 139.546875 267.890625 137.570312 270.222656 137.453125 C 270.222656 137.453125 268.316406 133.980469 265.84375 136.988281 "/>
<path style=" stroke:none;fill-rule:nonzero;fill:rgb(10.5896%,11.759949%,15.689087%);fill-opacity:1;" d="M 312.472656 426.828125 L 312.785156 419.710938 C 296.96875 416.089844 303.613281 331.421875 302.378906 318.746094 C 301.085938 305.417969 296.367188 296.34375 296.367188 296.34375 L 297.320312 426.828125 L 312.472656 426.828125 "/>
<path style=" stroke:none;fill-rule:nonzero;fill:rgb(56.469727%,24.308777%,23.919678%);fill-opacity:1;" d="M 322.035156 99.664062 C 325.140625 117.242188 316.550781 120.648438 316.550781 120.648438 C 306.109375 124.214844 281.085938 112.015625 281.085938 112.015625 C 279.480469 117.84375 275.40625 124.476562 275.40625 124.476562 C 272.632812 133.011719 276.761719 139.746094 276.761719 139.746094 C 277.152344 140.804688 274.488281 138.664062 274.488281 138.664062 C 273.160156 137.273438 272.238281 134.15625 272.238281 134.15625 C 269.40625 130.066406 266.429688 132.417969 266.429688 132.417969 C 253.953125 109.742188 269.742188 101.558594 269.742188 101.558594 C 289.363281 82.085938 308.988281 98.425781 312.328125 102.164062 C 312.328125 102.164062 318.011719 97.695312 317.941406 94.28125 C 317.941406 94.28125 319.410156 99.8125 319.320312 103 C 319.320312 103 320.09375 97.011719 319.320312 92.84375 C 319.320312 92.84375 321.5 96.667969 322.035156 99.664062 "/>
<path style=" stroke:none;fill-rule:nonzero;fill:rgb(43.528748%,54.119873%,59.21936%);fill-opacity:1;" d="M 287.578125 261.878906 L 294.800781 264.949219 C 294.800781 264.949219 297.632812 262.074219 297.355469 258.433594 L 290.570312 255.214844 L 287.578125 261.878906 "/>
<path style=" stroke:none;fill-rule:nonzero;fill:rgb(19.999695%,26.269531%,35.289001%);fill-opacity:1;" d="M 246.105469 237.902344 C 246.105469 237.902344 242.28125 247.660156 252.785156 251.929688 C 252.785156 251.929688 285.1875 261.890625 290.65625 263.925781 C 290.65625 263.925781 293.6875 259.320312 293.679688 256.613281 C 293.679688 256.613281 262.132812 239.128906 255.429688 237.902344 L 246.105469 237.902344 "/>
<path style=" stroke:none;fill-rule:nonzero;fill:rgb(46.669006%,18.818665%,19.219971%);fill-opacity:1;" d="M 274.777344 134.039062 C 274.304688 131.4375 274.222656 128.121094 275.40625 124.476562 C 275.40625 124.476562 279.480469 117.84375 281.085938 112.015625 C 281.085938 112.015625 306.109375 124.214844 316.550781 120.648438 C 316.550781 120.648438 323.121094 118.042969 322.691406 105.632812 C 317.0625 117.242188 291.671875 109.917969 287.644531 109.664062 C 284.261719 109.453125 276.128906 103.417969 271.582031 99.839844 C 270.964844 100.378906 270.355469 100.953125 269.742188 101.558594 C 271.113281 102.875 272.914062 104.6875 274.878906 106.933594 C 279.125 111.789062 271.691406 121.488281 271.691406 121.488281 C 270.910156 127.664062 273.117188 131.847656 274.777344 134.039062 "/>
</g>
</svg>
