<?xml version="1.0" encoding="UTF-8"?>
<svg xmlns="http://www.w3.org/2000/svg" xmlns:xlink="http://www.w3.org/1999/xlink" width="708.75pt" height="567.000005pt" viewBox="0 0 708.75 567.000005" version="1.2">
<defs>
<clipPath id="clip1">
  <path d="M 399 416 L 433.636719 416 L 433.636719 432 L 399 432 Z M 399 416 "/>
</clipPath>
</defs>
<g id="surface1">
<path style=" stroke:none;fill-rule:nonzero;fill:rgb(98.429871%,72.938538%,62.348938%);fill-opacity:1;" d="M 376.785156 220.351562 L 376.785156 236.519531 C 376.785156 238.910156 378.445312 240.746094 380.65625 241.296875 C 381.023438 241.296875 381.207031 241.296875 381.574219 241.296875 L 391.339844 241.296875 C 393.917969 241.296875 396.128906 239.09375 396.128906 236.519531 L 396.128906 220.351562 C 396.128906 217.78125 393.917969 215.574219 391.339844 215.574219 L 381.574219 215.574219 C 378.996094 215.574219 376.785156 217.78125 376.785156 220.351562 Z M 376.785156 220.351562 "/>
<path style=" stroke:none;fill-rule:nonzero;fill:rgb(93.728638%,62.348938%,54.119873%);fill-opacity:1;" d="M 378.074219 219.800781 L 375.679688 235.785156 C 375.3125 237.988281 376.785156 240.195312 378.8125 240.929688 L 387.839844 216.3125 L 383.234375 215.757812 C 380.839844 215.390625 378.445312 217.230469 378.074219 219.800781 Z M 378.074219 219.800781 "/>
<path style=" stroke:none;fill-rule:nonzero;fill:rgb(25.489807%,38.42926%,51.759338%);fill-opacity:1;" d="M 372.363281 244.789062 C 373.101562 244.972656 374.023438 244.421875 374.023438 243.6875 L 376.050781 234.316406 C 376.234375 233.582031 375.679688 232.664062 374.945312 232.664062 C 374.207031 232.476562 373.285156 233.03125 373.285156 233.765625 L 371.257812 242.949219 C 371.074219 243.871094 371.628906 244.605469 372.363281 244.789062 Z M 372.363281 244.789062 "/>
<path style=" stroke:none;fill-rule:nonzero;fill:rgb(45.098877%,65.489197%,89.7995%);fill-opacity:1;" d="M 379.734375 209.511719 L 380.101562 209.511719 C 381.390625 209.695312 382.679688 208.960938 382.867188 207.675781 L 384.707031 199.222656 C 384.890625 197.9375 384.15625 196.652344 382.867188 196.46875 L 382.496094 196.46875 C 381.207031 196.285156 379.917969 197.019531 379.734375 198.304688 L 377.890625 206.757812 C 377.523438 208.042969 378.445312 209.328125 379.734375 209.511719 Z M 379.734375 209.511719 "/>
<path style=" stroke:none;fill-rule:nonzero;fill:rgb(30.979919%,50.979614%,74.899292%);fill-opacity:1;" d="M 373.101562 240.746094 C 375.3125 241.296875 377.523438 239.828125 378.074219 237.621094 L 385.8125 201.429688 L 377.707031 199.589844 L 369.96875 235.785156 C 369.417969 237.988281 370.890625 240.195312 373.101562 240.746094 Z M 373.101562 240.746094 "/>
<path style=" stroke:none;fill-rule:nonzero;fill:rgb(98.429871%,72.938538%,62.348938%);fill-opacity:1;" d="M 388.761719 213.1875 C 387.285156 211.71875 385.078125 211.71875 383.601562 213.1875 L 375.679688 221.085938 C 374.207031 222.558594 374.207031 224.761719 375.679688 226.230469 C 377.15625 227.703125 379.363281 227.703125 380.839844 226.230469 L 388.761719 218.332031 C 390.234375 216.863281 390.234375 214.472656 388.761719 213.1875 Z M 388.761719 213.1875 "/>
<path style=" stroke:none;fill-rule:nonzero;fill:rgb(98.429871%,72.938538%,62.348938%);fill-opacity:1;" d="M 376.601562 231.007812 C 376.601562 231.285156 376.574219 231.5625 376.519531 231.832031 C 376.464844 232.105469 376.386719 232.371094 376.277344 232.625 C 376.171875 232.882812 376.042969 233.125 375.886719 233.355469 C 375.734375 233.585938 375.558594 233.800781 375.359375 233.996094 C 375.164062 234.191406 374.949219 234.367188 374.71875 234.523438 C 374.488281 234.675781 374.242188 234.804688 373.984375 234.914062 C 373.730469 235.019531 373.464844 235.097656 373.191406 235.152344 C 372.917969 235.207031 372.640625 235.234375 372.363281 235.234375 C 372.085938 235.234375 371.808594 235.207031 371.539062 235.152344 C 371.265625 235.097656 371 235.019531 370.742188 234.914062 C 370.484375 234.804688 370.242188 234.675781 370.011719 234.523438 C 369.777344 234.367188 369.566406 234.191406 369.367188 233.996094 C 369.171875 233.800781 368.996094 233.585938 368.839844 233.355469 C 368.6875 233.125 368.554688 232.882812 368.449219 232.625 C 368.34375 232.371094 368.261719 232.105469 368.207031 231.832031 C 368.152344 231.5625 368.128906 231.285156 368.128906 231.007812 C 368.128906 230.730469 368.152344 230.457031 368.207031 230.183594 C 368.261719 229.910156 368.34375 229.648438 368.449219 229.390625 C 368.554688 229.136719 368.6875 228.890625 368.839844 228.660156 C 368.996094 228.429688 369.171875 228.214844 369.367188 228.019531 C 369.566406 227.824219 369.777344 227.648438 370.011719 227.496094 C 370.242188 227.339844 370.484375 227.210938 370.742188 227.105469 C 371 227 371.265625 226.917969 371.539062 226.863281 C 371.808594 226.808594 372.085938 226.78125 372.363281 226.78125 C 372.640625 226.78125 372.917969 226.808594 373.191406 226.863281 C 373.464844 226.917969 373.730469 227 373.984375 227.105469 C 374.242188 227.210938 374.488281 227.339844 374.71875 227.496094 C 374.949219 227.648438 375.164062 227.824219 375.359375 228.019531 C 375.558594 228.214844 375.734375 228.429688 375.886719 228.660156 C 376.042969 228.890625 376.171875 229.136719 376.277344 229.390625 C 376.386719 229.648438 376.464844 229.910156 376.519531 230.183594 C 376.574219 230.457031 376.601562 230.730469 376.601562 231.007812 Z M 376.601562 231.007812 "/>
<path style=" stroke:none;fill-rule:nonzero;fill:rgb(26.669312%,22.349548%,27.839661%);fill-opacity:1;" d="M 317.277344 408.304688 L 315.988281 408.304688 C 313.59375 408.304688 311.753906 406.464844 311.753906 404.078125 L 311.753906 319.5625 C 311.753906 317.175781 313.59375 315.339844 315.988281 315.339844 L 317.277344 315.339844 C 319.675781 315.339844 321.515625 317.175781 321.515625 319.5625 L 321.515625 404.078125 C 321.515625 406.464844 319.488281 408.304688 317.277344 408.304688 Z M 317.277344 408.304688 "/>
<path style=" stroke:none;fill-rule:nonzero;fill:rgb(26.669312%,22.349548%,27.839661%);fill-opacity:1;" d="M 344.175781 356.308594 L 289.09375 356.308594 C 285.589844 356.308594 282.828125 353.554688 282.828125 350.0625 L 282.828125 348.226562 C 282.828125 344.734375 285.589844 341.980469 289.09375 341.980469 L 343.992188 341.980469 C 347.492188 341.980469 350.257812 344.734375 350.257812 348.226562 L 350.257812 350.0625 C 350.441406 353.371094 347.492188 356.308594 344.175781 356.308594 Z M 344.175781 356.308594 "/>
<path style=" stroke:none;fill-rule:nonzero;fill:rgb(26.669312%,22.349548%,27.839661%);fill-opacity:1;" d="M 323.175781 411.609375 L 310.09375 411.609375 C 307.148438 411.609375 304.566406 409.222656 304.566406 406.097656 L 304.566406 396.359375 C 304.566406 393.421875 307.148438 390.847656 310.09375 390.847656 L 323.175781 390.847656 C 326.121094 390.847656 328.703125 393.421875 328.703125 396.359375 L 328.703125 406.097656 C 328.703125 409.039062 326.121094 411.609375 323.175781 411.609375 Z M 323.175781 411.609375 "/>
<path style=" stroke:none;fill-rule:nonzero;fill:rgb(32.159424%,25.489807%,33.729553%);fill-opacity:1;" d="M 277.855469 432.1875 C 277.855469 432.65625 277.808594 433.125 277.714844 433.585938 C 277.625 434.046875 277.488281 434.496094 277.308594 434.929688 C 277.125 435.363281 276.90625 435.777344 276.644531 436.167969 C 276.378906 436.558594 276.082031 436.921875 275.75 437.253906 C 275.414062 437.585938 275.054688 437.882812 274.660156 438.144531 C 274.269531 438.40625 273.855469 438.628906 273.417969 438.808594 C 272.984375 438.988281 272.535156 439.125 272.070312 439.214844 C 271.609375 439.308594 271.140625 439.351562 270.667969 439.351562 C 270.195312 439.351562 269.730469 439.308594 269.265625 439.214844 C 268.804688 439.125 268.355469 438.988281 267.917969 438.808594 C 267.484375 438.628906 267.070312 438.40625 266.675781 438.144531 C 266.285156 437.882812 265.921875 437.585938 265.589844 437.253906 C 265.253906 436.921875 264.957031 436.558594 264.695312 436.167969 C 264.433594 435.777344 264.210938 435.363281 264.03125 434.929688 C 263.851562 434.496094 263.714844 434.046875 263.621094 433.585938 C 263.53125 433.125 263.484375 432.65625 263.484375 432.1875 C 263.484375 431.71875 263.53125 431.25 263.621094 430.789062 C 263.714844 430.328125 263.851562 429.878906 264.03125 429.445312 C 264.210938 429.011719 264.433594 428.597656 264.695312 428.207031 C 264.957031 427.816406 265.253906 427.453125 265.589844 427.121094 C 265.921875 426.789062 266.285156 426.492188 266.675781 426.230469 C 267.070312 425.96875 267.484375 425.746094 267.917969 425.566406 C 268.355469 425.386719 268.804688 425.25 269.265625 425.160156 C 269.730469 425.066406 270.195312 425.023438 270.667969 425.023438 C 271.140625 425.023438 271.609375 425.066406 272.070312 425.160156 C 272.535156 425.25 272.984375 425.386719 273.417969 425.566406 C 273.855469 425.746094 274.269531 425.96875 274.660156 426.230469 C 275.054688 426.492188 275.414062 426.789062 275.75 427.121094 C 276.082031 427.453125 276.378906 427.816406 276.644531 428.207031 C 276.90625 428.597656 277.125 429.011719 277.308594 429.445312 C 277.488281 429.878906 277.625 430.328125 277.714844 430.789062 C 277.808594 431.25 277.855469 431.71875 277.855469 432.1875 Z M 277.855469 432.1875 "/>
<path style=" stroke:none;fill-rule:nonzero;fill:rgb(26.669312%,22.349548%,27.839661%);fill-opacity:1;" d="M 280.984375 434.023438 C 281.171875 433.105469 281.355469 432.1875 281.355469 431.269531 C 281.355469 425.390625 276.5625 420.613281 270.667969 420.613281 C 264.773438 420.613281 259.984375 425.390625 259.984375 431.269531 C 259.984375 432.1875 260.167969 433.105469 260.351562 434.023438 Z M 280.984375 434.023438 "/>
<path style=" stroke:none;fill-rule:nonzero;fill:rgb(32.159424%,25.489807%,33.729553%);fill-opacity:1;" d="M 369.96875 432.1875 C 369.96875 432.65625 369.921875 433.125 369.832031 433.585938 C 369.738281 434.046875 369.601562 434.496094 369.421875 434.929688 C 369.242188 435.363281 369.019531 435.777344 368.757812 436.167969 C 368.496094 436.558594 368.199219 436.921875 367.863281 437.253906 C 367.53125 437.585938 367.167969 437.882812 366.777344 438.144531 C 366.382812 438.40625 365.96875 438.628906 365.535156 438.808594 C 365.097656 438.988281 364.648438 439.125 364.1875 439.214844 C 363.722656 439.308594 363.257812 439.351562 362.785156 439.351562 C 362.3125 439.351562 361.84375 439.308594 361.382812 439.214844 C 360.917969 439.125 360.46875 438.988281 360.035156 438.808594 C 359.597656 438.628906 359.183594 438.40625 358.792969 438.144531 C 358.398438 437.882812 358.039062 437.585938 357.703125 437.253906 C 357.371094 436.921875 357.074219 436.558594 356.808594 436.167969 C 356.546875 435.777344 356.328125 435.363281 356.144531 434.929688 C 355.964844 434.496094 355.828125 434.046875 355.738281 433.585938 C 355.644531 433.125 355.597656 432.65625 355.597656 432.1875 C 355.597656 431.71875 355.644531 431.25 355.738281 430.789062 C 355.828125 430.328125 355.964844 429.878906 356.144531 429.445312 C 356.328125 429.011719 356.546875 428.597656 356.808594 428.207031 C 357.074219 427.816406 357.371094 427.453125 357.703125 427.121094 C 358.039062 426.789062 358.398438 426.492188 358.792969 426.230469 C 359.183594 425.96875 359.597656 425.746094 360.035156 425.566406 C 360.46875 425.386719 360.917969 425.25 361.382812 425.160156 C 361.84375 425.066406 362.3125 425.023438 362.785156 425.023438 C 363.257812 425.023438 363.722656 425.066406 364.1875 425.160156 C 364.648438 425.25 365.097656 425.386719 365.535156 425.566406 C 365.96875 425.746094 366.382812 425.96875 366.777344 426.230469 C 367.167969 426.492188 367.53125 426.789062 367.863281 427.121094 C 368.199219 427.453125 368.496094 427.816406 368.757812 428.207031 C 369.019531 428.597656 369.242188 429.011719 369.421875 429.445312 C 369.601562 429.878906 369.738281 430.328125 369.832031 430.789062 C 369.921875 431.25 369.96875 431.71875 369.96875 432.1875 Z M 369.96875 432.1875 "/>
<path style=" stroke:none;fill-rule:nonzero;fill:rgb(26.669312%,22.349548%,27.839661%);fill-opacity:1;" d="M 373.101562 434.023438 C 373.285156 433.105469 373.46875 432.1875 373.46875 431.269531 C 373.46875 425.390625 368.679688 420.613281 362.785156 420.613281 C 356.890625 420.613281 352.097656 425.390625 352.097656 431.269531 C 352.097656 432.1875 352.28125 433.105469 352.46875 434.023438 Z M 373.101562 434.023438 "/>
<path style=" stroke:none;fill-rule:nonzero;fill:rgb(32.159424%,25.489807%,33.729553%);fill-opacity:1;" d="M 323.910156 432.1875 C 323.910156 432.65625 323.867188 433.125 323.773438 433.585938 C 323.679688 434.046875 323.546875 434.496094 323.363281 434.929688 C 323.183594 435.363281 322.960938 435.777344 322.699219 436.167969 C 322.4375 436.558594 322.140625 436.921875 321.808594 437.253906 C 321.472656 437.585938 321.109375 437.882812 320.71875 438.144531 C 320.324219 438.40625 319.910156 438.628906 319.476562 438.808594 C 319.039062 438.988281 318.589844 439.125 318.128906 439.214844 C 317.664062 439.308594 317.199219 439.351562 316.726562 439.351562 C 316.253906 439.351562 315.789062 439.308594 315.324219 439.214844 C 314.863281 439.125 314.414062 438.988281 313.976562 438.808594 C 313.542969 438.628906 313.128906 438.40625 312.734375 438.144531 C 312.34375 437.882812 311.980469 437.585938 311.644531 437.253906 C 311.3125 436.921875 311.015625 436.558594 310.753906 436.167969 C 310.492188 435.777344 310.269531 435.363281 310.089844 434.929688 C 309.90625 434.496094 309.773438 434.046875 309.679688 433.585938 C 309.585938 433.125 309.542969 432.65625 309.542969 432.1875 C 309.542969 431.71875 309.585938 431.25 309.679688 430.789062 C 309.773438 430.328125 309.90625 429.878906 310.089844 429.445312 C 310.269531 429.011719 310.492188 428.597656 310.753906 428.207031 C 311.015625 427.816406 311.3125 427.453125 311.644531 427.121094 C 311.980469 426.789062 312.34375 426.492188 312.734375 426.230469 C 313.128906 425.96875 313.542969 425.746094 313.976562 425.566406 C 314.414062 425.386719 314.863281 425.25 315.324219 425.160156 C 315.789062 425.066406 316.253906 425.023438 316.726562 425.023438 C 317.199219 425.023438 317.664062 425.066406 318.128906 425.160156 C 318.589844 425.25 319.039062 425.386719 319.476562 425.566406 C 319.910156 425.746094 320.324219 425.96875 320.71875 426.230469 C 321.109375 426.492188 321.472656 426.789062 321.808594 427.121094 C 322.140625 427.453125 322.4375 427.816406 322.699219 428.207031 C 322.960938 428.597656 323.183594 429.011719 323.363281 429.445312 C 323.546875 429.878906 323.679688 430.328125 323.773438 430.789062 C 323.867188 431.25 323.910156 431.71875 323.910156 432.1875 Z M 323.910156 432.1875 "/>
<path style=" stroke:none;fill-rule:nonzero;fill:rgb(26.669312%,22.349548%,27.839661%);fill-opacity:1;" d="M 327.042969 434.023438 C 327.226562 433.105469 327.410156 432.1875 327.410156 431.269531 C 327.410156 425.390625 322.621094 420.613281 316.726562 420.613281 C 310.832031 420.613281 306.042969 425.390625 306.042969 431.269531 C 306.042969 432.1875 306.226562 433.105469 306.410156 434.023438 Z M 327.042969 434.023438 "/>
<path style=" stroke:none;fill-rule:nonzero;fill:rgb(26.669312%,22.349548%,27.839661%);fill-opacity:1;" d="M 359.285156 426.675781 L 353.574219 416.9375 C 350.992188 412.527344 346.203125 409.773438 341.046875 409.773438 L 291.855469 409.773438 C 286.882812 409.773438 282.273438 412.34375 279.511719 416.570312 L 273.984375 425.390625 L 266.246094 420.429688 L 271.773438 411.609375 C 276.195312 404.8125 283.75 400.585938 291.855469 400.585938 L 341.046875 400.585938 C 349.519531 400.585938 357.257812 405.179688 361.496094 412.34375 L 367.207031 422.082031 Z M 359.285156 426.675781 "/>
<path style=" stroke:none;fill-rule:nonzero;fill:rgb(26.669312%,22.349548%,27.839661%);fill-opacity:1;" d="M 312.121094 405.179688 L 321.332031 405.179688 L 321.332031 425.390625 L 312.121094 425.390625 Z M 312.121094 405.179688 "/>
<path style=" stroke:none;fill-rule:nonzero;fill:rgb(100%,38.038635%,22.349548%);fill-opacity:1;" d="M 258.140625 194.261719 L 316.726562 193.527344 C 326.675781 193.527344 334.964844 200.511719 336.808594 210.246094 L 348.597656 287.414062 C 348.78125 288.332031 348.96875 289.433594 348.96875 290.535156 L 349.886719 315.523438 C 350.257812 326.914062 341.230469 336.46875 329.808594 336.652344 L 271.039062 337.9375 L 258.507812 201.613281 Z M 258.140625 194.261719 "/>
<path style=" stroke:none;fill-rule:nonzero;fill:rgb(100%,38.038635%,22.349548%);fill-opacity:1;" d="M 378.257812 351.347656 L 293.144531 351.347656 L 293.144531 329.484375 L 378.257812 329.484375 C 383.601562 329.484375 387.839844 333.710938 387.839844 339.039062 L 387.839844 341.980469 C 387.839844 347.121094 383.601562 351.347656 378.257812 351.347656 Z M 378.257812 351.347656 "/>
<path style=" stroke:none;fill-rule:nonzero;fill:rgb(74.899292%,19.999695%,20.388794%);fill-opacity:1;" d="M 248.5625 200.878906 L 259.800781 312.582031 L 252.246094 344.734375 C 251.507812 348.042969 254.273438 351.347656 258.140625 351.347656 L 304.9375 351.347656 C 311.566406 351.347656 316.910156 346.386719 316.910156 340.324219 C 316.910156 334.261719 311.566406 329.300781 304.9375 329.300781 L 276.378906 329.300781 L 278.222656 307.4375 L 266.246094 199.40625 C 265.695312 195.367188 261.457031 192.609375 257.21875 193.34375 C 253.535156 194.261719 248.191406 197.386719 248.5625 200.878906 Z M 248.5625 200.878906 "/>
<path style=" stroke:none;fill-rule:nonzero;fill:rgb(21.958923%,30.198669%,41.958618%);fill-opacity:1;" d="M 388.390625 434.761719 C 384.15625 434.390625 381.023438 430.535156 381.023438 426.308594 L 381.023438 364.210938 C 381.023438 351.164062 370.523438 340.691406 357.441406 340.691406 L 313.964844 340.691406 C 306.410156 340.691406 297.933594 334.996094 295.722656 327.832031 C 293.144531 319.746094 301.804688 324.339844 306.960938 324.339844 L 357.257812 324.339844 C 379.363281 324.339844 397.417969 342.164062 397.417969 364.394531 L 397.417969 426.859375 C 397.417969 431.453125 393.183594 435.128906 388.390625 434.761719 Z M 388.390625 434.761719 "/>
<path style=" stroke:none;fill-rule:nonzero;fill:rgb(40.388489%,25.878906%,22.749329%);fill-opacity:1;" d="M 414.738281 438.433594 C 412.710938 436.046875 410.316406 434.207031 407.738281 432.738281 C 404.972656 431.085938 401.839844 429.984375 398.894531 429.25 C 393.367188 427.777344 388.023438 427.777344 384.707031 427.777344 C 384.707031 427.777344 384.707031 427.777344 384.523438 427.777344 C 384.339844 427.777344 384.339844 427.777344 384.339844 427.777344 C 382.867188 427.777344 381.390625 428.878906 380.839844 430.351562 C 380.65625 430.535156 380.65625 430.902344 380.65625 431.085938 C 380.65625 431.269531 380.46875 431.453125 380.46875 431.636719 C 380.285156 432.554688 380.46875 433.289062 380.839844 434.023438 C 381.023438 434.207031 381.023438 434.574219 381.207031 434.761719 C 381.574219 435.3125 381.945312 435.679688 382.496094 436.046875 C 399.078125 446.335938 409.761719 443.761719 414.183594 441.558594 C 414.921875 441.191406 415.289062 440.457031 415.289062 439.535156 C 415.105469 439.351562 415.105469 438.800781 414.738281 438.433594 Z M 414.738281 438.433594 "/>
<path style=" stroke:none;fill-rule:nonzero;fill:rgb(21.958923%,30.198669%,41.958618%);fill-opacity:1;" d="M 408.289062 423 C 403.867188 423 400.367188 419.511719 400.367188 415.101562 L 400.367188 355.023438 C 400.367188 342.53125 390.234375 332.425781 377.707031 332.425781 L 329.253906 332.425781 C 324.832031 332.425781 321.332031 328.933594 321.332031 324.523438 C 321.332031 320.117188 324.832031 316.625 329.253906 316.625 L 377.523438 316.625 C 398.710938 316.625 416.027344 333.894531 416.027344 355.023438 L 416.027344 415.101562 C 416.210938 419.511719 412.527344 423 408.289062 423 Z M 408.289062 423 "/>
<g clip-path="url(#clip1)" clip-rule="nonzero">
<path style=" stroke:none;fill-rule:nonzero;fill:rgb(40.388489%,25.878906%,22.749329%);fill-opacity:1;" d="M 432.792969 426.492188 C 430.949219 424.289062 428.554688 422.449219 426.160156 420.980469 C 423.394531 419.511719 420.449219 418.410156 417.683594 417.671875 C 412.34375 416.386719 407.183594 416.203125 404.234375 416.203125 C 404.234375 416.203125 404.234375 416.203125 404.050781 416.203125 C 404.050781 416.203125 403.867188 416.203125 403.867188 416.203125 C 402.394531 416.203125 401.105469 417.121094 400.367188 418.59375 C 400.183594 418.777344 400.183594 418.960938 400.183594 419.328125 C 400.183594 419.511719 400 419.695312 400 419.878906 C 399.816406 420.613281 400 421.53125 400.367188 422.265625 C 400.550781 422.449219 400.550781 422.816406 400.734375 423 C 401.105469 423.550781 401.472656 423.921875 402.027344 424.289062 C 417.871094 434.207031 428.1875 431.636719 432.421875 429.617188 C 433.160156 429.25 433.527344 428.511719 433.527344 427.777344 C 433.160156 427.410156 433.160156 426.859375 432.792969 426.492188 Z M 432.792969 426.492188 "/>
</g>
<path style=" stroke:none;fill-rule:nonzero;fill:rgb(21.958923%,30.198669%,41.958618%);fill-opacity:1;" d="M 293.882812 310.195312 L 294.988281 321.953125 C 295.910156 331.507812 304.199219 338.671875 313.777344 338.121094 L 329.4375 337.203125 C 336.808594 336.835938 343.808594 332.792969 347.863281 326.730469 L 353.203125 318.828125 Z M 293.882812 310.195312 "/>
<path style=" stroke:none;fill-rule:nonzero;fill:rgb(17.649841%,23.529053%,34.509277%);fill-opacity:1;" d="M 320.964844 230.824219 C 327.410156 228.4375 341.414062 241.296875 344.730469 244.789062 C 344.730469 244.789062 348.230469 248.644531 348.230469 248.644531 L 362.414062 269.773438 C 364.996094 273.449219 364.257812 278.777344 360.574219 281.347656 C 357.074219 283.738281 352.097656 283.003906 349.519531 279.695312 C 349.519531 279.695312 320.226562 240.5625 320.226562 240.5625 C 318.570312 238.542969 317.648438 232.664062 320.59375 231.007812 C 320.59375 231.007812 320.78125 230.824219 320.964844 230.824219 Z M 320.964844 230.824219 "/>
<path style=" stroke:none;fill-rule:nonzero;fill:rgb(16.468811%,24.708557%,29.798889%);fill-opacity:1;" d="M 376.050781 238.726562 C 375.863281 238.726562 375.863281 238.542969 375.679688 238.542969 L 375.863281 238.359375 L 377.890625 240.011719 Z M 376.050781 238.726562 "/>
<path style=" stroke:none;fill-rule:nonzero;fill:rgb(17.649841%,23.529053%,34.509277%);fill-opacity:1;" d="M 382.128906 249.566406 C 382.128906 249.566406 382.3125 249.75 382.3125 249.75 L 362.601562 280.246094 C 361.496094 281.902344 359.835938 283.003906 358.179688 283.371094 C 356.335938 283.738281 354.492188 283.554688 352.835938 282.636719 C 348.78125 280.429688 347.675781 275.101562 350.441406 271.429688 L 372.363281 242.949219 C 372.546875 243.132812 372.734375 243.316406 372.917969 243.5 Z M 382.128906 249.566406 "/>
<path style=" stroke:none;fill-rule:nonzero;fill:rgb(83.139038%,94.119263%,99.609375%);fill-opacity:1;" d="M 385.628906 247.175781 L 384.339844 249.011719 C 383.785156 249.75 383.050781 249.933594 382.3125 249.566406 C 382.3125 249.566406 382.128906 249.566406 382.128906 249.382812 L 372.917969 243.132812 C 372.734375 242.949219 372.546875 242.765625 372.363281 242.582031 C 371.996094 242.03125 371.996094 241.296875 372.363281 240.746094 L 373.652344 238.910156 C 374.023438 238.175781 374.945312 237.988281 375.679688 238.359375 C 375.863281 238.359375 375.863281 238.542969 376.050781 238.542969 L 377.890625 239.828125 L 385.261719 244.789062 C 385.261719 244.789062 385.261719 244.789062 385.445312 244.972656 C 385.996094 245.523438 386.179688 246.441406 385.628906 247.175781 Z M 385.628906 247.175781 "/>
<path style=" stroke:none;fill-rule:nonzero;fill:rgb(98.429871%,72.938538%,62.348938%);fill-opacity:1;" d="M 377.890625 240.011719 L 375.863281 238.359375 L 378.445312 235.050781 C 380.101562 232.847656 383.234375 232.292969 385.628906 233.582031 C 385.8125 233.765625 386.183594 233.949219 386.367188 233.949219 C 388.761719 235.785156 389.3125 239.09375 387.65625 241.480469 L 385.445312 244.972656 C 385.445312 244.972656 385.445312 244.972656 385.261719 244.789062 Z M 377.890625 240.011719 "/>
<path style=" stroke:none;fill-rule:nonzero;fill:rgb(17.649841%,23.529053%,34.509277%);fill-opacity:1;" d="M 355.230469 315.339844 L 346.203125 294.761719 L 340.675781 262.609375 L 340.675781 256.730469 L 338.835938 242.03125 C 338.28125 237.253906 331.097656 231.925781 326.859375 229.90625 C 321.886719 227.335938 319.675781 228.621094 313.964844 229.355469 L 305.488281 230.457031 C 302.910156 230.824219 296.460938 231.558594 290.566406 236.519531 C 286.328125 240.195312 286.695312 241.664062 285.039062 246.625 C 280.800781 258.933594 283.195312 273.816406 287.433594 288.699219 C 288.355469 292.1875 289.644531 295.496094 290.75 298.988281 C 290.75 298.988281 292.40625 315.15625 292.40625 315.15625 C 295.539062 345.101562 340.308594 323.238281 354.492188 317.175781 C 355.230469 316.992188 355.597656 316.074219 355.230469 315.339844 Z M 355.230469 315.339844 "/>
<path style=" stroke:none;fill-rule:nonzero;fill:rgb(90.979004%,95.289612%,96.859741%);fill-opacity:1;" d="M 330.914062 232.109375 L 327.964844 263.160156 L 327.042969 278.960938 L 318.570312 266.835938 L 295.910156 234.5 C 299.226562 232.292969 302.726562 230.824219 305.488281 230.457031 L 313.964844 229.355469 C 319.675781 228.621094 326.121094 229.539062 330.914062 232.109375 Z M 330.914062 232.109375 "/>
<path style=" stroke:none;fill-rule:nonzero;fill:rgb(37.649536%,44.309998%,53.729248%);fill-opacity:1;" d="M 295.910156 234.5 L 297.933594 250.117188 L 306.777344 254.339844 L 302.355469 262.609375 L 327.042969 278.960938 Z M 295.910156 234.5 "/>
<path style=" stroke:none;fill-rule:nonzero;fill:rgb(37.649536%,44.309998%,53.729248%);fill-opacity:1;" d="M 327.597656 230.273438 L 327.042969 278.960938 L 335.332031 254.894531 L 329.621094 248.828125 L 334.042969 234.316406 Z M 327.597656 230.273438 "/>
<path style=" stroke:none;fill-rule:nonzero;fill:rgb(95.689392%,36.468506%,29.798889%);fill-opacity:1;" d="M 327.964844 263.160156 L 327.042969 278.960938 L 318.570312 266.835938 L 315.4375 250.667969 L 316.910156 242.949219 L 311.753906 237.804688 L 313.964844 229.355469 L 322.621094 231.558594 L 320.78125 242.03125 L 324.648438 246.441406 Z M 327.964844 263.160156 "/>
<path style=" stroke:none;fill-rule:nonzero;fill:rgb(83.139038%,94.119263%,99.609375%);fill-opacity:1;" d="M 302.726562 223.292969 L 295.910156 234.5 L 309.910156 244.421875 L 317.832031 235.050781 L 325.570312 238.359375 L 327.597656 230.273438 L 320.226562 221.269531 Z M 302.726562 223.292969 "/>
<path style=" stroke:none;fill-rule:nonzero;fill:rgb(93.728638%,62.348938%,54.119873%);fill-opacity:1;" d="M 322.253906 204.917969 L 321.699219 228.253906 C 321.515625 232.664062 317.832031 236.152344 313.410156 236.152344 L 310.09375 236.152344 C 305.671875 235.96875 302.171875 232.292969 302.171875 227.886719 L 302.726562 204.550781 C 302.910156 200.144531 306.59375 196.652344 311.015625 196.652344 L 314.332031 196.652344 C 318.9375 196.835938 322.4375 200.511719 322.253906 204.917969 Z M 322.253906 204.917969 "/>
<path style=" stroke:none;fill-rule:nonzero;fill:rgb(93.728638%,62.348938%,54.119873%);fill-opacity:1;" d="M 322.253906 204.917969 L 321.886719 221.636719 L 302.539062 216.496094 L 302.726562 204.550781 C 302.910156 200.144531 306.59375 196.652344 311.015625 196.652344 L 314.332031 196.652344 C 318.9375 196.835938 322.4375 200.511719 322.253906 204.917969 Z M 322.253906 204.917969 "/>
<path style=" stroke:none;fill-rule:nonzero;fill:rgb(64.709473%,37.649536%,32.159424%);fill-opacity:1;" d="M 342.519531 161.007812 L 342.519531 170.929688 C 342.519531 172.953125 342.335938 174.789062 341.78125 176.625 C 339.203125 186.914062 329.808594 194.632812 318.753906 194.632812 L 303.832031 194.632812 C 292.777344 194.632812 283.566406 187.097656 280.800781 176.992188 C 280.25 175.15625 280.066406 173.136719 280.066406 170.929688 L 280.066406 161.007812 C 280.066406 147.964844 290.75 137.308594 303.832031 137.308594 L 318.753906 137.308594 C 331.832031 137.308594 342.519531 147.964844 342.519531 161.007812 Z M 342.519531 161.007812 "/>
<path style=" stroke:none;fill-rule:nonzero;fill:rgb(93.728638%,62.348938%,54.119873%);fill-opacity:1;" d="M 293.699219 196.652344 C 293.699219 199.039062 291.671875 201.0625 289.277344 201.0625 L 284.671875 201.0625 C 280.25 201.0625 276.378906 198.121094 275.828125 194.261719 L 274.722656 186.914062 C 273.984375 182.136719 278.222656 177.910156 283.566406 177.910156 C 289.277344 177.910156 293.882812 182.503906 293.882812 188.199219 L 293.882812 196.652344 Z M 293.699219 196.652344 "/>
<path style=" stroke:none;fill-rule:nonzero;fill:rgb(93.728638%,62.348938%,54.119873%);fill-opacity:1;" d="M 328.886719 196.652344 C 328.886719 199.039062 330.914062 201.0625 333.308594 201.0625 L 337.914062 201.0625 C 342.335938 201.0625 346.203125 198.121094 346.757812 194.261719 L 347.863281 186.914062 C 348.597656 182.136719 344.359375 177.910156 339.019531 177.910156 C 333.308594 177.910156 328.703125 182.503906 328.703125 188.199219 L 328.703125 196.652344 Z M 328.886719 196.652344 "/>
<path style=" stroke:none;fill-rule:nonzero;fill:rgb(98.429871%,72.938538%,62.348938%);fill-opacity:1;" d="M 311.382812 222.925781 C 297.015625 222.925781 285.039062 211.167969 285.039062 196.652344 L 285.039062 165.785156 C 285.039062 154.027344 294.617188 144.472656 306.410156 144.472656 L 316.359375 144.472656 C 328.148438 144.472656 337.730469 154.027344 337.730469 165.785156 L 337.730469 196.835938 C 337.542969 211.167969 325.753906 222.925781 311.382812 222.925781 Z M 311.382812 222.925781 "/>
<path style=" stroke:none;fill-rule:nonzero;fill:rgb(97.648621%,62.348938%,48.629761%);fill-opacity:1;" d="M 311.382812 172.953125 C 307.882812 172.953125 305.121094 175.707031 305.121094 179.199219 L 305.121094 190.222656 C 305.121094 193.710938 307.882812 196.46875 311.382812 196.46875 C 314.882812 196.46875 317.648438 193.710938 317.648438 190.222656 L 317.648438 179.199219 C 317.648438 175.707031 314.699219 172.953125 311.382812 172.953125 Z M 311.382812 172.953125 "/>
<path style=" stroke:none;fill-rule:nonzero;fill:rgb(64.709473%,37.649536%,32.159424%);fill-opacity:1;" d="M 344.546875 131.796875 C 341.230469 128.855469 336.625 127.570312 332.203125 128.304688 C 333.675781 129.042969 333.675781 131.613281 332.753906 132.898438 C 328.148438 139.144531 321.148438 135.289062 315.4375 133.816406 C 309.542969 132.347656 302.910156 133.816406 298.121094 137.675781 C 294.804688 140.25 292.59375 143.921875 291.117188 147.78125 C 291.855469 147.597656 292.59375 147.230469 293.328125 147.046875 C 298.671875 145.761719 303.644531 146.496094 308.25 149.433594 C 309.355469 150.167969 309.726562 151.089844 309.726562 152.007812 C 310.460938 152.191406 311.382812 152.558594 312.121094 153.109375 C 320.964844 158.804688 332.570312 161.007812 342.152344 155.679688 C 351.179688 150.71875 353.574219 139.328125 344.546875 131.796875 Z M 344.546875 131.796875 "/>
<path style=" stroke:none;fill-rule:nonzero;fill:rgb(64.709473%,37.649536%,32.159424%);fill-opacity:1;" d="M 330.175781 159.722656 C 323.175781 159.722656 316.542969 157.152344 311.382812 154.027344 C 310.648438 153.660156 310.09375 153.292969 309.355469 153.109375 L 308.804688 152.925781 L 308.804688 152.191406 C 308.804688 151.640625 308.621094 150.90625 307.882812 150.351562 C 303.460938 147.597656 298.855469 146.863281 293.699219 148.148438 C 292.960938 148.332031 292.222656 148.515625 291.488281 148.699219 L 289.644531 149.25 L 290.382812 147.414062 C 292.039062 143.003906 294.433594 139.511719 297.75 136.941406 C 302.726562 133.082031 309.726562 131.429688 315.804688 132.898438 C 316.910156 133.082031 318.199219 133.449219 319.304688 133.816406 C 324.28125 135.289062 328.886719 136.757812 332.203125 132.164062 C 332.570312 131.613281 332.753906 130.695312 332.753906 129.960938 C 332.753906 129.59375 332.570312 129.226562 332.019531 129.042969 L 329.621094 127.9375 L 332.203125 127.386719 C 336.808594 126.652344 341.597656 127.9375 345.28125 131.0625 C 349.519531 134.738281 351.546875 139.511719 351.179688 144.289062 C 350.625 149.433594 347.492188 153.84375 342.519531 156.601562 C 338.464844 158.804688 334.414062 159.722656 330.175781 159.722656 Z M 310.648438 151.457031 C 311.382812 151.640625 311.9375 152.007812 312.671875 152.375 C 320.226562 157.152344 332.019531 160.457031 341.597656 154.945312 C 346.019531 152.375 348.96875 148.515625 349.335938 143.921875 C 349.703125 139.695312 347.863281 135.472656 344.175781 132.164062 C 341.414062 129.777344 337.914062 128.671875 334.226562 128.671875 C 334.414062 128.855469 334.414062 129.042969 334.414062 129.410156 C 334.78125 130.695312 334.414062 132.164062 333.675781 133.082031 C 329.621094 138.59375 323.910156 136.941406 318.753906 135.289062 C 317.648438 134.921875 316.359375 134.554688 315.4375 134.367188 C 309.726562 133.082031 303.460938 134.554688 298.855469 138.042969 C 296.277344 140.066406 294.25 142.636719 292.777344 145.945312 C 292.960938 145.945312 292.960938 145.945312 293.144531 145.761719 C 298.671875 144.289062 304.015625 145.207031 308.804688 148.332031 C 309.726562 149.433594 310.460938 150.351562 310.648438 151.457031 Z M 310.648438 151.457031 "/>
<path style=" stroke:none;fill-rule:nonzero;fill:rgb(100%,100%,100%);fill-opacity:1;" d="M 301.433594 198.671875 C 300.882812 198.671875 300.515625 199.589844 300.699219 200.144531 C 302.539062 204.917969 306.59375 208.226562 311.199219 208.226562 C 315.804688 208.226562 319.859375 204.917969 321.699219 200.144531 C 322.070312 199.40625 321.699219 198.671875 320.964844 198.671875 Z M 301.433594 198.671875 "/>
<path style=" stroke:none;fill-rule:nonzero;fill:rgb(46.669006%,30.979919%,29.019165%);fill-opacity:1;" d="M 297.75 170.195312 L 295.539062 167.992188 C 298.488281 165.234375 301.988281 163.398438 306.042969 163.03125 L 306.410156 166.152344 C 303.09375 166.519531 299.960938 167.808594 297.75 170.195312 Z M 297.75 170.195312 "/>
<path style=" stroke:none;fill-rule:nonzero;fill:rgb(46.669006%,30.979919%,29.019165%);fill-opacity:1;" d="M 325.015625 170.195312 L 327.226562 167.992188 C 324.28125 165.234375 320.78125 163.398438 316.726562 163.03125 L 316.359375 166.152344 C 319.675781 166.519531 322.621094 167.808594 325.015625 170.195312 Z M 325.015625 170.195312 "/>
<path style=" stroke:none;fill-rule:nonzero;fill:rgb(40.388489%,25.878906%,22.749329%);fill-opacity:1;" d="M 298.671875 178.648438 C 298.671875 179.015625 298.671875 179.566406 298.855469 179.933594 C 299.226562 181.21875 300.144531 182.136719 301.433594 182.136719 C 302.910156 182.136719 304.015625 180.484375 304.015625 178.648438 C 304.015625 177.910156 303.832031 177.359375 303.644531 176.808594 C 303.09375 175.707031 302.355469 175.15625 301.433594 175.15625 C 299.777344 175.15625 298.671875 176.625 298.671875 178.648438 Z M 298.671875 178.648438 "/>
<path style=" stroke:none;fill-rule:nonzero;fill:rgb(40.388489%,25.878906%,22.749329%);fill-opacity:1;" d="M 318.570312 178.648438 C 318.570312 179.015625 318.570312 179.566406 318.753906 179.933594 C 319.121094 181.21875 320.042969 182.136719 321.332031 182.136719 C 322.804688 182.136719 323.910156 180.484375 323.910156 178.648438 C 323.910156 177.910156 323.726562 177.359375 323.542969 176.808594 C 322.992188 175.707031 322.253906 175.15625 321.332031 175.15625 C 319.675781 175.15625 318.570312 176.625 318.570312 178.648438 Z M 318.570312 178.648438 "/>
<path style=" stroke:none;fill-rule:nonzero;fill:rgb(64.709473%,37.649536%,32.159424%);fill-opacity:1;" d="M 342.519531 161.007812 L 342.519531 172.398438 C 342.519531 174.421875 342.335938 176.257812 341.78125 178.097656 C 335.886719 176.257812 331.832031 170.746094 331.832031 164.316406 L 331.832031 158.988281 C 331.832031 156.96875 330.175781 155.3125 328.148438 155.3125 L 293.328125 155.3125 C 291.300781 155.3125 289.644531 156.96875 289.644531 158.988281 L 289.644531 167.070312 C 289.644531 172.582031 285.960938 176.992188 280.984375 178.464844 C 280.433594 176.625 280.25 174.605469 280.25 172.398438 L 280.25 162.480469 C 280.25 148.515625 291.671875 137.308594 305.488281 137.308594 L 318.9375 137.308594 C 331.832031 137.308594 342.519531 147.964844 342.519531 161.007812 Z M 342.519531 161.007812 "/>
<path style=" stroke:none;fill-rule:nonzero;fill:rgb(74.899292%,19.999695%,20.388794%);fill-opacity:1;" d="M 307.882812 347.492188 C 304.566406 347.492188 301.988281 344.917969 301.988281 341.609375 L 301.988281 330.035156 C 301.988281 321.402344 296.277344 314.050781 289.460938 313.683594 C 289.460938 313.683594 289.277344 313.683594 289.277344 313.683594 L 272.511719 312.03125 C 269.195312 311.664062 266.800781 308.90625 267.167969 305.601562 C 267.535156 302.292969 270.484375 299.90625 273.617188 300.273438 L 290.199219 301.925781 C 303.460938 302.660156 313.777344 314.972656 313.777344 330.035156 L 313.777344 341.609375 C 313.777344 344.917969 311.015625 347.492188 307.882812 347.492188 Z M 307.882812 347.492188 "/>
<path style=" stroke:none;fill-rule:nonzero;fill:rgb(17.649841%,23.529053%,34.509277%);fill-opacity:1;" d="M 291.300781 236.886719 C 284.484375 237.988281 278.960938 256.179688 278.039062 261.140625 C 278.039062 261.140625 276.933594 266.285156 276.933594 266.285156 L 275.457031 291.820312 C 275.089844 296.414062 278.40625 300.457031 283.011719 300.824219 C 287.433594 301.191406 291.117188 298.066406 291.671875 293.660156 C 291.671875 293.660156 297.015625 244.972656 297.015625 244.972656 C 297.382812 242.398438 295.171875 236.703125 291.855469 236.886719 C 291.671875 236.886719 291.488281 236.886719 291.300781 236.886719 Z M 291.300781 236.886719 "/>
<path style=" stroke:none;fill-rule:nonzero;fill:rgb(16.468811%,24.708557%,29.798889%);fill-opacity:1;" d="M 321.332031 312.582031 C 321.332031 312.765625 321.148438 312.765625 321.148438 312.949219 L 321.515625 312.949219 L 322.070312 310.378906 Z M 321.332031 312.582031 "/>
<path style=" stroke:none;fill-rule:nonzero;fill:rgb(17.649841%,23.529053%,34.509277%);fill-opacity:1;" d="M 319.488281 300.273438 C 319.488281 300.089844 319.488281 300.089844 319.675781 299.90625 L 285.222656 287.78125 C 283.378906 287.226562 281.355469 287.226562 279.695312 287.964844 C 278.039062 288.699219 276.5625 289.984375 275.828125 291.820312 C 273.984375 296.046875 276.378906 301.007812 280.984375 302.109375 L 315.988281 311.296875 C 315.988281 311.113281 315.988281 310.746094 315.988281 310.5625 Z M 319.488281 300.273438 "/>
<path style=" stroke:none;fill-rule:nonzero;fill:rgb(83.139038%,94.119263%,99.609375%);fill-opacity:1;" d="M 323.726562 299.90625 L 321.515625 299.171875 C 320.78125 298.988281 319.859375 299.355469 319.488281 299.90625 C 319.488281 299.90625 319.488281 300.089844 319.304688 300.273438 L 315.804688 310.746094 C 315.804688 310.929688 315.621094 311.296875 315.804688 311.480469 C 315.804688 312.03125 316.359375 312.582031 316.910156 312.949219 L 319.121094 313.683594 C 319.859375 313.867188 320.59375 313.683594 321.148438 312.949219 C 321.148438 312.765625 321.332031 312.765625 321.332031 312.582031 L 322.070312 310.5625 L 324.832031 302.109375 C 324.832031 302.109375 324.832031 301.925781 324.832031 301.925781 C 325.015625 301.007812 324.648438 300.273438 323.726562 299.90625 Z M 323.726562 299.90625 "/>
<path style=" stroke:none;fill-rule:nonzero;fill:rgb(98.429871%,72.938538%,62.348938%);fill-opacity:1;" d="M 322.070312 310.5625 L 321.515625 313.132812 L 325.570312 314.234375 C 328.332031 314.972656 331.097656 313.5 332.203125 311.113281 C 332.386719 310.929688 332.386719 310.5625 332.570312 310.378906 C 333.308594 307.4375 331.832031 304.5 328.886719 303.578125 L 325.015625 302.109375 C 325.015625 302.109375 325.015625 302.292969 325.015625 302.292969 Z M 322.070312 310.5625 "/>
<path style=" stroke:none;fill-rule:nonzero;fill:rgb(86.669922%,92.939758%,95.289612%);fill-opacity:1;" d="M 361.679688 334.8125 L 327.78125 327.097656 C 327.042969 326.914062 326.492188 326.179688 326.675781 325.257812 L 339.386719 269.957031 C 339.570312 269.222656 340.308594 268.671875 341.230469 268.855469 L 375.128906 276.574219 C 375.863281 276.757812 376.417969 277.492188 376.234375 278.410156 L 363.519531 333.710938 C 363.335938 334.445312 362.414062 334.996094 361.679688 334.8125 Z M 361.679688 334.8125 "/>
<path style=" stroke:none;fill-rule:nonzero;fill:rgb(98.429871%,72.938538%,62.348938%);fill-opacity:1;" d="M 331.832031 301.558594 C 332.753906 300.824219 334.042969 300.273438 335.148438 300.273438 L 339.386719 300.273438 C 339.570312 300.273438 339.570312 300.273438 339.753906 300.273438 C 343.070312 300.273438 357.625 298.621094 357.625 303.949219 C 357.625 305.601562 356.335938 307.070312 354.679688 307.253906 C 356.152344 307.621094 357.074219 308.90625 357.074219 310.5625 C 357.074219 312.214844 355.96875 313.5 354.308594 313.867188 C 355.785156 314.234375 356.890625 315.523438 356.890625 317.175781 C 356.890625 319.011719 355.414062 320.667969 353.386719 320.667969 L 353.019531 320.667969 L 353.019531 320.851562 C 348.78125 320.851562 339.386719 320.851562 335.148438 320.851562 C 333.859375 320.851562 332.753906 320.300781 331.832031 319.5625 C 329.253906 317.726562 327.78125 314.789062 327.78125 311.664062 L 327.78125 309.460938 C 327.964844 306.335938 329.4375 303.394531 331.832031 301.558594 Z M 331.832031 301.558594 "/>
<path style=" stroke:none;fill-rule:nonzero;fill:rgb(98.429871%,72.938538%,62.348938%);fill-opacity:1;" d="M 331.097656 307.4375 C 329.808594 307.804688 328.515625 306.703125 328.886719 305.417969 L 331.464844 292.925781 C 332.570312 290.902344 335.332031 291.269531 335.886719 293.476562 L 339.203125 305.234375 Z M 331.097656 307.4375 "/>
</g>
</svg>
