<?xml version="1.0" encoding="UTF-8"?>
<svg xmlns="http://www.w3.org/2000/svg" xmlns:xlink="http://www.w3.org/1999/xlink" width="708.75pt" height="567.000005pt" viewBox="0 0 708.75 567.000005" version="1.2">
<defs>
<clipPath id="clip1">
  <path d="M 358 279 L 556.144531 279 L 556.144531 435 L 358 435 Z M 358 279 "/>
</clipPath>
<clipPath id="clip2">
  <path d="M 131.515625 417 L 349 417 L 349 452.058594 L 131.515625 452.058594 Z M 131.515625 417 "/>
</clipPath>
</defs>
<g id="surface1">
<path style=" stroke:none;fill-rule:nonzero;fill:rgb(97.24884%,64.309692%,26.669312%);fill-opacity:1;" d="M 366.796875 256.152344 C 368.304688 256.328125 369.816406 256.453125 371.324219 256.546875 C 375.34375 256.789062 380.273438 256.003906 383.015625 259.664062 C 385.515625 263.015625 388.246094 266.167969 391.207031 269.113281 C 391.90625 269.148438 392.632812 270.277344 393.082031 270.714844 C 393.832031 271.4375 394.683594 272.082031 395.753906 272.335938 C 396.148438 272.429688 396.550781 272.453125 396.941406 272.566406 C 397.320312 272.683594 397.703125 272.914062 397.863281 273.292969 C 398.945312 275.824219 393.199219 274.421875 392.414062 274.074219 C 387.992188 272.117188 383.878906 268.710938 379.167969 267.515625 C 379.480469 270.011719 382.441406 270.988281 382.484375 273.707031 C 382.496094 274.636719 381.933594 275.800781 381.011719 275.675781 C 380.609375 275.617188 380.285156 275.316406 379.996094 275.042969 C 378.9375 274.039062 377.84375 273.039062 376.53125 272.417969 C 374.03125 271.230469 371.105469 271.507812 368.410156 270.898438 C 367.1875 270.609375 366.027344 270.148438 364.851562 269.691406 C 362.269531 268.652344 360.230469 268.054688 357.445312 267.972656 C 355.230469 267.917969 352.535156 267.984375 350.785156 266.398438 C 349.566406 265.28125 349.449219 263.417969 349.703125 261.78125 C 350.027344 259.675781 350.84375 257.640625 352.066406 255.878906 C 352.652344 255.027344 353.390625 254.207031 354.390625 253.945312 C 355.40625 253.667969 356.464844 254.011719 357.480469 254.324219 C 360.519531 255.246094 363.640625 255.808594 366.796875 256.152344 "/>
<path style=" stroke:none;fill-rule:nonzero;fill:rgb(12.939453%,11.369324%,11.369324%);fill-opacity:1;" d="M 442.820312 256.960938 L 445.769531 255.980469 L 454.121094 275.132812 L 452 276.929688 L 442.820312 256.960938 "/>
<path style=" stroke:none;fill-rule:nonzero;fill:rgb(23.139954%,22.349548%,23.919678%);fill-opacity:1;" d="M 457.898438 280.371094 L 423.988281 280.53125 L 423.828125 279.554688 L 444.132812 279.378906 L 449.859375 276.953125 L 432.835938 277.089844 L 424.320312 255.660156 L 441.519531 254.1875 L 451.65625 276.179688 L 454.121094 275.132812 L 457.898438 280.371094 "/>
<path style=" stroke:none;fill-rule:nonzero;fill:rgb(12.939453%,11.369324%,11.369324%);fill-opacity:1;" d="M 390.25 202.796875 L 474.441406 184.792969 L 476.074219 257.453125 L 391.886719 263.015625 L 390.25 202.796875 "/>
<path style=" stroke:none;fill-rule:nonzero;fill:rgb(31.369019%,32.159424%,33.729553%);fill-opacity:1;" d="M 392.207031 205.546875 L 469.347656 189.042969 L 470.671875 253.53125 L 393.703125 260.722656 L 392.207031 205.546875 "/>
<path style=" stroke:none;fill-rule:nonzero;fill:rgb(17.248535%,16.468811%,16.468811%);fill-opacity:1;" d="M 474.441406 184.792969 L 477.871094 186.09375 L 479.84375 258.109375 L 476.074219 257.453125 L 474.441406 184.792969 "/>
<path style=" stroke:none;fill-rule:nonzero;fill:rgb(17.248535%,16.468811%,16.468811%);fill-opacity:1;" d="M 476.074219 257.453125 L 479.84375 258.109375 L 394.832031 263.1875 L 391.886719 263.015625 L 476.074219 257.453125 "/>
<path style=" stroke:none;fill-rule:nonzero;fill:rgb(12.939453%,11.369324%,11.369324%);fill-opacity:1;" d="M 452 276.929688 L 444.132812 279.378906 L 423.828125 279.554688 L 432.835938 277.089844 L 452 276.929688 "/>
<path style=" stroke:none;fill-rule:nonzero;fill:rgb(34.509277%,30.198669%,26.669312%);fill-opacity:1;" d="M 355.84375 252.710938 C 356.636719 253.957031 356.902344 255.464844 357.019531 256.9375 C 357.351562 261.113281 356.789062 268.113281 352.019531 269.699219 C 350.289062 270.265625 348.308594 269.816406 346.71875 269 C 347.824219 265.925781 348.609375 262.726562 349.082031 259.492188 C 349.300781 258.03125 349.347656 256.558594 349.75 255.152344 C 350.09375 253.957031 350.050781 252.472656 350.902344 251.457031 C 351.246094 251.066406 351.765625 250.871094 352.273438 250.746094 C 353.632812 250.386719 355.152344 251.652344 355.84375 252.710938 "/>
<path style=" stroke:none;fill-rule:nonzero;fill:rgb(41.569519%,37.249756%,31.369019%);fill-opacity:1;" d="M 286.132812 233.59375 C 294.976562 237.230469 305.253906 239.234375 314.085938 241.628906 C 317.1875 242.46875 320.285156 243.25 323.40625 244 C 326.171875 244.667969 329.0625 244.964844 331.757812 245.761719 C 337.757812 247.523438 344.117188 247.535156 350.128906 249.226562 C 353.390625 250.144531 354.367188 252.089844 354.277344 255.359375 C 354.171875 259.191406 353.863281 263.199219 351.890625 266.488281 C 347.871094 273.210938 342.113281 270.691406 336.285156 268.941406 C 327.644531 266.339844 319.0625 263.601562 310.515625 260.722656 C 293.433594 254.945312 276.546875 248.605469 259.890625 241.6875 C 258.671875 237.519531 258.695312 231.824219 259.292969 227.550781 C 259.59375 225.492188 259.417969 218.023438 261.125 216.941406 C 262.449219 216.089844 265.476562 219.992188 266.308594 220.75 C 270.222656 224.273438 274.542969 227.332031 279.046875 230.0625 C 281.246094 231.398438 283.632812 232.558594 286.132812 233.59375 "/>
<path style=" stroke:none;fill-rule:nonzero;fill:rgb(74.508667%,70.199585%,56.858826%);fill-opacity:1;" d="M 501.324219 274.222656 C 500.335938 274.085938 498.546875 273.660156 497.648438 272.382812 C 497.003906 271.472656 496.84375 270.195312 496.730469 268.847656 C 496.417969 265.523438 496.300781 262.128906 496.371094 258.777344 C 496.40625 256.867188 496.542969 254.738281 497.742188 253.425781 C 499.089844 251.953125 501.566406 251.804688 503.90625 251.859375 L 503.90625 274.257812 C 503.042969 274.339844 502.175781 274.339844 501.324219 274.222656 Z M 503.917969 246.429688 L 503.90625 248.890625 C 500.933594 248.84375 497.695312 249.097656 495.554688 251.433594 C 493.757812 253.390625 493.457031 256.097656 493.398438 258.710938 C 493.332031 262.183594 493.457031 265.683594 493.769531 269.113281 C 493.929688 270.804688 494.171875 272.578125 495.21875 274.074219 C 496.371094 275.710938 498.386719 276.800781 500.910156 277.148438 C 501.554688 277.238281 502.210938 277.285156 502.867188 277.285156 C 503.261719 277.285156 503.652344 277.238281 504.03125 277.207031 C 504.355469 278.597656 505.539062 279.644531 507.027344 279.644531 L 524.144531 279.65625 C 525.871094 279.65625 527.277344 278.265625 527.277344 276.539062 L 527.289062 246.441406 L 503.917969 246.429688 "/>
<path style=" stroke:none;fill-rule:nonzero;fill:rgb(20.779419%,12.548828%,9.408569%);fill-opacity:1;" d="M 520.597656 265.28125 C 520.90625 264.71875 521 264.152344 520.894531 263.519531 C 519.960938 264.257812 518.902344 265.027344 517.714844 264.949219 C 516.714844 264.878906 515.871094 264.234375 514.996094 263.75 C 514.121094 263.277344 512.96875 262.980469 512.175781 263.578125 C 512.210938 264.707031 512.738281 265.820312 513.582031 266.570312 C 514.296875 267.214844 515.160156 267.558594 516.046875 267.640625 C 517.832031 267.8125 519.695312 266.925781 520.597656 265.28125 Z M 517.070312 258.949219 C 517.957031 259.042969 518.808594 259.398438 519.523438 260.042969 C 520.367188 260.804688 520.871094 261.921875 520.90625 263.058594 C 520.101562 263.648438 518.960938 263.335938 518.085938 262.851562 C 517.222656 262.371094 516.378906 261.714844 515.378906 261.632812 C 514.191406 261.539062 513.132812 262.3125 512.1875 263.035156 C 512.082031 262.402344 512.1875 261.839844 512.496094 261.277344 C 513.417969 259.628906 515.285156 258.765625 517.070312 258.949219 "/>
<path style=" stroke:none;fill-rule:nonzero;fill:rgb(20.779419%,12.548828%,9.408569%);fill-opacity:1;" d="M 548.265625 447.273438 L 364.515625 447.273438 L 364.515625 289.519531 L 548.265625 289.519531 L 548.265625 447.273438 "/>
<g clip-path="url(#clip1)" clip-rule="nonzero">
<path style=" stroke:none;fill-rule:nonzero;fill:rgb(34.899902%,19.60907%,9.01947%);fill-opacity:1;" d="M 360.761719 434.164062 L 364.515625 434.164062 L 364.515625 378.710938 L 360.761719 378.710938 Z M 360.761719 365.21875 L 364.515625 365.21875 L 364.515625 309.753906 L 360.761719 309.753906 Z M 556.144531 290.648438 L 358.136719 290.648438 L 358.136719 279.785156 L 556.144531 279.785156 L 556.144531 290.648438 "/>
</g>
<path style=" stroke:none;fill-rule:nonzero;fill:rgb(12.939453%,11.369324%,11.369324%);fill-opacity:1;" d="M 410.636719 276.03125 L 410.636719 280.023438 L 370.136719 280.023438 L 370.136719 276.03125 L 372.140625 276.03125 L 372.140625 275.03125 L 376.390625 275.03125 L 376.390625 276.03125 L 379.386719 276.03125 L 379.386719 274.902344 L 383.636719 274.902344 L 383.636719 276.03125 L 385.882812 276.03125 L 385.882812 274.902344 L 390.132812 274.902344 L 390.132812 276.03125 L 392.519531 276.03125 L 392.519531 274.789062 L 396.769531 274.789062 L 396.769531 276.03125 L 398.761719 276.03125 L 398.761719 274.789062 L 403.011719 274.789062 L 403.011719 276.03125 L 404.636719 276.03125 L 404.636719 274.789062 L 408.886719 274.789062 L 408.886719 276.03125 L 410.636719 276.03125 "/>
<path style=" stroke:none;fill-rule:nonzero;fill:rgb(31.369019%,67.449951%,89.408875%);fill-opacity:1;" d="M 404.140625 255.429688 L 398.542969 256.039062 L 399.222656 230.914062 L 404.738281 229.289062 L 404.140625 255.429688 "/>
<path style=" stroke:none;fill-rule:nonzero;fill:rgb(94.509888%,27.449036%,14.509583%);fill-opacity:1;" d="M 412.710938 254.625 L 406.546875 255.300781 L 407.433594 215.859375 L 413.460938 213.535156 L 412.710938 254.625 "/>
<path style=" stroke:none;fill-rule:nonzero;fill:rgb(94.509888%,93.728638%,11.369324%);fill-opacity:1;" d="M 421.535156 253.65625 L 414.632812 254.425781 L 415.382812 210.300781 L 422.097656 207.582031 L 421.535156 253.65625 "/>
<path style=" stroke:none;fill-rule:nonzero;fill:rgb(16.079712%,59.21936%,25.099182%);fill-opacity:1;" d="M 431.53125 252.265625 L 423.710938 253.128906 L 424.113281 213.476562 L 431.738281 210.738281 L 431.53125 252.265625 "/>
<path style=" stroke:none;fill-rule:nonzero;fill:rgb(74.508667%,70.199585%,56.858826%);fill-opacity:1;" d="M 438.847656 246.636719 L 438.925781 246.578125 L 462.113281 244.4375 C 462.484375 244.414062 462.773438 244.101562 462.792969 243.734375 C 462.816406 243.355469 462.550781 243.03125 462.183594 242.953125 L 461.308594 242.78125 C 460.996094 242.710938 460.734375 242.835938 460.570312 243.078125 L 438.398438 245.128906 L 438.019531 245.035156 C 437.613281 245.046875 437.210938 245.164062 436.933594 245.4375 C 436.714844 245.667969 436.660156 246.003906 436.796875 246.277344 C 436.933594 246.566406 437.257812 246.796875 437.546875 246.703125 L 438.019531 246.660156 L 438.410156 246.785156 Z M 438.847656 240.890625 L 438.925781 240.835938 L 462.113281 238.695312 C 462.484375 238.660156 462.773438 238.359375 462.792969 237.980469 C 462.816406 237.613281 462.550781 237.289062 462.183594 237.210938 L 461.308594 237.023438 C 460.996094 236.96875 460.734375 237.09375 460.570312 237.335938 L 438.398438 239.371094 L 438.019531 239.292969 C 437.613281 239.304688 437.210938 239.40625 436.933594 239.695312 C 436.714844 239.925781 436.660156 240.257812 436.796875 240.535156 C 436.933594 240.824219 437.257812 241.054688 437.546875 240.960938 L 438.019531 240.914062 L 438.410156 241.03125 Z M 438.410156 236.035156 L 438.019531 235.921875 L 437.546875 235.964844 C 437.257812 236.058594 436.933594 235.828125 436.796875 235.539062 C 436.660156 235.265625 436.714844 234.929688 436.933594 234.699219 C 437.210938 234.414062 437.613281 234.308594 438.019531 234.296875 L 438.398438 234.378906 L 460.570312 232.339844 C 460.734375 232.097656 460.996094 231.972656 461.308594 232.03125 L 462.183594 232.214844 C 462.550781 232.292969 462.816406 232.617188 462.792969 232.984375 C 462.773438 233.363281 462.484375 233.664062 462.113281 233.699219 L 438.925781 235.839844 L 438.847656 235.898438 L 438.410156 236.035156 "/>
<path style=" stroke:none;fill-rule:nonzero;fill:rgb(15.289307%,14.118958%,14.118958%);fill-opacity:1;" d="M 255.824219 386.582031 L 255.824219 394.109375 C 255.824219 394.523438 255.480469 394.855469 255.066406 394.855469 C 254.652344 394.855469 254.316406 394.523438 254.316406 394.109375 L 254.316406 391.09375 L 247.542969 391.09375 C 247.128906 391.09375 246.785156 390.761719 246.785156 390.34375 C 246.785156 389.929688 247.128906 389.597656 247.542969 389.597656 L 254.316406 389.597656 L 254.316406 386.582031 C 254.316406 386.167969 254.652344 385.832031 255.066406 385.832031 C 255.480469 385.832031 255.824219 386.167969 255.824219 386.582031 "/>
<path style=" stroke:none;fill-rule:nonzero;fill:rgb(15.289307%,14.118958%,14.118958%);fill-opacity:1;" d="M 249.894531 344.097656 L 234.390625 344.097656 L 234.390625 297.394531 L 249.894531 297.394531 L 249.894531 344.097656 "/>
<path style=" stroke:none;fill-rule:nonzero;fill:rgb(64.309692%,10.198975%,17.248535%);fill-opacity:1;" d="M 284.679688 264.105469 C 288.261719 268.550781 288.597656 274.71875 288.769531 280.429688 C 288.882812 284.167969 289 287.910156 289.113281 291.648438 C 289.308594 298.210938 289.390625 305.21875 285.878906 310.765625 C 282.8125 315.566406 277.136719 318.582031 271.433594 318.421875 C 267.460938 308.488281 266.34375 297.648438 265.9375 286.953125 C 265.605469 278.148438 266.433594 268.25 271.109375 260.539062 C 271.339844 260.160156 271.605469 259.769531 271.984375 259.539062 C 272.402344 259.296875 272.917969 259.273438 273.402344 259.273438 C 277.816406 259.296875 281.847656 260.609375 284.679688 264.105469 "/>
<path style=" stroke:none;fill-rule:nonzero;fill:rgb(74.508667%,10.978699%,17.649841%);fill-opacity:1;" d="M 271.46875 318.375 L 208.910156 318.375 C 200.949219 318.375 194.453125 311.871094 194.453125 303.917969 L 194.453125 273.511719 C 194.453125 265.570312 200.949219 259.066406 208.910156 259.066406 L 271.46875 259.066406 C 279.414062 259.066406 285.925781 265.570312 285.925781 273.511719 L 285.925781 303.917969 C 285.925781 311.871094 279.414062 318.375 271.46875 318.375 "/>
<path style=" stroke:none;fill-rule:nonzero;fill:rgb(69.018555%,11.369324%,13.729858%);fill-opacity:1;" d="M 198.152344 298.003906 C 197.414062 291.039062 197.609375 284.03125 197.816406 277.03125 C 197.886719 274.617188 197.964844 272.152344 198.761719 269.863281 C 200.558594 264.773438 204.335938 262.933594 209.230469 262.335938 C 214.578125 261.691406 219.921875 261.34375 225.289062 261.34375 C 227.191406 261.34375 229.089844 261.390625 230.992188 261.472656 C 225.761719 262.371094 220.496094 263.265625 215.554688 265.167969 C 210.601562 267.066406 205.9375 270.058594 202.910156 274.410156 C 198.253906 281.105469 198.117188 289.84375 198.152344 298.003906 "/>
<path style=" stroke:none;fill-rule:nonzero;fill:rgb(12.939453%,11.369324%,11.369324%);fill-opacity:1;" d="M 297.789062 352.972656 C 297.789062 359.589844 292.363281 365.011719 285.738281 365.011719 L 247.289062 365.011719 L 247.289062 391.910156 C 247.289062 394.292969 245.34375 396.238281 242.960938 396.238281 C 240.574219 396.238281 238.628906 394.292969 238.628906 391.910156 L 238.628906 365.011719 L 196.410156 365.011719 C 189.789062 365.011719 184.363281 359.589844 184.363281 352.972656 C 184.363281 346.355469 189.789062 340.933594 196.410156 340.933594 L 285.738281 340.933594 C 292.363281 340.933594 297.789062 346.355469 297.789062 352.972656 "/>
<path style=" stroke:none;fill-rule:nonzero;fill:rgb(6.269836%,5.879211%,5.099487%);fill-opacity:1;" d="M 281.476562 440.550781 C 281.683594 445.394531 274.152344 445.375 273.945312 440.550781 C 273.449219 429.03125 262.644531 424.320312 252.554688 422.296875 L 252.554688 425.207031 L 246.53125 425.207031 C 246.53125 429.972656 246.53125 434.738281 246.53125 439.503906 C 246.53125 444.347656 239.007812 444.347656 239.007812 439.503906 C 239.007812 434.738281 239.007812 429.972656 239.007812 425.207031 L 231.980469 425.207031 L 231.980469 422.433594 C 222.097656 424.539062 211.8125 429.304688 211.316406 440.550781 C 211.109375 445.386719 203.589844 445.394531 203.796875 440.550781 C 204.566406 422.746094 221.535156 416.21875 236.738281 414.078125 L 236.738281 386.835938 L 249.167969 386.835938 L 249.167969 414.171875 C 264.210938 416.402344 280.71875 423 281.476562 440.550781 "/>
<path style=" stroke:none;fill-rule:nonzero;fill:rgb(41.569519%,37.249756%,31.369019%);fill-opacity:1;" d="M 219.390625 254.820312 C 220.683594 245.484375 220.128906 224.570312 229.089844 218.402344 C 233.972656 215.03125 238.894531 211.542969 245.113281 211.601562 C 250.308594 211.632812 255.503906 212.855469 260.121094 215.238281 C 261.640625 216.019531 263.117188 216.941406 264.28125 218.183594 C 267.515625 221.695312 266.617188 230.5 266.386719 234.90625 C 265.765625 247.199219 264.949219 257.824219 266.78125 270.277344 C 268.601562 282.660156 270.960938 295.125 269.914062 307.707031 C 269.199219 316.234375 265.9375 320.378906 257.324219 320.675781 C 246 321.082031 234.632812 319.835938 223.664062 317.003906 C 219.21875 315.867188 214.230469 313.886719 212.824219 309.511719 C 212.167969 307.464844 212.457031 305.242188 212.757812 303.113281 C 214.851562 287.839844 216.960938 272.566406 219.058594 257.28125 C 219.171875 256.464844 219.289062 255.648438 219.390625 254.820312 "/>
<path style=" stroke:none;fill-rule:nonzero;fill:rgb(60.778809%,59.999084%,59.999084%);fill-opacity:1;" d="M 182.441406 413.757812 C 182.242188 411.707031 182.011719 409.726562 182 408.09375 C 181.992188 407.574219 181.992188 407.046875 181.78125 406.5625 C 181.519531 405.953125 180.964844 405.515625 180.414062 405.136719 C 177.980469 403.5 169.953125 400.09375 168.167969 404.226562 C 167.765625 405.160156 167.753906 406.21875 167.671875 407.230469 C 167.210938 412.707031 164.125 416.980469 161.980469 421.800781 C 166.785156 423.585938 170.875 425.980469 176.253906 426.222656 C 183.257812 426.53125 183.027344 419.855469 182.441406 413.757812 M 297.835938 415.367188 C 297.859375 415.101562 297.878906 414.816406 298.042969 414.597656 L 298.652344 414.203125 C 302.660156 412.570312 307.050781 411.855469 311.367188 412.121094 L 312.035156 412.316406 L 312.359375 412.996094 C 313.234375 416.792969 314.710938 420.464844 316.714844 423.816406 C 312.84375 426.1875 308.363281 427.566406 303.8125 427.785156 C 301.441406 427.902344 298.144531 427.730469 297.546875 424.933594 C 296.925781 421.984375 297.660156 418.347656 297.835938 415.367188 "/>
<path style=" stroke:none;fill-rule:nonzero;fill:rgb(6.269836%,5.879211%,5.099487%);fill-opacity:1;" d="M 173.441406 431.171875 L 168.652344 437.824219 L 173.582031 438.960938 Z M 306.644531 432.722656 L 311.472656 439.367188 L 306.542969 440.515625 L 306.644531 432.722656 "/>
<g clip-path="url(#clip2)" clip-rule="nonzero">
<path style=" stroke:none;fill-rule:nonzero;fill:rgb(12.939453%,11.369324%,11.369324%);fill-opacity:1;" d="M 136.273438 443.855469 C 135.972656 443.945312 135.683594 444.027344 135.386719 444.105469 C 133.542969 444.601562 131.101562 445.660156 131.574219 447.503906 C 131.847656 448.5625 133.023438 449.078125 134.070312 449.402344 C 142.367188 451.851562 151.28125 450.183594 159.691406 448.160156 C 163.078125 447.351562 166.867188 446.304688 168.941406 443.277344 C 169.988281 441.734375 172.925781 435.300781 172.601562 433.507812 C 172.9375 435.324219 173.257812 437.144531 173.582031 438.960938 C 176.035156 437.835938 178.417969 436.558594 180.722656 435.164062 C 181.484375 434.703125 182.253906 434.199219 182.761719 433.472656 C 183.488281 432.414062 183.546875 431.042969 183.578125 429.753906 C 183.636719 427.371094 183.707031 424.988281 183.765625 422.605469 C 181.402344 423.273438 178.878906 423.378906 176.472656 422.882812 C 175.632812 422.710938 174.722656 422.410156 174.261719 421.6875 C 173.652344 420.707031 174.089844 419.351562 173.5 418.359375 C 172.84375 417.253906 171.3125 417.164062 170.023438 417.199219 C 168.710938 417.21875 167.382812 417.253906 166.058594 417.289062 C 165.136719 417.3125 164.171875 417.347656 163.351562 417.785156 C 162.511719 418.234375 161.960938 419.0625 161.417969 419.855469 C 155.253906 429.03125 147.34375 440.414062 136.273438 443.855469 M 343.875 445.269531 C 344.164062 445.363281 344.460938 445.441406 344.761719 445.523438 C 346.605469 446.007812 349.046875 447.054688 348.585938 448.894531 C 348.320312 449.953125 347.132812 450.484375 346.085938 450.792969 C 337.804688 453.292969 328.890625 451.65625 320.46875 449.667969 C 317.070312 448.859375 313.292969 447.835938 311.207031 444.820312 C 310.148438 443.277344 307.175781 436.855469 307.5 435.0625 C 307.175781 436.878906 306.855469 438.699219 306.542969 440.515625 C 304.089844 439.398438 301.703125 438.132812 299.390625 436.753906 C 298.628906 436.292969 297.859375 435.796875 297.339844 435.0625 C 296.601562 434.011719 296.542969 432.644531 296.507812 431.355469 C 296.429688 428.972656 296.359375 426.589844 296.289062 424.207031 C 298.652344 424.863281 301.175781 424.957031 303.582031 424.460938 C 304.433594 424.277344 305.332031 423.976562 305.792969 423.25 C 306.394531 422.273438 305.964844 420.914062 306.542969 419.925781 C 307.199219 418.808594 308.730469 418.707031 310.007812 418.738281 C 311.335938 418.761719 312.660156 418.785156 313.972656 418.820312 C 314.90625 418.832031 315.871094 418.867188 316.691406 419.304688 C 317.53125 419.753906 318.097656 420.570312 318.625 421.363281 C 324.824219 430.515625 332.78125 441.875 343.875 445.269531 "/>
</g>
<path style=" stroke:none;fill-rule:nonzero;fill:rgb(20.779419%,12.548828%,9.408569%);fill-opacity:1;" d="M 333.195312 322.53125 C 330.375 345.433594 326.492188 368.210938 321.550781 390.761719 C 321.195312 392.382812 316.539062 415.472656 316.539062 415.472656 C 308.777344 416.289062 300.828125 415.332031 293.492188 412.699219 C 292.628906 412.386719 291.707031 411.972656 291.347656 411.132812 C 291.140625 410.636719 291.1875 410.0625 291.234375 409.519531 C 292.707031 393.730469 297.269531 378.871094 300.96875 363.355469 C 304.019531 350.566406 308.742188 336.515625 309.445312 323.40625 C 297.753906 324.761719 283.863281 332.613281 272.875 337.171875 C 263.070312 341.246094 253.105469 341.1875 242.578125 341.429688 C 233.292969 341.636719 223.976562 342.441406 214.898438 340.058594 C 205.914062 337.710938 197.609375 333.304688 189.453125 328.988281 C 183.140625 325.636719 176.828125 322.300781 170.527344 318.960938 C 171.945312 329.480469 173.695312 339.738281 175.390625 350.210938 C 177.199219 361.296875 179.421875 372.320312 182.1875 383.222656 C 183.328125 387.722656 184.488281 392.082031 185.375 396.605469 C 185.964844 399.554688 189.695312 405.976562 189.039062 408.519531 C 188.902344 409.046875 188.359375 409.359375 187.863281 409.601562 C 180.148438 413.363281 171.347656 414.917969 162.800781 414.019531 C 159.734375 395.042969 157.28125 375.957031 153.78125 357.058594 C 151.476562 344.617188 150.1875 332.347656 147.582031 319.953125 C 145.992188 312.332031 145.566406 303.746094 150.140625 297.449219 C 156.789062 288.324219 170.515625 293.789062 179.167969 295.734375 C 192.945312 298.84375 205.144531 303.746094 218.238281 309.007812 C 229.480469 313.519531 242.0625 317.214844 254.257812 315.015625 C 266.894531 312.734375 279.554688 305.796875 291.5 301.089844 C 303.582031 296.335938 327.957031 288.910156 332.964844 306.519531 C 334.429688 311.769531 333.855469 317.234375 333.195312 322.53125 "/>
<path style=" stroke:none;fill-rule:nonzero;fill:rgb(93.728638%,57.249451%,22.749329%);fill-opacity:1;" d="M 242.566406 209.136719 C 242.96875 206.421875 242.683594 204.015625 242.53125 201.320312 C 242.210938 195.601562 248.855469 193.585938 253.488281 195.773438 C 254.476562 196.234375 255.421875 196.925781 255.871094 197.925781 C 256.285156 198.824219 256.238281 199.859375 256.195312 200.851562 C 256 204.992188 255.800781 209.125 255.605469 213.257812 C 255.527344 215.042969 255.410156 216.929688 254.410156 218.402344 C 253.429688 219.851562 251.703125 220.691406 249.960938 220.84375 C 248.222656 220.992188 246.484375 220.507812 244.90625 219.75 C 244.019531 219.324219 243.144531 218.78125 242.554688 217.988281 C 240.710938 215.480469 242.164062 211.875 242.566406 209.136719 "/>
<path style=" stroke:none;fill-rule:nonzero;fill:rgb(97.24884%,64.309692%,26.669312%);fill-opacity:1;" d="M 277.367188 169.519531 C 276.582031 175.503906 276.835938 181.558594 276.292969 187.554688 C 275.878906 192.195312 275.210938 197.640625 272.746094 201.679688 C 270.375 205.59375 265.546875 208.007812 261.183594 208.828125 C 256.21875 209.757812 251.066406 208.976562 246.265625 207.445312 C 242.257812 206.167969 238.375 204.347656 235.171875 201.621094 C 228.492188 195.945312 227.453125 187.328125 227.328125 179.039062 C 227.292969 177.1875 227.257812 175.230469 227.257812 173.203125 C 225.589844 174.859375 222.59375 174.894531 220.53125 173.617188 C 218.261719 172.214844 216.9375 169.691406 216.003906 167.195312 C 215.140625 164.859375 214.53125 162.375 214.738281 159.898438 C 214.96875 157.160156 216.476562 154.292969 219.105469 153.488281 C 221.613281 152.703125 224.414062 154.074219 226.015625 156.15625 C 226.695312 157.042969 227.304688 158.277344 227.8125 159.679688 C 228.882812 149.011719 231.878906 138.46875 239.894531 132.34375 C 251.746094 123.296875 272.414062 129.328125 277.574219 143.300781 L 277.792969 143.933594 C 280.808594 152.867188 278.507812 160.714844 277.367188 169.519531 "/>
<path style=" stroke:none;fill-rule:nonzero;fill:rgb(88.62915%,56.858826%,22.749329%);fill-opacity:1;" d="M 224.667969 170.925781 C 224.058594 170.925781 223.410156 170.535156 223.078125 169.992188 C 222.605469 169.210938 222.582031 168.253906 222.59375 167.332031 L 219.816406 166.21875 C 219.011719 165.5625 218.457031 164.59375 218.503906 163.523438 C 218.585938 162.003906 219.785156 160.84375 221.269531 160.691406 C 221.417969 160.679688 221.558594 160.679688 221.695312 160.679688 C 225.667969 160.679688 226.648438 166.136719 226.140625 169.1875 C 226.039062 169.75 225.875 170.347656 225.40625 170.695312 C 225.1875 170.855469 224.933594 170.925781 224.667969 170.925781 "/>
<path style=" stroke:none;fill-rule:nonzero;fill:rgb(100%,100%,100%);fill-opacity:1;" d="M 264.164062 159.265625 C 263.589844 160.105469 263.289062 161.09375 263.058594 162.085938 C 262.101562 166.011719 262.070312 170.164062 262.957031 174.113281 C 263.117188 174.859375 263.347656 175.65625 263.933594 176.148438 C 264.269531 176.4375 264.695312 176.585938 265.121094 176.703125 C 266.675781 177.128906 268.3125 177.035156 269.914062 176.875 C 270.339844 176.828125 270.777344 176.785156 271.179688 176.609375 C 271.710938 176.378906 272.125 175.964844 272.480469 175.527344 C 273.289062 174.574219 273.898438 173.480469 274.417969 172.339844 C 275.546875 169.867188 276.25 167.195312 276.480469 164.492188 C 276.59375 163.074219 276.570312 161.589844 275.972656 160.300781 C 275.210938 158.644531 273.574219 157.503906 271.800781 157.101562 C 269.417969 156.574219 265.652344 157.089844 264.164062 159.265625 M 253.578125 156.664062 C 254.027344 157.609375 254.179688 158.679688 254.269531 159.738281 C 254.605469 163.925781 253.960938 168.195312 252.414062 172.121094 C 252.128906 172.859375 251.757812 173.640625 251.078125 174.054688 C 250.675781 174.296875 250.214844 174.390625 249.753906 174.433594 C 248.097656 174.621094 246.425781 174.25 244.8125 173.824219 C 244.375 173.710938 243.925781 173.582031 243.546875 173.34375 C 243.050781 173.03125 242.683594 172.535156 242.382812 172.03125 C 241.714844 170.914062 241.265625 169.683594 240.921875 168.4375 C 240.160156 165.710938 239.871094 162.855469 240.078125 160.035156 C 240.183594 158.550781 240.449219 157.03125 241.277344 155.800781 C 242.324219 154.234375 244.203125 153.328125 246.09375 153.199219 C 248.625 153.039062 252.40625 154.191406 253.578125 156.664062 "/>
<path style=" stroke:none;fill-rule:nonzero;fill:rgb(93.728638%,57.249451%,22.749329%);fill-opacity:1;" d="M 254.765625 158.828125 C 254.890625 157.769531 254.660156 156.6875 254.167969 155.742188 C 253.488281 154.441406 252.359375 153.40625 251.078125 152.695312 C 248.683594 151.335938 245.65625 151.023438 243.121094 152.128906 C 239.859375 153.535156 238.304688 156.847656 239.238281 160.277344 L 239.34375 160.484375 L 240.023438 160.289062 C 241.644531 158.632812 243.914062 157.425781 246.242188 157.136719 C 248.5 156.859375 251.242188 157.863281 253.09375 159.117188 C 253.742188 159.542969 254.246094 159.980469 254.546875 159.597656 C 254.652344 159.460938 254.730469 159.21875 254.765625 158.828125 M 276.894531 162.613281 C 277.6875 162.097656 277.007812 160.1875 276.71875 159.566406 C 276.167969 158.414062 275.328125 157.402344 274.300781 156.640625 C 272.863281 155.570312 271.078125 155.007812 269.28125 154.949219 C 266.296875 154.855469 263.898438 156.582031 262.726562 159.253906 C 262.3125 160.199219 262.023438 161.359375 262.101562 162.394531 L 262.265625 162.878906 C 262.5625 163.203125 263.09375 162.878906 263.429688 162.59375 C 265.097656 161.128906 267.285156 160.277344 269.5 160.222656 C 271.722656 160.164062 273.945312 160.898438 275.683594 162.269531 C 275.972656 162.488281 276.351562 162.742188 276.675781 162.695312 L 276.894531 162.613281 M 247.636719 168.96875 C 245.402344 168.785156 243.222656 168.058594 241.347656 166.828125 C 241 166.609375 240.65625 166.355469 240.253906 166.296875 C 238.765625 166.078125 239.089844 168.449219 239.15625 169.3125 C 239.308594 171.199219 240.355469 172.765625 241.875 173.789062 C 244.238281 175.402344 247.335938 176.105469 250.03125 175.160156 C 251.484375 174.640625 252.796875 173.59375 253.625 172.28125 C 254.074219 171.558594 255.375 168.691406 254.027344 168.207031 C 253.761719 168.117188 253.464844 168.21875 253.1875 168.3125 C 251.402344 168.921875 249.5 169.140625 247.636719 168.96875 M 272.886719 171.984375 C 273.554688 171.84375 275.683594 170.417969 276.121094 171.429688 C 276.226562 171.695312 276.191406 171.984375 276.132812 172.25 C 275.753906 173.996094 274.671875 175.597656 273.148438 176.632812 C 271.640625 177.65625 269.707031 178.105469 267.863281 177.863281 C 266.976562 177.75 266.125 177.472656 265.304688 177.152344 C 264.476562 176.828125 263.667969 176.4375 263 175.875 C 262.089844 175.101562 261.402344 173.824219 261.25 172.664062 C 261.136719 171.8125 260.941406 169.855469 262.207031 169.671875 C 262.496094 169.625 262.78125 169.761719 263.046875 169.902344 C 263.785156 170.316406 264.5 170.785156 265.257812 171.167969 C 266.503906 171.777344 267.863281 172.121094 269.257812 172.226562 C 270.464844 172.316406 271.699219 172.238281 272.886719 171.984375 "/>
<path style=" stroke:none;fill-rule:nonzero;fill:rgb(12.939453%,11.369324%,11.369324%);fill-opacity:1;" d="M 242.453125 145.257812 C 242.140625 145.523438 241.863281 145.8125 241.644531 146.15625 C 241.414062 146.5 241.230469 146.894531 241.117188 147.296875 L 240.964844 148.390625 C 243.59375 146.445312 247.082031 145.707031 250.261719 146.421875 C 251.355469 146.675781 252.414062 147.179688 253.566406 146.914062 C 254.316406 146.742188 255.019531 146.144531 255.066406 145.375 C 255.089844 144.820312 254.777344 144.292969 254.339844 143.945312 C 253.914062 143.601562 253.382812 143.417969 252.84375 143.265625 C 249.675781 142.402344 246.136719 142.910156 243.339844 144.625 C 243.027344 144.820312 242.730469 145.027344 242.453125 145.257812 Z M 277.191406 154.039062 C 277.410156 154.375 277.585938 154.730469 277.710938 155.121094 C 277.828125 155.523438 277.882812 155.949219 277.882812 156.375 L 277.710938 157.457031 C 275.753906 154.835938 272.632812 153.132812 269.371094 152.878906 C 268.265625 152.796875 267.089844 152.980469 266.078125 152.394531 C 265.410156 152.015625 264.902344 151.230469 265.085938 150.484375 C 265.226562 149.941406 265.6875 149.527344 266.191406 149.332031 C 266.710938 149.125 267.273438 149.101562 267.828125 149.113281 C 271.121094 149.207031 274.347656 150.714844 276.523438 153.175781 C 276.765625 153.441406 276.996094 153.730469 277.191406 154.039062 "/>
<path style=" stroke:none;fill-rule:nonzero;fill:rgb(76.078796%,49.01886%,21.179199%);fill-opacity:1;" d="M 260.941406 182.882812 C 260.042969 182.882812 259.144531 182.835938 258.257812 182.722656 C 257.195312 182.585938 255.894531 182.445312 255.144531 181.59375 L 254.835938 181.238281 C 254.671875 181.089844 254.441406 181.054688 254.210938 181.054688 C 253.960938 181.054688 253.683594 181.097656 253.464844 181.109375 C 253.417969 181.109375 253.359375 181.109375 253.292969 181.109375 C 252.542969 181.109375 251.769531 180.902344 251.160156 180.433594 C 250.421875 179.867188 249.972656 178.878906 250.179688 177.957031 C 250.367188 177.105469 251.171875 176.390625 252.046875 176.390625 C 252.105469 176.390625 252.164062 176.390625 252.21875 176.402344 C 251.496094 176.484375 250.828125 177.003906 250.550781 177.679688 C 250.285156 178.371094 250.421875 179.199219 250.882812 179.765625 C 251.496094 180.476562 252.484375 180.683594 253.453125 180.683594 C 253.671875 180.683594 253.878906 180.671875 254.085938 180.652344 L 254.871094 180.652344 L 255.410156 181.03125 C 256.019531 181.558594 256.816406 181.800781 257.597656 181.960938 C 258.566406 182.167969 259.558594 182.285156 260.546875 182.296875 C 260.617188 182.296875 260.699219 182.296875 260.777344 182.296875 C 261.171875 182.296875 261.574219 182.285156 261.953125 182.214844 C 262.332031 182.148438 262.714844 182.019531 262.988281 181.765625 C 263.417969 181.386719 263.542969 180.753906 263.460938 180.179688 C 263.335938 179.339844 262.839844 178.589844 262.414062 177.863281 C 261.5625 176.4375 261.007812 174.851562 260.722656 173.214844 C 260.546875 172.097656 260.410156 170.972656 260.46875 169.84375 C 260.511719 168.65625 260.753906 167.449219 260.996094 166.296875 C 261.066406 165.941406 261.160156 165.585938 261.332031 165.273438 C 260.996094 167.355469 260.675781 169.394531 260.835938 171.511719 C 260.929688 172.6875 261.148438 173.859375 261.539062 174.976562 C 261.734375 175.527344 261.976562 176.082031 262.265625 176.597656 C 262.644531 177.277344 263.117188 177.910156 263.472656 178.613281 C 264.015625 179.648438 264.453125 181.570312 263.394531 182.457031 C 263 182.792969 262.4375 182.847656 261.90625 182.859375 C 261.585938 182.871094 261.261719 182.882812 260.941406 182.882812 "/>
<path style=" stroke:none;fill-rule:nonzero;fill:rgb(20.779419%,12.548828%,9.408569%);fill-opacity:1;" d="M 257.484375 190.007812 C 254.488281 193.324219 253.269531 197.339844 253.164062 201.792969 C 251.472656 201.816406 249.617188 201.507812 247.785156 200.90625 C 245.195312 200.019531 242.867188 198.605469 241.53125 196.890625 C 240.355469 195.3125 239.699219 193.460938 239.515625 191.515625 C 239.445312 190.789062 239.433594 190.066406 239.480469 189.339844 C 239.699219 186.761719 240.597656 184.101562 241.945312 181.894531 C 241.578125 184.828125 244.757812 186.96875 247.164062 188.144531 C 249.917969 189.46875 254.476562 190.664062 257.484375 190.007812 "/>
<path style=" stroke:none;fill-rule:nonzero;fill:rgb(100%,100%,100%);fill-opacity:1;" d="M 241.171875 187.382812 C 241.117188 187.109375 241.183594 186.808594 241.242188 186.53125 C 241.496094 185.425781 241.773438 184.332031 242.105469 183.25 C 243.546875 185.863281 245.988281 187.855469 248.742188 188.984375 C 251.507812 190.113281 254.558594 190.386719 257.519531 190.019531 C 257.597656 190.582031 257.609375 191.148438 257.691406 191.710938 C 257.773438 192.207031 257.703125 192.703125 257.667969 193.207031 L 257.609375 193.425781 L 257.335938 193.542969 C 256.273438 193.65625 255.066406 193.816406 254.003906 193.597656 C 253.9375 193.023438 253.867188 192.449219 253.785156 191.859375 C 253.71875 192.367188 253.636719 192.875 253.542969 193.378906 L 253.304688 193.5625 C 251.507812 193.460938 249.765625 193.105469 248.0625 192.539062 C 245.5625 191.699219 243.386719 190.332031 241.691406 188.292969 L 241.359375 187.84375 L 241.171875 187.382812 "/>
<path style=" stroke:none;fill-rule:nonzero;fill:rgb(74.508667%,10.978699%,17.649841%);fill-opacity:1;" d="M 247.902344 199.167969 C 247.921875 199.710938 247.890625 200.308594 247.785156 200.90625 C 245.195312 200.019531 242.867188 198.605469 241.53125 196.890625 C 240.355469 195.3125 239.699219 193.460938 239.515625 191.515625 C 240.011719 191.308594 240.734375 191.355469 241.277344 191.445312 C 241.992188 191.609375 242.695312 191.964844 243.199219 192.472656 C 244.226562 193.378906 244.800781 194.808594 244.824219 196.199219 C 245.632812 196.003906 246.449219 196.359375 247.011719 196.9375 C 247.578125 197.582031 247.832031 198.375 247.902344 199.167969 "/>
<path style=" stroke:none;fill-rule:nonzero;fill:rgb(97.24884%,64.309692%,26.669312%);fill-opacity:1;" d="M 180.871094 171.582031 C 180.769531 171.085938 180.675781 170.601562 180.597656 170.109375 C 180.433594 169.164062 180.296875 168.195312 180.480469 167.253906 C 180.675781 166.171875 181.277344 165.203125 181.851562 164.273438 C 182.945312 162.464844 184.015625 160.636719 185.03125 158.78125 C 185.457031 158.011719 185.871094 157.238281 186.183594 156.410156 C 186.527344 155.480469 186.722656 154.488281 187.046875 153.546875 C 187.3125 152.714844 187.667969 151.921875 188.09375 151.175781 L 188.28125 150.472656 C 188.164062 150.125 187.714844 150.070312 187.371094 150.117188 C 186.242188 150.3125 185.355469 151.164062 184.628906 152.039062 C 183.914062 152.921875 183.257812 153.902344 182.300781 154.535156 C 180.953125 155.410156 179.410156 154.835938 178.742188 153.476562 C 176.3125 148.597656 175.367188 143.140625 173.8125 137.914062 C 173.664062 137.410156 173.488281 136.878906 173.109375 136.523438 C 172.730469 136.164062 172.074219 136.039062 171.691406 136.394531 C 171.3125 136.765625 171.382812 137.375 171.484375 137.890625 C 171.867188 139.78125 172.246094 141.65625 172.625 143.542969 C 172.820312 144.488281 173.003906 145.429688 173.203125 146.375 C 173.363281 147.179688 173.628906 148.054688 173.671875 148.882812 L 173.570312 149.21875 L 173.398438 149.320312 L 173.015625 149.320312 C 172.742188 149.207031 172.542969 148.390625 172.441406 148.101562 C 171.785156 146.363281 171.230469 144.578125 170.65625 142.808594 C 170 140.792969 169.433594 138.503906 168.15625 136.777344 C 167.789062 136.269531 167.015625 135.933594 166.566406 136.359375 C 166.210938 136.695312 166.277344 137.246094 166.371094 137.71875 C 167.164062 141.726562 168.0625 145.707031 169.054688 149.65625 L 168.996094 150.171875 C 168.765625 150.390625 168.433594 150.046875 168.292969 149.746094 C 166.855469 146.59375 165.425781 143.429688 163.988281 140.261719 C 163.777344 139.800781 163.558594 139.320312 163.167969 138.984375 C 162.777344 138.664062 162.167969 138.523438 161.75 138.824219 C 161.09375 139.296875 161.359375 140.21875 161.554688 140.839844 C 161.855469 141.769531 162.15625 142.691406 162.476562 143.613281 C 163.097656 145.453125 163.777344 147.285156 164.480469 149.089844 C 164.863281 150.070312 165.335938 151.023438 165.574219 152.039062 L 165.542969 152.507812 L 164.839844 152.683594 L 164.285156 152.140625 C 163.398438 150.851562 162.777344 149.390625 162.0625 148.007812 C 161.867188 147.617188 161.660156 147.238281 161.394531 146.894531 C 161.082031 146.476562 160.230469 145.878906 159.863281 146.570312 L 159.839844 147.214844 C 160.023438 148.089844 160.382812 148.871094 160.691406 149.699219 C 161.027344 150.574219 161.347656 151.460938 161.695312 152.335938 C 163.433594 156.90625 165.242188 161.441406 167.140625 165.941406 C 167.753906 167.402344 168.375 168.875 168.90625 170.371094 C 169.421875 171.878906 169.839844 173.421875 170.230469 174.964844 C 170.703125 176.828125 171.140625 178.707031 171.53125 180.59375 C 171.886719 182.34375 172.523438 184.367188 172.464844 186.152344 C 176.53125 185.738281 180.816406 185.21875 184.0625 182.746094 C 183.074219 178.980469 181.632812 175.414062 180.871094 171.582031 "/>
<path style=" stroke:none;fill-rule:nonzero;fill:rgb(34.509277%,30.198669%,26.669312%);fill-opacity:1;" d="M 178.535156 169.199219 C 175.65625 169.441406 172.832031 170.269531 170.277344 171.605469 C 169.5625 171.972656 168.824219 172.421875 168.433594 173.125 C 167.601562 174.574219 168.480469 176.367188 169.390625 177.761719 C 169.261719 177.566406 181.195312 175.21875 182.105469 174.917969 C 183.789062 174.355469 184.753906 173.238281 184.007812 171.398438 C 183.117188 169.257812 180.550781 169.027344 178.535156 169.199219 "/>
<path style=" stroke:none;fill-rule:nonzero;fill:rgb(41.569519%,37.249756%,31.369019%);fill-opacity:1;" d="M 204.003906 220.472656 C 202.332031 220.035156 200.386719 219.152344 198.933594 220.519531 C 198.519531 218.910156 198.394531 218.296875 196.46875 218.101562 C 196.296875 215.121094 194.820312 212.269531 193.578125 209.609375 C 192.324219 206.925781 191.675781 204.128906 191.113281 201.171875 C 189.902344 194.773438 189.476562 188.234375 189.859375 181.734375 C 190.144531 176.738281 187.023438 172.71875 181.816406 172.15625 C 178.789062 171.824219 175.699219 172.582031 172.914062 173.847656 C 170.550781 174.917969 168.292969 176.390625 166.738281 178.476562 C 165.171875 180.546875 164.378906 183.296875 165.035156 185.808594 C 165.378906 187.164062 166.128906 188.375 166.660156 189.675781 C 167.570312 191.882812 167.84375 194.289062 168.238281 196.648438 C 169.308594 203.117188 171.242188 209.414062 173.476562 215.570312 C 176.183594 222.972656 178.9375 234.828125 187.566406 237.152344 C 196.367188 239.511719 205.71875 238.152344 214.566406 235.988281 C 217.699219 235.230469 220.703125 234.539062 223.929688 234.503906 C 225.507812 234.480469 225.207031 235.332031 226.359375 233.375 C 227.050781 232.214844 227.398438 230.878906 228.078125 229.703125 C 229.207031 227.738281 230.128906 225.664062 231.105469 223.628906 C 231.726562 222.351562 234.6875 216.859375 233.800781 215.5 C 232.9375 214.179688 228.550781 216.480469 227.476562 216.8125 C 222.433594 218.402344 217.203125 219.390625 211.949219 220.003906 C 209.648438 220.277344 206.753906 220.957031 204.441406 220.578125 L 204.003906 220.472656 "/>
<path style=" stroke:none;fill-rule:nonzero;fill:rgb(20.779419%,12.548828%,9.408569%);fill-opacity:1;" d="M 227.269531 173.179688 C 225.703125 174.746094 222.996094 174.871094 220.957031 173.835938 C 221.28125 175.253906 221.960938 176.644531 222.730469 177.886719 C 223.398438 178.96875 224.160156 180.007812 225.117188 180.824219 C 225.785156 181.410156 226.578125 181.859375 227.421875 182.125 C 227.375 181.097656 227.339844 180.0625 227.328125 179.039062 C 227.292969 177.1875 227.269531 175.207031 227.269531 173.179688 M 295.839844 134.21875 C 293.433594 138.410156 289.761719 141.390625 286.441406 144.601562 C 286.84375 147.527344 286.1875 150.921875 285.324219 152.914062 C 284.023438 155.9375 281.652344 158.4375 278.78125 160.046875 C 278.898438 159.105469 279 158.160156 279.09375 157.21875 C 279.1875 155.042969 279.3125 152.773438 279.164062 150.585938 L 279.140625 150.402344 C 279.128906 150.125 279.082031 149.875 279.058594 149.609375 C 279.011719 149.261719 278.964844 148.917969 278.910156 148.574219 C 278.644531 146.996094 278.171875 145.511719 277.34375 144.175781 C 275.199219 140.746094 273.839844 141.402344 270.441406 141.472656 C 260.894531 141.65625 251.746094 142.621094 243.28125 138.203125 C 242.488281 137.800781 241.65625 137.339844 240.757812 137.386719 C 239.167969 137.464844 238.074219 139.148438 237.949219 140.734375 C 237.820312 142.324219 238.375 143.867188 238.6875 145.429688 C 239.605469 150.148438 238.167969 155.273438 234.929688 158.828125 C 233.238281 160.679688 230.96875 162.351562 230.65625 164.835938 C 230.566406 165.5625 230.644531 166.34375 230.324219 167 C 230.011719 167.667969 229.042969 168.09375 228.539062 167.5625 C 228.203125 167.207031 228.261719 166.644531 228.332031 166.160156 C 228.789062 162.949219 228.113281 159.703125 226.050781 157.195312 C 223.734375 154.398438 218.941406 153.71875 216.121094 155.996094 C 215.0625 151.898438 214.75 147.546875 215.347656 143.359375 C 215.761719 140.414062 217.203125 137.316406 219.621094 135.507812 C 221.292969 134.253906 222.640625 134.382812 224.195312 134.496094 C 224.933594 134.554688 225.703125 134.613281 226.589844 134.53125 C 227.132812 127.328125 229.4375 121.15625 236.347656 117.703125 C 242.578125 114.574219 249.984375 114.699219 256.816406 116.128906 C 258.796875 116.542969 260.765625 117.058594 262.703125 117.625 C 267.460938 119.003906 272.125 120.683594 276.929688 121.917969 C 283.679688 123.65625 290.957031 124.449219 297.558594 122.203125 C 298.535156 126.234375 297.914062 130.628906 295.839844 134.21875 "/>
<path style=" stroke:none;fill-rule:nonzero;fill:rgb(82.749939%,83.139038%,82.749939%);fill-opacity:1;" d="M 239.804688 213.015625 C 242.222656 212.726562 243.535156 215.339844 245.101562 216.722656 C 248.039062 219.324219 252.875 218.171875 255.722656 215.480469 C 256.136719 215.085938 256.5625 214.648438 257.105469 214.476562 C 261.710938 213.109375 262.21875 220.046875 262.101562 222.996094 C 261.863281 229.09375 260.351562 235.207031 257.289062 240.511719 C 255.722656 243.242188 248.800781 253.460938 245.066406 249.179688 C 240.632812 244.09375 236.035156 238.695312 234.675781 232.085938 C 234.007812 228.886719 233.421875 221.761719 235.21875 217.171875 C 236.09375 214.9375 237.535156 213.304688 239.804688 213.015625 "/>
<path style=" stroke:none;fill-rule:nonzero;fill:rgb(99.609375%,99.609375%,99.609375%);fill-opacity:1;" d="M 261.261719 216.421875 C 259.316406 222.476562 257.390625 228.496094 255.089844 234.414062 C 253.925781 231.824219 252.808594 229.199219 251.597656 226.632812 C 250.628906 224.582031 249.339844 222.660156 248.121094 220.75 C 247.3125 221.5 246.367188 222.535156 246.160156 222.753906 C 245.148438 223.824219 244.226562 224.984375 243.351562 226.171875 C 241.613281 228.578125 240.230469 230.511719 239.550781 233.503906 C 238.386719 227.851562 237.222656 222.199219 236.058594 216.550781 C 235.96875 216.144531 235.898438 215.71875 236.070312 215.351562 L 236.589844 214.765625 C 237.511719 213.960938 238.445312 213.152344 239.410156 212.40625 C 239.804688 212.09375 241.21875 211.175781 242.335938 210.289062 C 242.152344 213.175781 243.683594 214.996094 245.585938 217.101562 C 246.390625 217.988281 247.199219 218.757812 248.164062 219.359375 L 248.789062 219.679688 C 252.347656 218.515625 255.320312 214.867188 255.699219 211.207031 L 256.503906 211.773438 C 258.277344 213.121094 259.949219 214.648438 261.261719 216.421875 "/>
<path style=" stroke:none;fill-rule:nonzero;fill:rgb(92.158508%,92.158508%,91.758728%);fill-opacity:1;" d="M 328.910156 434.933594 C 328.210938 434.175781 327.53125 433.390625 326.875 432.597656 C 327.621094 433.324219 328.84375 434.449219 328.910156 434.933594 M 320.929688 424.726562 C 320.132812 423.585938 319.375 422.457031 318.625 421.363281 C 318.347656 420.960938 318.074219 420.546875 317.75 420.179688 C 318.578125 420.859375 319.167969 421.859375 319.730469 422.792969 C 320.125 423.449219 320.527344 424.09375 320.929688 424.726562 "/>
<path style=" stroke:none;fill-rule:nonzero;fill:rgb(12.159729%,10.5896%,10.198975%);fill-opacity:1;" d="M 326.839844 435.578125 C 325.789062 435.578125 324.660156 435.453125 324.28125 435.417969 C 321.746094 435.164062 319.28125 434.3125 317.140625 432.941406 C 315.445312 431.847656 313.960938 430.457031 312.578125 428.996094 C 310.6875 427.027344 308.914062 424.886719 307.820312 422.386719 C 307.453125 421.523438 307.199219 420.410156 307.867188 419.753906 C 308.328125 419.304688 309.03125 419.257812 309.664062 419.246094 C 310.320312 419.234375 310.976562 419.222656 311.632812 419.222656 C 312.601562 419.222656 313.558594 419.234375 314.523438 419.269531 C 315.308594 419.292969 316.125 419.328125 316.851562 419.636719 C 317.1875 419.777344 317.472656 419.960938 317.75 420.179688 C 318.074219 420.546875 318.347656 420.960938 318.625 421.363281 C 319.375 422.457031 320.132812 423.585938 320.929688 424.726562 C 321.910156 426.253906 322.945312 427.742188 324.039062 429.179688 C 324.777344 430.167969 325.546875 431.136719 326.355469 432.078125 C 326.445312 432.195312 326.644531 432.378906 326.875 432.597656 C 327.53125 433.390625 328.210938 434.175781 328.910156 434.933594 C 328.910156 434.945312 328.910156 434.957031 328.910156 434.980469 C 328.902344 435.453125 327.910156 435.578125 326.839844 435.578125 "/>
<path style=" stroke:none;fill-rule:nonzero;fill:rgb(92.158508%,92.158508%,91.758728%);fill-opacity:1;" d="M 151.1875 433.460938 C 151.257812 432.976562 152.46875 431.847656 153.226562 431.125 C 152.558594 431.917969 151.878906 432.699219 151.1875 433.460938 M 159.125 423.230469 C 159.539062 422.59375 159.933594 421.941406 160.324219 421.296875 C 160.875 420.351562 161.464844 419.351562 162.292969 418.671875 C 161.96875 419.039062 161.695312 419.453125 161.417969 419.855469 C 160.679688 420.949219 159.921875 422.089844 159.125 423.230469 "/>
<path style=" stroke:none;fill-rule:nonzero;fill:rgb(12.159729%,10.5896%,10.198975%);fill-opacity:1;" d="M 153.214844 434.09375 C 152.15625 434.09375 151.199219 433.96875 151.1875 433.507812 C 151.1875 433.484375 151.1875 433.472656 151.1875 433.460938 C 151.878906 432.699219 152.558594 431.917969 153.226562 431.125 C 153.457031 430.894531 153.644531 430.710938 153.746094 430.59375 C 154.53125 429.652344 155.300781 428.671875 156.039062 427.695312 C 157.132812 426.246094 158.15625 424.757812 159.125 423.230469 C 159.921875 422.089844 160.679688 420.949219 161.417969 419.855469 C 161.695312 419.453125 161.96875 419.039062 162.292969 418.671875 C 162.570312 418.441406 162.859375 418.257812 163.191406 418.117188 C 163.917969 417.808594 164.722656 417.761719 165.519531 417.738281 C 166.613281 417.703125 167.707031 417.691406 168.8125 417.691406 C 169.332031 417.691406 169.847656 417.691406 170.378906 417.703125 C 171.011719 417.714844 171.714844 417.75 172.175781 418.199219 C 172.84375 418.855469 172.601562 419.972656 172.234375 420.835938 C 171.152344 423.34375 169.378906 425.484375 167.5 427.464844 C 166.117188 428.925781 164.644531 430.332031 162.949219 431.421875 C 160.820312 432.804688 158.355469 433.65625 155.820312 433.933594 C 155.441406 433.96875 154.277344 434.09375 153.214844 434.09375 "/>
<path style=" stroke:none;fill-rule:nonzero;fill:rgb(12.939453%,11.369324%,11.369324%);fill-opacity:1;" d="M 263.613281 168.785156 C 265.007812 171.039062 267.953125 171.730469 270.199219 170.339844 C 272.445312 168.945312 273.148438 166 271.757812 163.742188 C 270.363281 161.5 267.402344 160.808594 265.15625 162.199219 C 262.910156 163.59375 262.21875 166.539062 263.613281 168.785156 M 243.695312 158.644531 C 246.207031 157.527344 249.15625 158.65625 250.273438 161.164062 C 251.402344 163.671875 250.273438 166.621094 247.75 167.75 C 245.238281 168.863281 242.289062 167.738281 241.171875 165.226562 C 240.042969 162.71875 241.171875 159.773438 243.695312 158.644531 "/>
<path style=" stroke:none;fill-rule:nonzero;fill:rgb(100%,100%,100%);fill-opacity:1;" d="M 270.328125 168.773438 C 270.617188 168.589844 270.707031 168.207031 270.523438 167.921875 C 270.339844 167.621094 269.960938 167.53125 269.671875 167.714844 C 269.371094 167.898438 269.28125 168.277344 269.464844 168.578125 C 269.648438 168.863281 270.027344 168.957031 270.328125 168.773438 M 263.957031 165.847656 C 264.1875 166.230469 264.683594 166.34375 265.0625 166.113281 C 265.433594 165.882812 265.546875 165.390625 265.316406 165.007812 C 265.085938 164.640625 264.589844 164.527344 264.222656 164.753906 C 263.84375 164.984375 263.726562 165.480469 263.957031 165.847656 M 248.097656 166.148438 C 248.429688 166 248.570312 165.617188 248.429688 165.296875 C 248.28125 164.960938 247.902344 164.824219 247.566406 164.960938 C 247.242188 165.113281 247.09375 165.492188 247.242188 165.824219 C 247.382812 166.148438 247.773438 166.296875 248.097656 166.148438 M 242.371094 161.152344 C 242.785156 160.96875 243.28125 161.152344 243.464844 161.566406 C 243.648438 161.992188 243.464844 162.476562 243.039062 162.671875 C 242.625 162.855469 242.128906 162.660156 241.945312 162.246094 C 241.761719 161.832031 241.945312 161.335938 242.371094 161.152344 "/>
<path style=" stroke:none;fill-rule:nonzero;fill:rgb(22.749329%,21.179199%,21.958923%);fill-opacity:1;" d="M 270.617188 167.367188 C 270.386719 167.367188 270.167969 167.367188 269.9375 167.34375 L 269.730469 167.300781 L 269.589844 167.136719 C 269.027344 166.296875 268.679688 165.792969 267.621094 165.617188 C 267.515625 165.605469 267.402344 165.597656 267.285156 165.597656 C 266.59375 165.597656 265.90625 165.871094 265.398438 166.34375 L 265.015625 166.667969 L 264.578125 166.839844 C 264.097656 166.976562 263.589844 167.125 263.082031 167.160156 C 262.886719 165.617188 263.484375 164.007812 264.636719 162.972656 C 265.464844 162.222656 266.664062 161.773438 267.816406 161.773438 C 268.496094 161.773438 269.164062 161.9375 269.75 162.257812 C 270.867188 162.878906 271.734375 163.960938 272.113281 165.179688 C 272.25 165.640625 272.320312 166.113281 272.320312 166.585938 L 272.101562 167.183594 L 271.757812 167.300781 C 271.375 167.34375 270.996094 167.367188 270.617188 167.367188 M 264.636719 164.628906 C 264.5 164.628906 264.347656 164.675781 264.222656 164.753906 C 263.84375 164.984375 263.726562 165.480469 263.957031 165.847656 C 264.109375 166.089844 264.371094 166.230469 264.636719 166.230469 C 264.785156 166.230469 264.925781 166.195312 265.0625 166.113281 C 265.433594 165.882812 265.546875 165.390625 265.316406 165.007812 C 265.167969 164.765625 264.902344 164.628906 264.636719 164.628906 M 249.777344 164.824219 C 249.144531 164.824219 248.511719 164.753906 247.902344 164.628906 L 247.691406 164.546875 L 247.566406 164.363281 C 247.105469 163.421875 246.816406 162.84375 245.757812 162.523438 C 245.515625 162.453125 245.273438 162.429688 245.03125 162.429688 C 244.433594 162.429688 243.835938 162.613281 243.351562 162.960938 L 242.925781 163.238281 L 242.441406 163.351562 C 242.015625 163.410156 241.578125 163.476562 241.140625 163.476562 C 241.046875 163.476562 240.953125 163.476562 240.863281 163.464844 C 240.875 161.855469 241.714844 160.277344 243.050781 159.371094 C 243.835938 158.828125 244.835938 158.539062 245.828125 158.539062 C 246.773438 158.539062 247.691406 158.804688 248.429688 159.347656 C 249.488281 160.152344 250.226562 161.382812 250.445312 162.695312 C 250.527344 163.191406 250.539062 163.683594 250.46875 164.167969 L 250.160156 164.753906 L 249.777344 164.824219 M 242.707031 161.085938 C 242.589844 161.085938 242.476562 161.105469 242.371094 161.152344 C 241.945312 161.335938 241.761719 161.832031 241.945312 162.246094 C 242.082031 162.558594 242.382812 162.742188 242.707031 162.742188 C 242.820312 162.742188 242.9375 162.71875 243.039062 162.671875 C 243.464844 162.476562 243.648438 161.992188 243.464844 161.566406 C 243.328125 161.257812 243.015625 161.085938 242.707031 161.085938 "/>
<path style=" stroke:none;fill-rule:nonzero;fill:rgb(99.21875%,99.21875%,99.609375%);fill-opacity:1;" d="M 264.636719 166.230469 C 264.371094 166.230469 264.109375 166.089844 263.957031 165.847656 C 263.726562 165.480469 263.84375 164.984375 264.222656 164.753906 C 264.347656 164.675781 264.5 164.628906 264.636719 164.628906 C 264.902344 164.628906 265.167969 164.765625 265.316406 165.007812 C 265.546875 165.390625 265.433594 165.882812 265.0625 166.113281 C 264.925781 166.195312 264.785156 166.230469 264.636719 166.230469 M 242.707031 162.742188 C 242.382812 162.742188 242.082031 162.558594 241.945312 162.246094 C 241.761719 161.832031 241.945312 161.335938 242.371094 161.152344 C 242.476562 161.105469 242.589844 161.085938 242.707031 161.085938 C 243.015625 161.085938 243.328125 161.257812 243.464844 161.566406 C 243.648438 161.992188 243.464844 162.476562 243.039062 162.671875 C 242.9375 162.71875 242.820312 162.742188 242.707031 162.742188 "/>
<path style=" stroke:none;fill-rule:nonzero;fill:rgb(6.269836%,5.879211%,5.099487%);fill-opacity:1;" d="M 265.582031 167.5625 C 266.296875 168.726562 267.816406 169.082031 268.980469 168.359375 C 270.132812 167.644531 270.488281 166.125 269.773438 164.972656 C 269.0625 163.8125 267.539062 163.457031 266.375 164.167969 C 265.226562 164.894531 264.867188 166.414062 265.582031 167.5625 Z M 244.675781 160.855469 C 245.976562 160.277344 247.484375 160.855469 248.0625 162.15625 C 248.648438 163.445312 248.0625 164.960938 246.773438 165.539062 C 245.480469 166.113281 243.960938 165.539062 243.386719 164.238281 C 242.796875 162.949219 243.386719 161.429688 244.675781 160.855469 "/>
</g>
</svg>
