<?xml version="1.0" encoding="UTF-8"?>
<svg xmlns="http://www.w3.org/2000/svg" xmlns:xlink="http://www.w3.org/1999/xlink" width="708.75pt" height="567.000005pt" viewBox="0 0 708.75 567.000005" version="1.2">
<defs>
<clipPath id="clip1">
  <path d="M 194.480469 225 L 464.851562 225 L 464.851562 279 L 194.480469 279 Z M 194.480469 225 "/>
</clipPath>
</defs>
<g id="surface1">
<path style=" stroke:none;fill-rule:nonzero;fill:rgb(97.24884%,64.309692%,26.669312%);fill-opacity:1;" d="M 411.023438 244.1875 C 409.433594 248.390625 410.226562 253.066406 411.054688 257.484375 C 412.921875 256.855469 415.253906 256.894531 417.203125 256.730469 C 419.3125 256.554688 421.425781 256.429688 423.53125 256.339844 C 425.289062 256.277344 427.042969 256.234375 428.796875 256.316406 C 430.542969 256.390625 432.285156 256.597656 434.019531 256.792969 C 436.199219 257.03125 438.375 257.257812 440.554688 257.464844 C 442.496094 257.648438 444.578125 258.125 446.488281 257.804688 C 450.203125 257.195312 453.777344 255.761719 456.863281 253.601562 C 457.078125 253.449219 457.328125 253.261719 457.367188 252.992188 C 457.410156 252.746094 457.277344 252.496094 457.140625 252.28125 C 455.34375 249.328125 453.550781 246.367188 451.753906 243.402344 C 449.925781 240.386719 446.632812 241.234375 443.546875 240.6875 C 441.894531 240.398438 440.8125 238.953125 441.328125 237.261719 C 441.6875 236.050781 442.515625 235.0625 443.226562 234.027344 C 443.929688 232.996094 444.546875 231.789062 444.394531 230.539062 C 444.34375 230.15625 444.136719 229.703125 443.742188 229.691406 C 443.476562 229.683594 443.246094 229.910156 443.0625 230.105469 C 442.402344 230.796875 441.679688 231.417969 440.894531 231.953125 C 439.984375 232.574219 439.015625 233.101562 438.136719 233.75 C 437.363281 234.328125 436.671875 235.019531 435.992188 235.703125 C 434.359375 237.351562 432.761719 239.046875 431.203125 240.769531 C 430.386719 241.667969 429.5625 242.597656 428.476562 243.144531 C 427.539062 243.621094 426.472656 243.785156 425.433594 243.910156 C 424.882812 243.96875 424.347656 244.03125 423.800781 244.085938 C 421.230469 244.3125 418.679688 244.257812 416.140625 244.207031 C 414.4375 244.175781 412.734375 244.144531 411.023438 244.1875 M 248.570312 245.023438 C 250.171875 249.214844 249.375 253.890625 248.550781 258.308594 C 246.679688 257.691406 244.347656 257.722656 242.398438 257.554688 C 240.292969 257.378906 238.175781 257.257812 236.058594 257.175781 C 234.316406 257.101562 232.5625 257.0625 230.804688 257.144531 C 229.0625 257.226562 227.316406 257.421875 225.574219 257.617188 C 223.40625 257.855469 221.226562 258.082031 219.050781 258.289062 C 217.109375 258.476562 215.023438 258.949219 213.101562 258.628906 C 209.398438 258.03125 205.828125 256.585938 202.738281 254.4375 C 202.511719 254.273438 202.273438 254.085938 202.222656 253.820312 C 202.183594 253.570312 202.316406 253.324219 202.449219 253.117188 C 204.246094 250.15625 206.042969 247.191406 207.839844 244.230469 C 209.667969 241.214844 212.957031 242.0625 216.054688 241.511719 C 217.695312 241.222656 218.78125 239.777344 218.273438 238.085938 C 217.914062 236.890625 217.078125 235.886719 216.375 234.855469 C 215.671875 233.824219 215.042969 232.613281 215.210938 231.367188 C 215.25 230.984375 215.46875 230.53125 215.847656 230.519531 C 216.128906 230.507812 216.34375 230.734375 216.53125 230.933594 C 217.191406 231.625 217.925781 232.242188 218.707031 232.78125 C 219.605469 233.410156 220.585938 233.925781 221.464844 234.585938 C 222.238281 235.164062 222.929688 235.847656 223.601562 236.527344 C 225.242188 238.179688 226.832031 239.871094 228.402344 241.597656 C 229.214844 242.496094 230.042969 243.421875 231.117188 243.96875 C 232.054688 244.445312 233.117188 244.609375 234.171875 244.734375 C 234.707031 244.796875 235.253906 244.859375 235.800781 244.910156 C 238.371094 245.136719 240.910156 245.085938 243.460938 245.035156 C 245.152344 245.003906 246.855469 244.972656 248.570312 245.023438 "/>
<path style=" stroke:none;fill-rule:nonzero;fill:rgb(6.269836%,5.879211%,5.099487%);fill-opacity:1;" d="M 317.5625 457.355469 L 313.632812 462.839844 L 317.699219 463.769531 Z M 352.101562 455.601562 L 356.964844 462.941406 L 352.132812 463.769531 L 352.101562 455.601562 "/>
<path style=" stroke:none;fill-rule:nonzero;fill:rgb(77.648926%,76.078796%,75.689697%);fill-opacity:1;" d="M 325.265625 446.25 C 323.839844 445.371094 320.566406 446.269531 319.164062 446.816406 C 318.121094 447.21875 317.128906 447.789062 316.410156 448.632812 C 316.210938 448.859375 316.027344 449.148438 316.097656 449.449219 C 316.148438 449.71875 316.398438 449.894531 316.625 450.046875 C 319.183594 451.710938 322.445312 452.246094 325.410156 451.503906 L 325.636719 451.378906 L 325.667969 451.171875 C 325.65625 449.976562 326.246094 446.847656 325.265625 446.25 M 343.824219 447.878906 C 344.050781 447.601562 345 447.683594 345.785156 447.765625 C 346.199219 447.816406 346.558594 447.859375 346.746094 447.847656 C 348.996094 447.734375 351.285156 447.878906 353.371094 448.714844 C 352.742188 450.328125 351.082031 451.347656 349.378906 451.648438 C 347.675781 451.9375 345.929688 451.597656 344.269531 451.140625 L 343.824219 447.878906 "/>
<path style=" stroke:none;fill-rule:nonzero;fill:rgb(20.779419%,12.548828%,9.408569%);fill-opacity:1;" d="M 305.40625 300.242188 C 305.582031 297.179688 306.332031 294.503906 309.296875 292.996094 C 311.03125 292.121094 312.992188 291.832031 314.921875 291.625 C 324.273438 290.589844 333.730469 290.972656 343.121094 291.398438 C 347.273438 291.582031 351.523438 290.765625 352.792969 295.515625 C 357.6875 313.820312 355.570312 334.074219 354.753906 352.789062 C 353.917969 371.941406 353.671875 391.152344 355.085938 410.28125 C 355.808594 420.070312 356.953125 429.824219 358.65625 439.488281 C 358.988281 441.375 361.878906 448.386719 358.246094 448.769531 C 353.1875 449.304688 348.046875 449.191406 343.019531 448.417969 C 341.8125 440.539062 342.8125 431.972656 342.90625 424.023438 C 343.007812 415.621094 343.082031 407.214844 343.039062 398.8125 C 342.9375 382.007812 342.335938 365.1875 340.40625 348.484375 C 339.941406 344.449219 338.332031 328.105469 331.707031 330.046875 C 330.003906 330.542969 328.765625 332.007812 327.886719 333.546875 C 325.460938 337.800781 325.367188 343.5 324.996094 348.289062 C 323.820312 363.351562 322.632812 378.785156 323.222656 393.898438 C 323.601562 403.34375 324.417969 412.78125 325.296875 422.195312 C 325.296875 430.765625 326.949219 439.601562 327.535156 448.167969 C 322.023438 450.585938 313.714844 449.089844 308.058594 447.953125 C 307.480469 443.078125 308.882812 437.207031 309.246094 432.292969 C 309.679688 426.367188 310.082031 420.429688 310.402344 414.492188 C 311.039062 402.632812 311.371094 390.738281 311.019531 378.847656 C 310.636719 365.644531 309.566406 352.460938 308.128906 339.328125 C 307.160156 330.511719 305.910156 321.769531 305.4375 312.960938 C 305.207031 308.738281 305.15625 304.507812 305.40625 300.242188 "/>
<path style=" stroke:none;fill-rule:nonzero;fill:rgb(12.939453%,11.369324%,11.369324%);fill-opacity:1;" d="M 362.167969 448.078125 C 361.734375 447.425781 361.269531 446.746094 360.585938 446.371094 C 359.917969 446 359.121094 445.96875 358.359375 445.949219 C 357.273438 445.929688 356.191406 445.898438 355.105469 445.867188 C 354.054688 445.835938 352.792969 445.917969 352.246094 446.828125 C 351.761719 447.632812 352.113281 448.757812 351.605469 449.550781 C 351.234375 450.152344 350.480469 450.398438 349.789062 450.535156 C 347.808594 450.9375 345.742188 450.84375 343.804688 450.296875 C 343.84375 452.246094 343.894531 454.207031 343.9375 456.171875 C 343.957031 457.234375 344.011719 458.359375 344.609375 459.226562 C 345.023438 459.835938 345.652344 460.246094 346.28125 460.621094 C 348.167969 461.785156 350.121094 462.828125 352.132812 463.769531 C 352.402344 462.269531 352.671875 460.773438 352.949219 459.289062 C 352.679688 460.753906 355.085938 466.050781 355.941406 467.320312 C 357.636719 469.816406 360.753906 470.683594 363.527344 471.367188 C 370.433594 473.039062 377.753906 474.433594 384.578125 472.429688 C 385.445312 472.171875 386.414062 471.75 386.640625 470.871094 C 387.023438 469.363281 385.019531 468.484375 383.511719 468.082031 C 383.277344 468.011719 383.027344 467.9375 382.789062 467.867188 C 373.695312 465.015625 367.214844 455.632812 362.167969 448.078125 M 307.65625 448.078125 C 308.089844 447.425781 308.554688 446.746094 309.246094 446.371094 C 309.90625 446 310.710938 445.96875 311.472656 445.949219 C 312.546875 445.929688 313.640625 445.898438 314.726562 445.867188 C 315.777344 445.835938 317.039062 445.917969 317.574219 446.828125 C 318.058594 447.632812 317.71875 448.757812 318.214844 449.550781 C 318.597656 450.152344 319.339844 450.398438 320.03125 450.535156 C 322.011719 450.9375 324.089844 450.84375 326.027344 450.296875 C 325.976562 452.246094 325.9375 454.207031 325.882812 456.171875 C 325.863281 457.234375 325.820312 458.359375 325.222656 459.226562 C 324.8125 459.835938 324.171875 460.246094 323.550781 460.621094 C 321.664062 461.785156 319.699219 462.828125 317.699219 463.769531 C 317.417969 462.269531 317.152344 460.773438 316.882812 459.289062 C 317.140625 460.753906 314.746094 466.050781 313.878906 467.320312 C 312.1875 469.816406 309.078125 470.683594 306.304688 471.367188 C 299.386719 473.039062 292.070312 474.433594 285.246094 472.429688 C 284.378906 472.171875 283.417969 471.75 283.191406 470.871094 C 282.800781 469.363281 284.800781 468.484375 286.308594 468.082031 C 286.554688 468.011719 286.792969 467.9375 287.042969 467.867188 C 296.136719 465.015625 302.609375 455.632812 307.65625 448.078125 "/>
<path style=" stroke:none;fill-rule:nonzero;fill:rgb(92.158508%,92.158508%,91.758728%);fill-opacity:1;" d="M 299.664062 458.855469 C 299.71875 458.792969 299.769531 458.730469 299.832031 458.667969 C 299.777344 458.730469 299.726562 458.792969 299.664062 458.855469 M 306.910156 449.191406 C 307.167969 448.746094 307.449219 448.304688 307.769531 447.910156 C 307.726562 447.960938 307.695312 448.023438 307.65625 448.078125 C 307.417969 448.449219 307.160156 448.820312 306.910156 449.191406 "/>
<path style=" stroke:none;fill-rule:nonzero;fill:rgb(12.159729%,10.5896%,10.198975%);fill-opacity:1;" d="M 300.914062 460 C 300.058594 460 299.285156 459.898438 299.273438 459.515625 C 299.273438 459.371094 299.4375 459.132812 299.664062 458.855469 C 299.726562 458.792969 299.777344 458.730469 299.832031 458.667969 C 300.367188 458.078125 301.152344 457.386719 301.367188 457.121094 C 302.019531 456.34375 302.648438 455.539062 303.257812 454.726562 C 304.515625 453.03125 305.683594 451.265625 306.757812 449.449219 C 306.808594 449.367188 306.859375 449.273438 306.910156 449.191406 C 307.160156 448.820312 307.417969 448.449219 307.65625 448.078125 C 307.695312 448.023438 307.726562 447.960938 307.769531 447.910156 C 308.140625 447.457031 308.574219 447.066406 309.109375 446.835938 C 309.710938 446.578125 310.371094 446.546875 311.019531 446.515625 C 311.992188 446.488281 312.960938 446.476562 313.941406 446.476562 C 314.292969 446.476562 314.652344 446.476562 315.015625 446.476562 C 315.53125 446.488281 316.121094 446.515625 316.492188 446.890625 C 317.039062 447.425781 316.84375 448.34375 316.542969 449.058594 C 315.65625 451.113281 314.210938 452.886719 312.671875 454.519531 C 311.535156 455.714844 310.328125 456.871094 308.945312 457.78125 C 307.191406 458.925781 305.167969 459.628906 303.09375 459.855469 C 302.773438 459.886719 301.792969 460 300.914062 460 M 366.894531 458.71875 C 366.5625 458.71875 366.273438 458.699219 366.109375 458.699219 C 364.046875 458.617188 362.042969 457.851562 360.296875 456.777344 C 358.246094 455.519531 356.5 453.816406 354.839844 452.070312 C 354.261719 451.472656 353.25 450.367188 352.753906 449.273438 C 352.433594 448.582031 352.257812 447.558594 352.898438 446.992188 C 353.257812 446.671875 353.753906 446.539062 354.238281 446.433594 C 355.15625 446.238281 356.28125 446.082031 357.40625 446.082031 C 358.554688 446.082031 359.679688 446.25 360.554688 446.703125 C 362.0625 447.476562 362.835938 449.335938 363.613281 450.738281 C 364.683594 452.691406 366.007812 454.527344 367.511719 456.171875 C 368.03125 456.71875 369.175781 457.75 368.597656 458.378906 C 368.328125 458.667969 367.535156 458.71875 366.894531 458.71875 "/>
<path style=" stroke:none;fill-rule:nonzero;fill:rgb(36.079407%,37.649536%,17.649841%);fill-opacity:1;" d="M 306.796875 318.300781 C 305.148438 317.949219 303.421875 318.433594 301.855469 319.0625 C 298.136719 320.539062 294.761719 322.875 292.046875 325.824219 C 291.933594 325.433594 290.851562 321.851562 289.828125 319.054688 C 288.589844 319.601562 287.363281 320.1875 286.164062 320.808594 C 285.761719 319.539062 283.160156 306.769531 283.574219 306.6875 C 289.910156 305.417969 296.570312 305.820312 302.699219 307.832031 C 303.050781 307.957031 303.402344 308.078125 303.660156 308.335938 C 303.867188 308.542969 303.992188 308.824219 304.105469 309.089844 C 304.546875 310.113281 304.949219 311.125 305.320312 312.136719 C 306.085938 313.851562 306.476562 315.554688 306.695312 317.472656 L 306.757812 317.855469 L 306.746094 317.855469 L 306.796875 318.300781 "/>
<path style=" stroke:none;fill-rule:nonzero;fill:rgb(71.369934%,72.549438%,59.999084%);fill-opacity:1;" d="M 292.378906 324.699219 L 290.324219 318.796875 L 291.140625 318.515625 L 292.636719 323.480469 C 292.636719 323.480469 298.882812 317.371094 304.546875 317.144531 L 305.921875 317.546875 C 305.921875 317.546875 305.898438 317.546875 305.859375 317.546875 C 305.21875 317.546875 299.304688 317.730469 292.378906 324.699219 M 294.164062 320.652344 C 293.027344 320.652344 292.296875 319.074219 291.925781 318.195312 C 291.925781 318.195312 293.378906 317.484375 295.671875 317.082031 L 296 318.238281 C 296.074219 319.207031 295.421875 320.445312 294.378906 320.632812 C 294.308594 320.644531 294.234375 320.652344 294.164062 320.652344 M 286.671875 319.929688 L 284.359375 307.253906 C 285.886719 306.945312 287.363281 306.746094 288.777344 306.644531 C 288.703125 306.832031 288.640625 307.007812 288.570312 307.171875 C 286.265625 307.417969 285.058594 307.851562 285.058594 307.851562 L 287.226562 318.703125 C 289.394531 317.183594 291.5 316.203125 293.460938 315.585938 C 294.585938 315.441406 295.710938 315.378906 296.847656 315.378906 C 297.632812 315.378906 298.417969 315.410156 299.199219 315.472656 C 292.304688 315.699219 286.671875 319.929688 286.671875 319.929688 M 290.066406 314.519531 C 288.722656 314.519531 287.445312 313.335938 287.0625 311.640625 C 286.699219 310.0625 287.246094 308.535156 288.3125 307.863281 C 288.15625 308.316406 288.042969 308.636719 288 308.792969 C 289.34375 308.925781 290.683594 309.089844 292.027344 309.308594 C 291.636719 311.042969 291.085938 313.035156 290.695312 314.4375 C 290.65625 314.449219 290.613281 314.460938 290.570312 314.46875 C 290.40625 314.5 290.242188 314.519531 290.066406 314.519531 "/>
<path style=" stroke:none;fill-rule:nonzero;fill:rgb(41.569519%,37.249756%,31.369019%);fill-opacity:1;" d="M 309.277344 215.3125 C 309.246094 213.195312 309.222656 210.988281 310.152344 209.085938 C 311.515625 206.308594 315.015625 205.960938 317.617188 204.90625 C 320.710938 203.65625 324.027344 202.933594 327.351562 202.707031 C 333.820312 202.273438 340.460938 203.738281 346.023438 207.105469 C 346.753906 207.558594 347.5 208.054688 347.953125 208.777344 C 348.46875 209.582031 348.574219 210.574219 348.664062 211.523438 C 349.976562 225.59375 350.347656 239.738281 349.789062 253.851562 C 349.355469 264.628906 354.144531 274.238281 355.695312 284.675781 C 356.519531 290.28125 356.632812 296 356.003906 301.648438 C 355.910156 302.464844 355.777344 303.339844 355.242188 303.972656 C 354.765625 304.519531 354.054688 304.796875 353.363281 305.011719 C 349.335938 306.285156 345.050781 306.417969 340.832031 306.480469 C 334.429688 306.550781 328.03125 306.449219 321.640625 306.160156 C 320.558594 306.109375 319.289062 306.148438 317.945312 306.191406 C 312.898438 306.367188 306.707031 306.53125 304.464844 301.78125 C 303.050781 298.757812 304.332031 293.203125 304.539062 289.972656 C 304.835938 285.398438 305.3125 280.824219 306.210938 276.324219 C 306.683594 273.960938 307.261719 271.617188 307.601562 269.230469 C 307.863281 267.40625 307.984375 265.546875 308.097656 263.710938 C 308.304688 260.507812 308.480469 257.320312 308.636719 254.140625 C 309.253906 241.222656 309.480469 228.382812 309.277344 215.3125 "/>
<path style=" stroke:none;fill-rule:nonzero;fill:rgb(82.749939%,83.139038%,82.749939%);fill-opacity:1;" d="M 318.949219 202.957031 C 321.589844 202.46875 323.210938 205.238281 325.027344 206.652344 C 328.421875 209.292969 333.65625 207.695312 336.578125 204.546875 C 337.011719 204.082031 337.433594 203.566406 338.035156 203.347656 C 342.976562 201.511719 344.019531 209.097656 344.101562 212.339844 C 344.257812 219.039062 343.039062 225.863281 340.054688 231.902344 C 338.527344 235 331.652344 246.695312 327.265625 242.265625 C 322.054688 236.992188 316.636719 231.398438 314.675781 224.242188 C 313.722656 220.773438 312.578125 213 314.21875 207.839844 C 315.015625 205.320312 316.480469 203.429688 318.949219 202.957031 "/>
<path style=" stroke:none;fill-rule:nonzero;fill:rgb(93.728638%,57.249451%,22.749329%);fill-opacity:1;" d="M 321.714844 198.507812 C 321.972656 195.5 321.476562 192.878906 321.125 189.9375 C 320.363281 183.671875 327.515625 180.996094 332.738281 183.074219 C 333.851562 183.515625 334.9375 184.207031 335.503906 185.269531 C 336.019531 186.230469 336.050781 187.367188 336.070312 188.460938 C 336.144531 193.015625 336.226562 197.554688 336.300781 202.109375 C 336.332031 204.082031 336.332031 206.15625 335.339844 207.847656 C 334.367188 209.5 332.542969 210.542969 330.644531 210.820312 C 328.742188 211.109375 326.804688 210.707031 325.027344 209.984375 C 324.015625 209.582031 323.023438 209.046875 322.324219 208.21875 C 320.113281 205.597656 321.464844 201.53125 321.714844 198.507812 "/>
<path style=" stroke:none;fill-rule:nonzero;fill:rgb(97.24884%,64.309692%,26.669312%);fill-opacity:1;" d="M 371.332031 144.359375 C 371.382812 147.09375 370.539062 149.777344 369.433594 152.277344 C 368.234375 154.960938 366.605469 157.636719 364.015625 159.007812 C 361.671875 160.269531 358.398438 160.019531 356.675781 158.078125 C 356.53125 160.308594 356.355469 162.457031 356.191406 164.480469 C 355.457031 173.5625 353.722656 182.949219 346.003906 188.71875 C 342.296875 191.476562 337.910156 193.199219 333.441406 194.316406 C 328.050781 195.65625 322.355469 196.164062 316.976562 194.789062 C 312.257812 193.582031 307.140625 190.585938 304.804688 186.136719 C 302.390625 181.523438 302.039062 175.515625 301.90625 170.394531 C 301.730469 163.765625 302.441406 157.148438 302.007812 150.523438 C 301.378906 140.777344 299.398438 132.011719 303.328125 122.410156 L 303.617188 121.742188 C 310.265625 106.769531 333.347656 101.609375 345.691406 112.367188 C 354.0625 119.644531 356.601562 131.425781 357.015625 143.214844 C 357.667969 141.695312 358.429688 140.382812 359.246094 139.464844 C 361.144531 137.289062 364.304688 135.988281 367.007812 137.019531 C 369.824219 138.101562 371.28125 141.34375 371.332031 144.359375 "/>
<path style=" stroke:none;fill-rule:nonzero;fill:rgb(88.62915%,56.858826%,22.749329%);fill-opacity:1;" d="M 359.78125 155.765625 C 359.453125 155.765625 359.140625 155.671875 358.882812 155.457031 C 358.398438 155.054688 358.246094 154.382812 358.183594 153.753906 C 357.839844 150.449219 359.234375 144.71875 363.355469 144.71875 C 363.601562 144.71875 363.859375 144.742188 364.128906 144.78125 C 365.738281 145.039062 366.964844 146.402344 366.945312 148.074219 C 366.9375 149.261719 366.253906 150.273438 365.316406 150.945312 L 362.207031 151.976562 C 362.144531 152.980469 362.0625 154.03125 361.484375 154.859375 C 361.105469 155.394531 360.421875 155.765625 359.78125 155.765625 "/>
<path style=" stroke:none;fill-rule:nonzero;fill:rgb(96.078491%,96.469116%,96.078491%);fill-opacity:1;" d="M 342.945312 205.214844 C 341.234375 211.988281 339.324219 218.699219 337.207031 225.355469 C 335.753906 222.601562 334.347656 219.804688 332.839844 217.066406 C 331.644531 214.890625 330.09375 212.867188 328.609375 210.851562 C 327.773438 211.730469 326.824219 212.9375 326.605469 213.1875 C 325.574219 214.445312 324.644531 215.777344 323.769531 217.140625 C 322.023438 219.90625 320.652344 222.117188 320.125 225.449219 C 318.441406 219.328125 316.769531 213.207031 315.085938 207.09375 C 314.972656 206.660156 314.859375 206.195312 315.015625 205.785156 C 315.128906 205.515625 315.335938 205.308594 315.550781 205.101562 C 316.511719 204.152344 317.472656 203.203125 318.484375 202.304688 C 318.886719 201.945312 321.703125 200.105469 321.703125 199.714844 C 321.703125 202.902344 323.34375 204.855469 325.574219 207.023438 C 326.523438 207.953125 327.464844 208.738281 328.566406 209.324219 L 329.28125 209.644531 C 333.109375 208.117188 336.164062 203.945312 336.332031 199.898438 C 336.621094 200.066406 336.898438 200.242188 337.175781 200.414062 C 339.21875 201.769531 341.378906 203.359375 342.945312 205.214844 "/>
<path style=" stroke:none;fill-rule:nonzero;fill:rgb(34.509277%,30.198669%,26.669312%);fill-opacity:1;" d="M 422.179688 243.414062 C 421.003906 242.667969 418.90625 243.113281 417.578125 243.402344 C 417.320312 243.453125 417.03125 243.535156 416.886719 243.765625 L 416.8125 244.402344 C 417.203125 248.78125 416.886719 253.3125 417.523438 257.648438 L 417.628906 257.929688 L 417.925781 258.042969 C 421.273438 258.578125 423.988281 258.476562 424.335938 254.59375 C 424.523438 252.519531 424.710938 250.421875 424.398438 248.359375 C 424.265625 247.5 423.996094 246.222656 423.511719 245.15625 C 423.171875 244.414062 422.738281 243.765625 422.179688 243.414062 Z M 234.769531 243.621094 C 235.957031 242.875 238.042969 243.320312 239.375 243.597656 C 239.632812 243.660156 239.921875 243.742188 240.066406 243.96875 L 240.136719 244.601562 C 239.753906 248.988281 240.066406 253.519531 239.425781 257.855469 L 239.320312 258.132812 L 239.023438 258.246094 C 235.679688 258.785156 232.964844 258.679688 232.613281 254.800781 C 232.425781 252.726562 232.242188 250.628906 232.550781 248.566406 C 232.683594 247.707031 232.953125 246.4375 233.4375 245.363281 C 233.777344 244.621094 234.210938 243.96875 234.769531 243.621094 "/>
<path style=" stroke:none;fill-rule:nonzero;fill:rgb(41.569519%,37.249756%,31.369019%);fill-opacity:1;" d="M 360.0625 225.976562 C 357.046875 220.660156 351.007812 205.671875 343.164062 206.1875 C 347.363281 205.898438 342.191406 234.316406 341.84375 236.167969 C 341.65625 237.148438 341.46875 238.210938 341.84375 239.140625 C 342.429688 240.585938 344.09375 241.195312 345.496094 241.886719 C 349.71875 243.941406 352.671875 247.863281 356.085938 251.082031 C 363.003906 257.597656 372.148438 261.4375 381.519531 263.027344 C 390.894531 264.617188 400.503906 264.070312 409.90625 262.667969 C 413.035156 262.203125 416.523438 261.386719 418.144531 258.671875 C 419.25 256.824219 419.1875 254.53125 419.09375 252.375 C 418.96875 249.546875 418.992188 245.261719 416.96875 242.988281 C 414.984375 240.78125 411.363281 240.925781 408.585938 241.050781 C 401.742188 241.347656 394.910156 241.648438 388.074219 241.945312 C 383.617188 242.144531 379.023438 242.320312 374.8125 240.8125 C 372.085938 239.832031 369.710938 238.21875 367.628906 236.238281 C 364.582031 233.347656 362.144531 229.652344 360.0625 225.976562 Z M 296.890625 226.183594 C 299.902344 220.867188 305.941406 205.875 313.785156 206.394531 C 309.585938 206.105469 314.757812 234.523438 315.109375 236.371094 C 315.304688 237.363281 315.480469 238.417969 315.109375 239.34375 C 314.519531 240.789062 312.859375 241.398438 311.453125 242.089844 C 307.230469 244.144531 304.28125 248.070312 300.863281 251.289062 C 293.945312 257.804688 284.800781 261.644531 275.429688 263.234375 C 266.066406 264.824219 256.445312 264.277344 247.042969 262.871094 C 243.925781 262.410156 240.425781 261.59375 238.804688 258.878906 C 237.703125 257.03125 237.761719 254.738281 237.855469 252.582031 C 237.980469 249.75 237.960938 245.46875 239.984375 243.195312 C 241.964844 240.988281 245.585938 241.132812 248.363281 241.253906 C 255.207031 241.554688 262.042969 241.855469 268.875 242.152344 C 273.332031 242.351562 277.925781 242.523438 282.136719 241.019531 C 284.863281 240.046875 287.238281 238.425781 289.324219 236.445312 C 292.367188 233.554688 294.804688 229.859375 296.890625 226.183594 "/>
<path style=" stroke:none;fill-rule:nonzero;fill:rgb(100%,100%,100%);fill-opacity:1;" d="M 308.976562 137.289062 C 307.015625 137.609375 305.125 138.742188 304.175781 140.5 C 303.433594 141.882812 303.300781 143.503906 303.328125 145.070312 C 303.390625 148.054688 303.96875 151.039062 305.042969 153.824219 C 305.527344 155.105469 306.128906 156.355469 306.933594 157.460938 C 307.304688 157.964844 307.726562 158.449219 308.285156 158.730469 C 308.707031 158.945312 309.191406 159.027344 309.65625 159.113281 C 311.402344 159.402344 313.1875 159.617188 314.921875 159.265625 C 315.398438 159.171875 315.871094 159.027344 316.265625 158.738281 C 316.945312 158.234375 317.253906 157.378906 317.480469 156.570312 C 318.730469 152.296875 318.976562 147.746094 318.214844 143.367188 C 318.027344 142.261719 317.761719 141.160156 317.191406 140.1875 C 315.714844 137.710938 311.628906 136.863281 308.976562 137.289062 M 337.445312 134.820312 C 339.5 135.078125 341.492188 136.203125 342.535156 138.011719 C 343.347656 139.414062 343.535156 141.105469 343.546875 142.726562 C 343.578125 145.847656 343.058594 148.953125 342.039062 151.894531 C 341.5625 153.238281 340.984375 154.558594 340.179688 155.726562 C 339.808594 156.273438 339.375 156.789062 338.808594 157.097656 C 338.375 157.335938 337.878906 157.4375 337.394531 157.53125 C 335.585938 157.882812 333.730469 158.171875 331.921875 157.851562 C 331.425781 157.769531 330.921875 157.636719 330.507812 157.347656 C 329.785156 156.839844 329.445312 155.960938 329.167969 155.125 C 327.753906 150.71875 327.351562 145.992188 328.011719 141.40625 C 328.175781 140.261719 328.414062 139.09375 328.980469 138.082031 C 330.445312 135.449219 334.667969 134.449219 337.445312 134.820312 "/>
<path style=" stroke:none;fill-rule:nonzero;fill:rgb(93.728638%,57.249451%,22.749329%);fill-opacity:1;" d="M 327.722656 141.242188 C 328.011719 141.675781 328.609375 141.242188 329.34375 140.808594 C 331.457031 139.558594 334.535156 138.648438 336.992188 139.113281 C 339.519531 139.601562 341.925781 141.097656 343.585938 143.015625 L 344.320312 143.285156 L 344.445312 143.058594 C 345.714844 139.371094 344.246094 135.617188 340.769531 133.839844 C 338.074219 132.457031 334.730469 132.582031 332.003906 133.902344 C 330.550781 134.605469 329.238281 135.65625 328.402344 137.03125 C 327.804688 138.03125 327.472656 139.207031 327.523438 140.375 C 327.546875 140.808594 327.617188 141.078125 327.722656 141.242188 M 303.238281 143.078125 C 303.597656 143.160156 304.023438 142.902344 304.351562 142.675781 C 306.363281 141.304688 308.851562 140.644531 311.277344 140.859375 C 313.703125 141.085938 316.035156 142.171875 317.769531 143.894531 C 318.113281 144.234375 318.667969 144.628906 319.03125 144.285156 L 319.238281 143.78125 C 319.402344 142.644531 319.164062 141.355469 318.773438 140.292969 C 317.667969 137.277344 315.167969 135.210938 311.898438 135.109375 C 309.925781 135.039062 307.921875 135.53125 306.261719 136.605469 C 305.085938 137.359375 304.09375 138.414062 303.414062 139.640625 C 303.050781 140.300781 302.183594 142.355469 303.011719 142.976562 L 303.238281 143.078125 M 328.597656 150.894531 C 328.300781 150.769531 327.980469 150.636719 327.679688 150.71875 C 326.164062 151.164062 327.390625 154.394531 327.84375 155.230469 C 328.660156 156.726562 330.011719 157.964844 331.570312 158.625 C 334.472656 159.855469 337.898438 159.308594 340.605469 157.707031 C 342.347656 156.675781 343.597656 155.035156 343.894531 152.988281 C 344.03125 152.039062 344.558594 149.460938 342.914062 149.59375 C 342.472656 149.632812 342.070312 149.882812 341.675781 150.097656 C 339.539062 151.316406 337.09375 151.957031 334.636719 152.007812 C 332.574219 152.0625 330.5 151.6875 328.597656 150.894531 M 310.710938 154.0625 C 312.238281 154.042969 313.753906 153.765625 315.160156 153.175781 C 316.015625 152.8125 316.832031 152.351562 317.679688 151.945312 C 317.976562 151.8125 318.296875 151.679688 318.617188 151.75 C 319.988281 152.050781 319.628906 154.175781 319.441406 155.09375 C 319.195312 156.367188 318.359375 157.71875 317.304688 158.503906 C 316.53125 159.082031 315.613281 159.453125 314.695312 159.742188 C 313.765625 160.039062 312.816406 160.277344 311.835938 160.339844 C 309.800781 160.484375 307.71875 159.855469 306.128906 158.617188 C 304.539062 157.378906 303.453125 155.550781 303.164062 153.609375 C 303.125 153.300781 303.09375 152.988281 303.238281 152.710938 C 303.785156 151.628906 306.015625 153.339844 306.746094 153.535156 C 308.027344 153.898438 309.367188 154.082031 310.710938 154.0625 "/>
<path style=" stroke:none;fill-rule:nonzero;fill:rgb(12.939453%,11.369324%,11.369324%);fill-opacity:1;" d="M 341.46875 127.667969 C 338.519531 125.582031 334.6875 124.785156 331.148438 125.507812 C 330.550781 125.632812 329.949219 125.808594 329.457031 126.148438 C 328.960938 126.5 328.566406 127.058594 328.566406 127.667969 C 328.558594 128.511719 329.289062 129.226562 330.09375 129.460938 C 331.335938 129.835938 332.53125 129.347656 333.75 129.152344 C 337.289062 128.59375 341.058594 129.648438 343.804688 131.960938 L 343.722656 130.753906 C 343.617188 130.308594 343.453125 129.863281 343.214844 129.460938 C 343 129.070312 342.71875 128.730469 342.398438 128.429688 C 342.109375 128.152344 341.800781 127.902344 341.46875 127.667969 Z M 304.484375 129.75 C 307.054688 127.203125 310.699219 125.777344 314.3125 125.910156 C 314.921875 125.933594 315.542969 125.992188 316.089844 126.261719 C 316.636719 126.519531 317.101562 127.003906 317.214844 127.605469 C 317.367188 128.429688 316.757812 129.257812 315.996094 129.628906 C 314.839844 130.207031 313.578125 129.917969 312.339844 129.925781 C 308.757812 129.96875 305.21875 131.628906 302.894531 134.367188 L 302.78125 133.167969 C 302.804688 132.703125 302.894531 132.238281 303.0625 131.804688 C 303.214844 131.382812 303.433594 131 303.703125 130.648438 C 303.929688 130.328125 304.195312 130.03125 304.484375 129.75 "/>
<path style=" stroke:none;fill-rule:nonzero;fill:rgb(76.078796%,49.01886%,21.179199%);fill-opacity:1;" d="M 320.671875 166.390625 C 319.785156 166.390625 318.894531 166.339844 318.007812 166.246094 C 317.441406 166.195312 316.820312 166.089844 316.410156 165.699219 C 315.3125 164.644531 315.933594 162.570312 316.59375 161.476562 C 317.039062 160.730469 317.59375 160.070312 318.058594 159.347656 C 318.421875 158.792969 318.71875 158.214844 318.976562 157.613281 C 319.484375 156.425781 319.804688 155.148438 319.980469 153.867188 C 320.308594 151.554688 320.105469 149.292969 319.886719 146.980469 C 320.050781 147.34375 320.113281 147.746094 320.175781 148.136719 C 320.363281 149.417969 320.539062 150.761719 320.515625 152.0625 C 320.484375 153.300781 320.269531 154.539062 319.988281 155.746094 C 319.554688 157.511719 318.835938 159.214844 317.800781 160.730469 C 317.285156 161.496094 316.699219 162.28125 316.492188 163.199219 C 316.367188 163.820312 316.460938 164.519531 316.902344 164.964844 C 317.191406 165.273438 317.59375 165.429688 317.996094 165.523438 C 318.503906 165.65625 319.03125 165.699219 319.546875 165.730469 C 319.804688 165.738281 320.0625 165.738281 320.320312 165.738281 C 321.15625 165.738281 321.980469 165.6875 322.796875 165.5625 C 323.664062 165.441406 324.5625 165.222656 325.253906 164.695312 C 325.449219 164.550781 325.648438 164.355469 325.882812 164.316406 C 325.957031 164.304688 326.019531 164.292969 326.082031 164.292969 C 326.296875 164.292969 326.535156 164.34375 326.742188 164.375 C 327.113281 164.429688 327.496094 164.46875 327.875 164.46875 C 328.796875 164.46875 329.691406 164.261719 330.3125 163.613281 C 330.871094 163.035156 331.074219 162.136719 330.816406 161.363281 C 330.570312 160.597656 329.878906 159.988281 329.082031 159.84375 C 329.113281 159.84375 329.144531 159.835938 329.167969 159.835938 C 330.167969 159.835938 331.066406 160.703125 331.210938 161.691406 C 331.363281 162.714844 330.816406 163.757812 329.960938 164.335938 C 329.34375 164.757812 328.597656 164.945312 327.867188 164.945312 C 327.699219 164.945312 327.546875 164.933594 327.378906 164.914062 C 327.113281 164.882812 326.773438 164.800781 326.453125 164.800781 C 326.246094 164.800781 326.039062 164.839844 325.875 164.964844 L 325.511719 165.328125 C 324.625 166.214844 323.199219 166.277344 322.023438 166.347656 C 321.578125 166.378906 321.125 166.390625 320.671875 166.390625 "/>
<path style=" stroke:none;fill-rule:nonzero;fill:rgb(43.528748%,26.269531%,14.118958%);fill-opacity:1;" d="M 341.875 166.234375 C 341.234375 167.019531 340.921875 168.050781 340.71875 169.03125 C 340.292969 171.046875 340.222656 173.121094 339.941406 175.164062 C 339.539062 178.160156 335.636719 180.222656 333.007812 180.832031 C 331.820312 181.109375 330.550781 181.222656 329.402344 180.800781 C 328.640625 180.523438 327.96875 180.027344 327.320312 179.53125 C 325.925781 178.476562 324.449219 177.476562 323.097656 176.382812 C 322.105469 175.566406 320.992188 174.863281 319.773438 174.429688 L 319.453125 174.328125 C 318.152344 173.914062 316.882812 174.132812 315.542969 174.007812 C 315.085938 173.96875 314.746094 173.5625 314.789062 173.109375 C 314.828125 172.65625 315.222656 172.292969 315.6875 172.367188 C 320.878906 172.820312 325.636719 172.4375 329.859375 171.242188 C 334.6875 169.878906 338.847656 167.410156 341.875 164.117188 C 342.191406 163.789062 342.71875 163.757812 343.039062 164.066406 C 344.019531 164.953125 342.308594 165.675781 341.875 166.234375 "/>
<g clip-path="url(#clip1)" clip-rule="nonzero">
<path style=" stroke:none;fill-rule:nonzero;fill:rgb(36.079407%,37.649536%,17.649841%);fill-opacity:1;" d="M 438.179688 228.132812 C 440.730469 231.457031 441.90625 233.882812 441.039062 238.160156 C 440.328125 241.6875 438.726562 245.136719 436.714844 248.121094 C 433.773438 252.46875 429.5625 256.121094 427.972656 261.128906 C 426.898438 264.523438 427.320312 268.601562 429.871094 271.089844 C 430.511719 271.71875 431.253906 272.226562 431.902344 272.84375 C 432.800781 273.722656 433.503906 274.847656 434.597656 275.46875 C 436.21875 276.375 438.304688 275.972656 439.996094 276.746094 C 440.675781 277.058594 441.265625 277.554688 441.957031 277.832031 C 443.277344 278.378906 444.691406 278.089844 446.117188 277.8125 C 447.046875 277.625 447.976562 277.4375 448.894531 277.480469 C 450.183594 277.53125 451.484375 278.027344 452.722656 277.65625 C 454.179688 277.234375 455.046875 275.789062 456.140625 274.734375 C 457.222656 273.703125 458.585938 273.042969 459.792969 272.164062 C 461.003906 271.296875 462.105469 270.097656 462.292969 268.625 C 462.363281 268.015625 462.28125 267.375 462.53125 266.816406 C 462.828125 266.1875 463.488281 265.835938 463.984375 265.351562 C 465.191406 264.164062 465.359375 262.210938 464.832031 260.601562 C 464.292969 258.992188 463.199219 257.648438 462.117188 256.347656 C 459.792969 253.53125 457.472656 250.722656 455.148438 247.902344 C 452.992188 245.292969 450.722656 242.371094 450.753906 238.972656 C 450.773438 236.660156 451.917969 234.472656 453.476562 232.757812 C 455.222656 230.839844 457.523438 229.921875 459.445312 228.308594 C 461.21875 226.824219 460.144531 225.410156 457.855469 225.851562 C 454.261719 226.542969 450.523438 226.453125 446.984375 225.5625 C 445.746094 225.253906 444.332031 224.882812 443.289062 225.605469 C 443 225.789062 442.773438 226.050781 442.472656 226.214844 C 441.667969 226.628906 440.71875 226.234375 439.832031 226.058594 C 438.953125 225.894531 437.746094 226.234375 437.734375 227.132812 L 437.902344 227.722656 L 438.179688 228.132812 M 221.421875 228.960938 C 218.875 232.285156 217.695312 234.710938 218.5625 238.984375 C 219.277344 242.523438 220.867188 245.964844 222.878906 248.945312 C 225.832031 253.292969 230.042969 256.945312 231.621094 261.953125 C 232.695312 265.351562 232.28125 269.429688 229.734375 271.917969 C 229.09375 272.546875 228.339844 273.050781 227.699219 273.671875 C 226.800781 274.546875 226.097656 275.675781 225.003906 276.292969 C 223.382812 277.203125 221.289062 276.800781 219.597656 277.574219 C 218.925781 277.882812 218.335938 278.378906 217.644531 278.65625 C 216.324219 279.203125 214.910156 278.914062 213.476562 278.636719 C 212.554688 278.449219 211.617188 278.265625 210.699219 278.304688 C 209.417969 278.359375 208.109375 278.855469 206.878906 278.492188 C 205.414062 278.058594 204.554688 276.613281 203.453125 275.558594 C 202.378906 274.539062 201.015625 273.867188 199.808594 273 C 198.601562 272.121094 197.484375 270.925781 197.308594 269.449219 C 197.238281 268.839844 197.320312 268.199219 197.0625 267.640625 C 196.773438 267.011719 196.101562 266.660156 195.605469 266.175781 C 194.398438 264.988281 194.234375 263.039062 194.769531 261.425781 C 195.296875 259.828125 196.402344 258.476562 197.476562 257.175781 C 199.796875 254.355469 202.128906 251.546875 204.453125 248.730469 C 206.609375 246.117188 208.882812 243.195312 208.851562 239.808594 C 208.820312 237.488281 207.683594 235.300781 206.125 233.585938 C 204.382812 231.664062 202.078125 230.746094 200.160156 229.136719 C 198.382812 227.660156 199.445312 226.234375 201.75 226.679688 C 205.332031 227.378906 209.066406 227.277344 212.617188 226.390625 C 213.855469 226.089844 215.261719 225.707031 216.3125 226.429688 C 216.59375 226.617188 216.828125 226.875 217.128906 227.039062 C 217.925781 227.453125 218.875 227.0625 219.761719 226.886719 C 220.648438 226.71875 221.855469 227.0625 221.855469 227.957031 L 221.691406 228.546875 L 221.421875 228.960938 "/>
</g>
<path style=" stroke:none;fill-rule:nonzero;fill:rgb(97.24884%,64.309692%,26.669312%);fill-opacity:1;" d="M 454.582031 246.324219 C 455.003906 245.902344 455.109375 245.1875 454.890625 244.609375 C 454.644531 243.941406 454.167969 243.507812 453.601562 243.21875 C 454.148438 243.0625 454.570312 242.730469 454.683594 242.050781 C 454.820312 241.328125 454.417969 240.625 453.859375 240.152344 C 454.40625 239.894531 454.839844 239.386719 454.933594 238.789062 C 455.449219 235.371094 449.246094 234.027344 446.191406 234.886719 C 445.167969 235.175781 444.496094 235.722656 444.558594 236.515625 C 444.703125 238.335938 447.027344 238.683594 448.914062 239.046875 C 448.574219 239.066406 448.222656 239.078125 447.871094 239.128906 C 447.542969 239.179688 447.210938 239.242188 446.882812 239.324219 C 445.953125 239.5625 444.785156 239.75 444.351562 240.730469 C 443.453125 242.804688 445.910156 243.082031 448.097656 243.09375 L 448.027344 243.101562 C 447.273438 243.289062 446.539062 243.578125 445.933594 243.992188 C 444.457031 245.035156 445.054688 246.46875 446.726562 246.757812 C 447.707031 246.933594 448.585938 246.601562 449.523438 246.417969 C 450.265625 246.273438 451.019531 246.28125 451.765625 246.398438 C 451.03125 246.601562 450.320312 246.902344 449.773438 247.242188 C 449.429688 247.449219 449.101562 247.699219 448.90625 248.039062 C 448.707031 248.378906 448.65625 248.832031 448.875 249.152344 L 449.484375 249.585938 C 450.824219 250.09375 452.28125 249.289062 453.714844 249.289062 C 453.859375 249.277344 454.003906 249.289062 454.148438 249.296875 C 454.675781 249.316406 455.210938 249.339844 455.625 249.027344 C 456.8125 248.132812 455.605469 246.726562 454.582031 246.324219 M 211.503906 243.917969 L 211.574219 243.929688 C 212.320312 244.113281 213.0625 244.402344 213.660156 244.816406 C 215.148438 245.859375 214.546875 247.292969 212.875 247.582031 C 211.894531 247.757812 211.007812 247.429688 210.070312 247.242188 C 209.335938 247.097656 208.570312 247.109375 207.828125 247.222656 C 208.570312 247.429688 209.273438 247.726562 209.832031 248.070312 C 210.171875 248.277344 210.492188 248.523438 210.699219 248.863281 C 210.894531 249.203125 210.945312 249.660156 210.730469 249.980469 L 210.121094 250.421875 C 208.777344 250.917969 207.3125 250.125 205.886719 250.113281 C 205.742188 250.113281 205.597656 250.113281 205.453125 250.125 C 204.929688 250.144531 204.390625 250.164062 203.980469 249.855469 C 202.78125 248.957031 204 247.554688 205.019531 247.160156 C 204.585938 246.738281 204.484375 246.023438 204.699219 245.4375 C 204.960938 244.765625 205.433594 244.332031 205.992188 244.042969 C 205.453125 243.898438 205.03125 243.558594 204.90625 242.875 C 204.785156 242.164062 205.1875 241.460938 205.742188 240.976562 C 205.195312 240.71875 204.753906 240.210938 204.671875 239.613281 C 204.144531 236.195312 210.359375 234.855469 213.402344 235.710938 C 214.433594 236.011719 215.105469 236.546875 215.042969 237.34375 C 214.898438 239.171875 212.578125 239.511719 210.675781 239.882812 C 211.027344 239.902344 211.378906 239.902344 211.71875 239.953125 C 212.0625 240.007812 212.390625 240.078125 212.722656 240.152344 C 213.652344 240.386719 214.816406 240.574219 215.238281 241.554688 C 216.148438 243.628906 213.679688 243.910156 211.503906 243.917969 "/>
<path style=" stroke:none;fill-rule:nonzero;fill:rgb(90.19928%,87.449646%,85.488892%);fill-opacity:1;" d="M 218.492188 227.175781 C 218.71875 227.113281 218.945312 227.039062 219.164062 226.96875 C 219.421875 226.886719 219.710938 226.84375 219.988281 226.84375 C 220.03125 226.84375 220.070312 226.84375 220.101562 226.84375 C 219.988281 226.855469 219.875 226.863281 219.761719 226.886719 C 219.347656 226.96875 218.914062 227.101562 218.492188 227.175781 "/>
<path style=" stroke:none;fill-rule:nonzero;fill:rgb(32.548523%,32.548523%,14.898682%);fill-opacity:1;" d="M 215.726562 278.542969 C 214.683594 278.542969 213.652344 278.335938 212.691406 277.933594 C 212.441406 277.820312 212.207031 277.707031 211.9375 277.667969 C 211.863281 277.65625 211.804688 277.65625 211.730469 277.65625 C 211.484375 277.65625 211.234375 277.707031 210.996094 277.757812 C 210.191406 277.933594 209.378906 278.070312 208.5625 278.070312 C 208.066406 278.070312 207.582031 278.015625 207.097656 277.902344 C 205.828125 277.59375 204.617188 276.695312 204.257812 275.4375 C 205.125 276.355469 206.382812 276.820312 207.632812 276.820312 C 208.800781 276.820312 209.964844 276.417969 210.8125 275.601562 C 212.113281 276.601562 213.867188 277.046875 215.488281 277.109375 C 215.550781 277.109375 215.621094 277.109375 215.683594 277.109375 C 217.367188 277.109375 219.132812 276.417969 220 274.980469 C 220.214844 274.632812 220.402344 274.207031 220.78125 274.054688 C 220.898438 274.011719 221.019531 273.992188 221.144531 273.992188 C 221.332031 273.992188 221.527344 274.03125 221.710938 274.0625 C 221.960938 274.105469 222.199219 274.113281 222.425781 274.113281 C 225.054688 274.113281 226.8125 271.792969 228.433594 269.964844 C 230.269531 267.890625 230.785156 264.886719 230.195312 262.171875 C 229.546875 259.113281 227.460938 257.359375 224.621094 256.316406 C 224.933594 253.871094 223.34375 251.320312 221.019531 250.503906 C 221.464844 248.183594 220.144531 245.644531 217.984375 244.683594 C 218.027344 242.804688 217.78125 240.925781 217.605469 239.054688 L 217.511719 238.726562 L 217.171875 238.5625 C 216.714844 238.449219 216.25 238.394531 215.789062 238.394531 C 215.355469 238.394531 214.910156 238.449219 214.488281 238.539062 C 214.507812 238.519531 214.515625 238.5 214.539062 238.480469 C 214.578125 238.4375 214.632812 238.394531 214.660156 238.335938 C 214.746094 238.242188 214.816406 238.128906 214.867188 238.003906 C 215.042969 237.683594 215.210938 237.351562 215.558594 237.292969 C 215.601562 237.28125 215.644531 237.28125 215.671875 237.28125 C 215.789062 237.28125 215.910156 237.300781 216.023438 237.332031 C 216.136719 237.351562 216.25 237.382812 216.363281 237.382812 C 216.4375 237.382812 216.507812 237.375 216.582031 237.34375 C 216.933594 237.179688 216.921875 236.691406 216.871094 236.320312 C 216.707031 235.226562 215.476562 234.460938 216.179688 233.441406 C 216.726562 232.667969 217.242188 231.871094 217.738281 231.066406 C 218.015625 230.601562 218.957031 229.640625 219.050781 229.136719 C 219.246094 228.175781 218.789062 228.476562 218.058594 228.308594 C 217.203125 228.113281 216.746094 227.792969 216.003906 227.289062 C 215.355469 226.855469 214.570312 226.617188 213.785156 226.617188 C 213.527344 226.617188 213.257812 226.648438 213.011719 226.699219 C 213.589844 226.347656 214.257812 226.164062 214.941406 226.164062 C 214.960938 226.164062 214.980469 226.164062 215.003906 226.164062 C 215.324219 226.164062 215.664062 226.214844 215.941406 226.378906 C 216.28125 226.574219 216.519531 226.925781 216.859375 227.121094 C 217.097656 227.257812 217.355469 227.308594 217.613281 227.308594 C 217.902344 227.308594 218.203125 227.246094 218.492188 227.175781 C 218.914062 227.101562 219.347656 226.96875 219.761719 226.886719 C 219.875 226.863281 219.988281 226.855469 220.101562 226.84375 C 221 226.886719 221.785156 227.378906 221.382812 228.535156 C 221.144531 229.207031 220.453125 229.703125 220.050781 230.28125 C 219.390625 231.261719 218.71875 232.242188 218.296875 233.347656 C 217.253906 236.074219 217.882812 239.148438 218.882812 241.894531 C 219.75 244.269531 220.898438 246.550781 222.269531 248.667969 C 225.285156 253.324219 230.074219 257.289062 231.589844 262.757812 C 232.117188 264.660156 232.066406 266.722656 231.332031 268.5625 C 230.476562 270.707031 229.03125 271.566406 227.398438 272.988281 C 226.636719 273.660156 226.234375 274.652344 225.519531 275.363281 C 224.621094 276.261719 223.332031 276.632812 222.082031 276.789062 C 221.359375 276.882812 220.628906 276.914062 219.9375 277.140625 C 218.636719 277.574219 217.871094 278.378906 216.4375 278.511719 C 216.199219 278.535156 215.960938 278.542969 215.726562 278.542969 "/>
<path style=" stroke:none;fill-rule:nonzero;fill:rgb(90.19928%,87.449646%,85.488892%);fill-opacity:1;" d="M 441.109375 226.347656 C 440.6875 226.265625 440.253906 226.140625 439.832031 226.058594 C 439.726562 226.039062 439.613281 226.027344 439.492188 226.019531 C 439.53125 226.019531 439.574219 226.019531 439.613281 226.019531 C 439.882812 226.019531 440.171875 226.058594 440.429688 226.140625 C 440.65625 226.203125 440.875 226.277344 441.109375 226.347656 "/>
<path style=" stroke:none;fill-rule:nonzero;fill:rgb(32.548523%,32.548523%,14.898682%);fill-opacity:1;" d="M 443.878906 277.71875 C 443.628906 277.71875 443.390625 277.707031 443.15625 277.6875 C 441.730469 277.554688 440.964844 276.738281 439.667969 276.3125 C 438.972656 276.078125 438.230469 276.046875 437.507812 275.964844 C 436.257812 275.808594 434.96875 275.4375 434.082031 274.539062 C 433.359375 273.824219 432.957031 272.835938 432.191406 272.164062 C 430.570312 270.730469 429.117188 269.882812 428.261719 267.734375 C 427.539062 265.898438 427.476562 263.832031 428 261.933594 C 429.53125 256.460938 434.308594 252.488281 437.332031 247.84375 C 438.707031 245.714844 439.839844 243.445312 440.707031 241.070312 C 441.710938 238.324219 442.339844 235.246094 441.308594 232.511719 C 440.882812 231.417969 440.214844 230.425781 439.542969 229.457031 C 439.148438 228.878906 438.457031 228.382812 438.222656 227.710938 C 437.820312 226.554688 438.59375 226.058594 439.492188 226.019531 C 439.613281 226.027344 439.726562 226.039062 439.832031 226.058594 C 440.253906 226.140625 440.6875 226.265625 441.109375 226.347656 C 441.398438 226.421875 441.699219 226.484375 441.976562 226.484375 C 442.246094 226.484375 442.496094 226.429688 442.730469 226.296875 C 443.082031 226.101562 443.308594 225.75 443.652344 225.554688 C 443.9375 225.386719 444.269531 225.335938 444.601562 225.335938 C 444.621094 225.335938 444.640625 225.335938 444.660156 225.335938 C 445.332031 225.335938 446.015625 225.523438 446.59375 225.875 C 446.335938 225.820312 446.074219 225.789062 445.816406 225.789062 C 445.035156 225.789062 444.25 226.027344 443.589844 226.460938 C 442.855469 226.96875 442.390625 227.277344 441.535156 227.472656 C 440.8125 227.648438 440.359375 227.351562 440.542969 228.308594 C 440.648438 228.804688 441.585938 229.777344 441.863281 230.242188 C 442.359375 231.046875 442.875 231.839844 443.414062 232.613281 C 444.125 233.636719 442.898438 234.402344 442.730469 235.496094 C 442.667969 235.867188 442.667969 236.351562 443.011719 236.507812 C 443.082031 236.539062 443.15625 236.558594 443.238281 236.558594 C 443.339844 236.558594 443.464844 236.527344 443.578125 236.507812 C 443.691406 236.476562 443.804688 236.457031 443.917969 236.457031 C 443.960938 236.457031 444 236.457031 444.03125 236.464844 C 444.382812 236.515625 444.546875 236.847656 444.734375 237.179688 C 444.785156 237.300781 444.859375 237.414062 444.941406 237.507812 C 444.972656 237.570312 445.011719 237.613281 445.054688 237.652344 C 445.074219 237.671875 445.09375 237.695312 445.105469 237.703125 C 444.683594 237.613281 444.25 237.570312 443.816406 237.570312 C 443.351562 237.570312 442.875 237.621094 442.433594 237.734375 L 442.089844 237.902344 L 441.988281 238.230469 C 441.8125 240.097656 441.574219 241.976562 441.605469 243.855469 C 439.449219 244.816406 438.128906 247.355469 438.582031 249.679688 C 436.25 250.484375 434.660156 253.046875 434.96875 255.492188 C 432.140625 256.535156 430.054688 258.289062 429.394531 261.335938 C 428.808594 264.058594 429.332031 267.0625 431.171875 269.140625 C 432.78125 270.964844 434.535156 273.289062 437.179688 273.289062 C 437.40625 273.289062 437.644531 273.269531 437.878906 273.238281 C 438.078125 273.207031 438.273438 273.164062 438.457031 273.164062 C 438.582031 273.164062 438.695312 273.1875 438.808594 273.226562 C 439.203125 273.382812 439.386719 273.804688 439.605469 274.15625 C 440.472656 275.589844 442.226562 276.28125 443.910156 276.28125 C 443.980469 276.28125 444.042969 276.28125 444.113281 276.273438 C 445.726562 276.222656 447.480469 275.777344 448.78125 274.777344 C 449.628906 275.589844 450.792969 275.992188 451.960938 275.992188 C 453.21875 275.992188 454.476562 275.53125 455.335938 274.609375 C 454.972656 275.871094 453.777344 276.769531 452.507812 277.078125 C 452.023438 277.191406 451.535156 277.242188 451.042969 277.242188 C 450.226562 277.242188 449.398438 277.109375 448.605469 276.933594 C 448.355469 276.882812 448.109375 276.820312 447.863281 276.820312 C 447.800781 276.820312 447.726562 276.832031 447.664062 276.839844 C 447.398438 276.882812 447.148438 276.996094 446.902344 277.109375 C 445.953125 277.511719 444.910156 277.71875 443.878906 277.71875 "/>
<path style=" stroke:none;fill-rule:nonzero;fill:rgb(89.019775%,56.079102%,22.349548%);fill-opacity:1;" d="M 214.476562 238.539062 C 214.496094 238.519531 214.515625 238.5 214.539062 238.480469 C 214.515625 238.5 214.507812 238.519531 214.488281 238.539062 C 214.488281 238.539062 214.488281 238.539062 214.476562 238.539062 M 214.660156 238.335938 C 214.746094 238.242188 214.804688 238.128906 214.867188 238.003906 C 214.816406 238.128906 214.746094 238.242188 214.660156 238.335938 M 445.117188 237.714844 C 445.117188 237.714844 445.117188 237.714844 445.105469 237.703125 C 445.09375 237.695312 445.074219 237.671875 445.054688 237.652344 C 445.074219 237.671875 445.09375 237.695312 445.117188 237.714844 M 444.941406 237.507812 C 444.859375 237.414062 444.785156 237.300781 444.734375 237.179688 C 444.796875 237.292969 444.859375 237.414062 444.941406 237.507812 "/>
<path style=" stroke:none;fill-rule:nonzero;fill:rgb(32.548523%,32.548523%,14.898682%);fill-opacity:1;" d="M 206.921875 274.457031 C 206.589844 274.457031 206.257812 274.414062 205.929688 274.320312 C 204.554688 273.941406 203.460938 272.722656 203.203125 271.328125 C 201.644531 271.109375 200.035156 270.75 198.839844 269.738281 C 197.652344 268.714844 197.050781 266.835938 197.917969 265.527344 C 196.824219 264.9375 196.070312 263.75 196.011719 262.511719 C 195.957031 261.5625 196.320312 260.507812 197.011719 259.847656 C 196.792969 260.941406 196.257812 261.800781 196.710938 262.964844 C 197.15625 264.121094 198.320312 264.957031 199.550781 265.011719 C 199.28125 266.320312 199.664062 267.757812 200.5625 268.757812 C 201.367188 269.664062 202.585938 270.203125 203.8125 270.203125 C 203.925781 270.203125 204.039062 270.203125 204.164062 270.191406 C 204.671875 272.070312 206.601562 273.402344 208.519531 273.402344 C 208.964844 273.402344 209.398438 273.332031 209.820312 273.1875 C 209.097656 273.992188 208.003906 274.457031 206.921875 274.457031 M 452.671875 273.628906 C 451.589844 273.628906 450.503906 273.164062 449.78125 272.359375 C 450.195312 272.503906 450.636719 272.578125 451.070312 272.578125 C 453.003906 272.578125 454.933594 271.246094 455.4375 269.367188 C 455.550781 269.375 455.675781 269.375 455.789062 269.375 C 457.007812 269.375 458.226562 268.839844 459.039062 267.929688 C 459.929688 266.929688 460.320312 265.496094 460.042969 264.183594 C 461.28125 264.121094 462.4375 263.296875 462.878906 262.140625 C 463.335938 260.972656 462.808594 260.117188 462.582031 259.023438 C 463.285156 259.683594 463.644531 260.734375 463.59375 261.6875 C 463.53125 262.925781 462.777344 264.113281 461.683594 264.699219 C 462.539062 266.011719 461.953125 267.890625 460.753906 268.902344 C 459.566406 269.925781 457.945312 270.285156 456.398438 270.503906 C 456.140625 271.894531 455.035156 273.113281 453.664062 273.496094 C 453.34375 273.589844 453.011719 273.628906 452.671875 273.628906 "/>
<path style=" stroke:none;fill-rule:nonzero;fill:rgb(95.689392%,96.469116%,96.078491%);fill-opacity:1;" d="M 449.71875 256.152344 L 448.222656 256.152344 C 448.222656 256.152344 447.789062 258.710938 446.21875 258.710938 C 444.558594 258.710938 444.21875 256.152344 444.21875 256.152344 L 442.722656 256.152344 C 443.207031 259.34375 445.125 260.3125 445.507812 260.46875 L 445.507812 261.253906 L 444.414062 261.253906 L 444.414062 262.675781 L 445.507812 262.675781 L 445.507812 264.917969 L 446.933594 264.917969 L 446.933594 262.675781 L 448.015625 262.675781 L 448.015625 261.253906 L 446.933594 261.253906 L 446.933594 260.46875 C 447.304688 260.3125 449.222656 259.34375 449.71875 256.152344 Z M 209.882812 256.976562 L 211.378906 256.976562 C 211.378906 256.976562 211.804688 259.539062 213.382812 259.539062 C 215.042969 259.539062 215.382812 256.976562 215.382812 256.976562 L 216.882812 256.976562 C 216.386719 260.167969 214.464844 261.136719 214.09375 261.292969 L 214.09375 262.078125 L 215.179688 262.078125 L 215.179688 263.503906 L 214.09375 263.503906 L 214.09375 265.742188 L 212.667969 265.742188 L 212.667969 263.503906 L 211.574219 263.503906 L 211.574219 262.078125 L 212.667969 262.078125 L 212.667969 261.292969 C 212.296875 261.136719 210.367188 260.167969 209.882812 256.976562 "/>
<path style=" stroke:none;fill-rule:nonzero;fill:rgb(35.289001%,36.079407%,16.859436%);fill-opacity:1;" d="M 302.101562 315.894531 C 303.753906 316.226562 305.457031 316.75 306.652344 317.949219 C 308.007812 315.398438 308.8125 313.179688 308.988281 310.269531 L 308.902344 309.730469 L 308.417969 309.410156 C 303.257812 307.429688 297.910156 305.539062 292.386719 305.550781 C 293.328125 305.53125 290.386719 315.53125 290.191406 316.214844 C 294.070312 315.214844 298.167969 315.109375 302.101562 315.894531 M 358.667969 316.855469 C 357.003906 317.183594 355.300781 317.722656 354.105469 318.917969 C 352.753906 316.359375 351.949219 314.140625 351.78125 311.238281 L 351.863281 310.703125 L 352.351562 310.371094 C 357.511719 308.390625 362.847656 306.511719 368.378906 306.511719 C 367.441406 306.5 370.382812 316.492188 370.570312 317.175781 C 366.699219 316.183594 362.589844 316.070312 358.667969 316.855469 "/>
<path style=" stroke:none;fill-rule:nonzero;fill:rgb(36.079407%,37.649536%,17.649841%);fill-opacity:1;" d="M 306.859375 317.566406 C 308.285156 314.71875 308.894531 311.867188 309.421875 308.761719 C 309.472656 308.472656 309.523438 308.171875 309.460938 307.882812 C 309.390625 307.53125 309.160156 307.234375 308.933594 306.953125 C 304.886719 301.90625 299.53125 297.941406 293.523438 295.546875 C 293.140625 295.390625 288.351562 307.511719 288 308.792969 C 291.574219 309.152344 295.175781 309.691406 298.519531 311.023438 C 301.863281 312.34375 304.960938 314.511719 306.859375 317.566406 M 353.898438 318.527344 C 352.472656 315.675781 351.863281 312.839844 351.339844 309.730469 C 351.296875 309.441406 351.246094 309.144531 351.308594 308.855469 C 351.378906 308.492188 351.605469 308.191406 351.835938 307.914062 C 355.871094 302.875 361.238281 298.902344 367.234375 296.515625 C 367.628906 296.363281 372.40625 308.480469 372.769531 309.761719 C 369.1875 310.113281 365.59375 310.660156 362.25 311.980469 C 358.90625 313.304688 355.808594 315.472656 353.898438 318.527344 "/>
<path style=" stroke:none;fill-rule:nonzero;fill:rgb(71.369934%,72.549438%,59.999084%);fill-opacity:1;" d="M 353.804688 317.351562 L 353.496094 316.617188 C 353.496094 316.617188 358.246094 308.554688 369.855469 308.554688 C 370.144531 308.554688 370.433594 308.566406 370.722656 308.574219 L 366.625 298.292969 C 366.625 298.292969 359.742188 299.925781 351.628906 309.113281 C 351.605469 308.925781 351.585938 308.75 351.574219 308.585938 C 352.792969 307.210938 357.964844 300.945312 366.882812 297.414062 L 371.871094 309.296875 C 371.871094 309.296875 371.558594 309.277344 371.023438 309.277344 C 368.144531 309.277344 358.617188 309.867188 353.804688 317.351562 M 306.964844 316.378906 C 302.152344 308.90625 292.625 308.316406 289.746094 308.316406 C 289.210938 308.316406 288.898438 308.335938 288.898438 308.335938 L 293.875 296.445312 C 303.535156 300.273438 308.800781 307.304688 309.421875 307.851562 C 309.398438 307.976562 309.390625 308.109375 309.367188 308.265625 L 309.347656 308.390625 C 301.140625 298.996094 294.144531 297.332031 294.144531 297.332031 L 290.035156 307.613281 C 290.335938 307.605469 290.625 307.59375 290.902344 307.59375 C 302.523438 307.59375 307.273438 315.65625 307.273438 315.65625 L 306.964844 316.378906 M 353.238281 315.007812 L 352.875 313.664062 C 353.019531 313.5625 356.085938 309.402344 359.617188 307.6875 L 360.132812 308.78125 C 360.132812 308.78125 355.105469 311.589844 353.238281 315.007812 M 307.53125 314.046875 C 305.664062 310.617188 300.625 307.820312 300.625 307.820312 L 301.140625 306.726562 C 304.671875 308.441406 307.738281 312.589844 307.890625 312.695312 L 307.53125 314.046875 M 352.875 313.085938 L 352.503906 311.746094 C 352.660156 311.640625 355.726562 307.480469 359.257812 305.765625 L 359.773438 306.863281 C 359.773438 306.863281 354.746094 309.660156 352.875 313.085938 M 307.890625 312.125 C 306.023438 308.699219 300.988281 305.890625 300.988281 305.890625 L 301.511719 304.808594 C 305.042969 306.519531 308.097656 310.671875 308.253906 310.773438 L 307.890625 312.125 M 352.453125 311.0625 L 352.09375 309.722656 C 352.246094 309.617188 355.3125 305.457031 358.84375 303.742188 L 359.359375 304.839844 C 359.359375 304.839844 354.320312 307.644531 352.453125 311.0625 M 308.304688 310.101562 C 306.4375 306.675781 301.410156 303.867188 301.410156 303.867188 L 301.925781 302.785156 C 305.457031 304.496094 308.523438 308.648438 308.675781 308.75 L 308.304688 310.101562 M 364.828125 306.996094 C 363.582031 306.996094 362.320312 306.015625 361.765625 304.507812 C 361.09375 302.679688 361.722656 300.761719 363.167969 300.234375 C 363.425781 300.128906 363.695312 300.089844 363.960938 300.089844 C 365.203125 300.089844 366.472656 301.058594 367.019531 302.566406 C 367.699219 304.394531 367.070312 306.3125 365.613281 306.851562 C 365.355469 306.945312 365.097656 306.996094 364.828125 306.996094 M 295.9375 306.023438 C 295.671875 306.023438 295.402344 305.984375 295.144531 305.878906 C 293.699219 305.355469 293.070312 303.433594 293.742188 301.605469 C 294.296875 300.097656 295.566406 299.117188 296.804688 299.117188 C 297.074219 299.117188 297.332031 299.171875 297.589844 299.261719 C 299.046875 299.800781 299.675781 301.71875 299.003906 303.546875 C 298.449219 305.042969 297.179688 306.023438 295.9375 306.023438 "/>
<path style=" stroke:none;fill-rule:nonzero;fill:rgb(70.979309%,71.759033%,60.389709%);fill-opacity:1;" d="M 354.433594 317.804688 L 355.363281 316.71875 C 357.605469 315.386719 360.617188 315.027344 363.230469 315.027344 C 366.296875 315.027344 368.804688 315.53125 368.804688 315.53125 L 367.347656 310.546875 L 367.761719 310.445312 C 367.90625 310.421875 368.050781 310.390625 368.183594 310.371094 L 369.691406 316.410156 C 367.308594 315.90625 365.203125 315.707031 363.382812 315.707031 C 357.417969 315.707031 354.433594 317.804688 354.433594 317.804688 "/>
<path style=" stroke:none;fill-rule:nonzero;fill:rgb(71.369934%,72.549438%,59.999084%);fill-opacity:1;" d="M 367.761719 310.445312 L 368.183594 310.339844 L 368.183594 310.371094 C 368.050781 310.390625 367.90625 310.421875 367.761719 310.445312 "/>
<path style=" stroke:none;fill-rule:nonzero;fill:rgb(70.979309%,71.759033%,60.389709%);fill-opacity:1;" d="M 306.332031 316.832031 C 306.332031 316.832031 303.351562 314.738281 297.382812 314.738281 C 295.558594 314.738281 293.460938 314.933594 291.078125 315.449219 L 292.574219 309.402344 C 292.71875 309.433594 292.863281 309.453125 292.996094 309.484375 L 293.410156 309.585938 L 291.964844 314.5625 C 291.964844 314.5625 294.464844 314.066406 297.539062 314.066406 C 300.152344 314.066406 303.164062 314.429688 305.40625 315.761719 L 306.332031 316.832031 "/>
<path style=" stroke:none;fill-rule:nonzero;fill:rgb(71.369934%,72.549438%,59.999084%);fill-opacity:1;" d="M 292.996094 309.484375 C 292.863281 309.453125 292.71875 309.433594 292.574219 309.402344 L 292.585938 309.371094 L 292.996094 309.484375 "/>
<path style=" stroke:none;fill-rule:nonzero;fill:rgb(70.979309%,71.759033%,60.389709%);fill-opacity:1;" d="M 365.160156 314.222656 C 364.34375 314.222656 363.5 313.652344 363.117188 312.972656 L 362.765625 311.828125 C 363.035156 311.714844 363.300781 311.609375 363.550781 311.507812 C 364.449219 311.21875 365.347656 310.96875 366.265625 310.753906 C 366.429688 310.722656 366.523438 310.710938 366.523438 310.710938 C 366.699219 311.703125 366.964844 313.59375 365.789062 314.097656 C 365.582031 314.179688 365.375 314.222656 365.160156 314.222656 "/>
<path style=" stroke:none;fill-rule:nonzero;fill:rgb(71.369934%,72.549438%,59.999084%);fill-opacity:1;" d="M 363.550781 311.507812 C 364.820312 311.042969 365.820312 310.835938 366.265625 310.753906 C 365.347656 310.96875 364.449219 311.21875 363.550781 311.507812 "/>
<path style=" stroke:none;fill-rule:nonzero;fill:rgb(70.979309%,71.759033%,60.389709%);fill-opacity:1;" d="M 295.609375 313.261719 C 295.390625 313.261719 295.175781 313.21875 294.980469 313.128906 C 293.800781 312.632812 294.070312 310.742188 294.246094 309.75 C 294.246094 309.75 294.328125 309.761719 294.496094 309.792969 C 295.414062 310 296.320312 310.246094 297.207031 310.546875 C 297.46875 310.640625 297.726562 310.742188 298.003906 310.855469 L 297.640625 312.003906 C 297.269531 312.683594 296.425781 313.261719 295.609375 313.261719 "/>
<path style=" stroke:none;fill-rule:nonzero;fill:rgb(71.369934%,72.549438%,59.999084%);fill-opacity:1;" d="M 297.207031 310.546875 C 296.320312 310.246094 295.414062 310 294.496094 309.792969 C 294.949219 309.867188 295.9375 310.070312 297.207031 310.546875 "/>
<path style=" stroke:none;fill-rule:nonzero;fill:rgb(15.689087%,9.799194%,7.839966%);fill-opacity:1;" d="M 353.136719 320.613281 C 353.136719 320.613281 349.398438 314.953125 349.707031 307.480469 L 351.421875 306.914062 C 351.421875 306.914062 351.453125 307.449219 351.546875 308.304688 C 351.429688 308.480469 351.347656 308.65625 351.308594 308.855469 C 351.246094 309.144531 351.296875 309.441406 351.339844 309.730469 C 351.523438 310.824219 351.71875 311.890625 351.957031 312.921875 C 352.257812 314.808594 352.867188 316.441406 353.742188 318.207031 C 353.796875 318.308594 353.847656 318.421875 353.898438 318.527344 C 353.898438 318.527344 353.910156 318.527344 353.910156 318.527344 C 353.972656 318.652344 354.042969 318.785156 354.105469 318.917969 C 354.125 318.898438 354.144531 318.878906 354.167969 318.867188 C 354.394531 319.269531 354.632812 319.632812 354.898438 319.941406 L 353.136719 320.613281 "/>
<path style=" stroke:none;fill-rule:nonzero;fill:rgb(25.489807%,24.308777%,12.159729%);fill-opacity:1;" d="M 354.105469 318.917969 C 354.042969 318.785156 353.972656 318.652344 353.910156 318.527344 C 353.917969 318.496094 353.929688 318.476562 353.949219 318.453125 C 354.011719 318.597656 354.085938 318.734375 354.167969 318.867188 C 354.144531 318.878906 354.125 318.898438 354.105469 318.917969 M 353.742188 318.207031 C 352.867188 316.441406 352.257812 314.808594 351.957031 312.921875 C 352.371094 314.726562 352.90625 316.472656 353.742188 318.207031 "/>
<path style=" stroke:none;fill-rule:nonzero;fill:rgb(26.669312%,25.489807%,12.159729%);fill-opacity:1;" d="M 353.898438 318.527344 C 353.847656 318.421875 353.796875 318.308594 353.742188 318.207031 C 352.90625 316.472656 352.371094 314.726562 351.957031 312.921875 C 351.71875 311.890625 351.523438 310.824219 351.339844 309.730469 C 351.296875 309.441406 351.246094 309.144531 351.308594 308.855469 C 351.347656 308.65625 351.429688 308.480469 351.546875 308.304688 C 351.554688 308.398438 351.566406 308.492188 351.574219 308.585938 C 351.429688 308.75 351.339844 308.832031 351.308594 308.855469 L 351.421875 309.347656 C 351.492188 309.265625 351.566406 309.195312 351.628906 309.113281 C 351.9375 311.628906 352.597656 315.761719 353.949219 318.453125 C 353.929688 318.476562 353.917969 318.496094 353.910156 318.527344 C 353.910156 318.527344 353.898438 318.527344 353.898438 318.527344 "/>
<path style=" stroke:none;fill-rule:nonzero;fill:rgb(50.588989%,49.01886%,40.388489%);fill-opacity:1;" d="M 351.421875 309.347656 L 351.308594 308.855469 C 351.339844 308.832031 351.429688 308.75 351.574219 308.585938 C 351.585938 308.75 351.605469 308.925781 351.628906 309.113281 C 351.566406 309.195312 351.492188 309.265625 351.421875 309.347656 "/>
<path style=" stroke:none;fill-rule:nonzero;fill:rgb(15.689087%,9.799194%,7.839966%);fill-opacity:1;" d="M 307.582031 319.320312 L 306.417969 318.382812 C 306.4375 318.339844 306.46875 318.289062 306.488281 318.238281 C 306.59375 318.257812 306.695312 318.277344 306.796875 318.300781 L 306.746094 317.855469 L 306.757812 317.855469 L 306.746094 317.773438 C 306.789062 317.699219 306.820312 317.628906 306.859375 317.554688 C 306.859375 317.554688 306.859375 317.554688 306.859375 317.566406 C 306.910156 317.453125 306.972656 317.351562 307.023438 317.246094 C 307.902344 315.480469 308.5 313.839844 308.800781 311.960938 C 309.039062 310.917969 309.234375 309.855469 309.421875 308.761719 C 309.472656 308.472656 309.523438 308.171875 309.460938 307.882812 C 309.449219 307.84375 309.441406 307.800781 309.421875 307.75 C 309.449219 307.480469 309.449219 307.324219 309.449219 307.324219 L 311.007812 307.324219 C 310.546875 314.726562 307.582031 319.320312 307.582031 319.320312 "/>
<path style=" stroke:none;fill-rule:nonzero;fill:rgb(26.669312%,25.489807%,12.159729%);fill-opacity:1;" d="M 306.796875 318.300781 C 306.695312 318.277344 306.59375 318.257812 306.488281 318.238281 C 306.539062 318.132812 306.59375 318.042969 306.644531 317.9375 C 306.644531 317.9375 306.652344 317.949219 306.652344 317.949219 C 306.683594 317.898438 306.714844 317.835938 306.746094 317.773438 L 306.757812 317.855469 L 306.746094 317.855469 L 306.796875 318.300781 "/>
<path style=" stroke:none;fill-rule:nonzero;fill:rgb(25.489807%,24.308777%,12.159729%);fill-opacity:1;" d="M 306.652344 317.949219 C 306.652344 317.949219 306.644531 317.9375 306.644531 317.9375 C 306.707031 317.792969 306.765625 317.648438 306.839844 317.515625 C 306.839844 317.527344 306.851562 317.546875 306.859375 317.554688 C 306.820312 317.628906 306.789062 317.699219 306.746094 317.773438 C 306.714844 317.835938 306.683594 317.898438 306.652344 317.949219 M 307.023438 317.246094 C 307.851562 315.503906 308.386719 313.769531 308.800781 311.960938 C 308.5 313.839844 307.902344 315.480469 307.023438 317.246094 "/>
<path style=" stroke:none;fill-rule:nonzero;fill:rgb(26.669312%,25.489807%,12.159729%);fill-opacity:1;" d="M 306.859375 317.566406 C 306.859375 317.554688 306.859375 317.554688 306.859375 317.554688 C 306.851562 317.546875 306.839844 317.527344 306.839844 317.515625 C 308.605469 313.625 309.191406 309.9375 309.367188 308.265625 L 309.460938 307.882812 C 309.449219 307.882812 309.441406 307.871094 309.421875 307.851562 C 309.421875 307.820312 309.421875 307.78125 309.421875 307.75 C 309.441406 307.800781 309.449219 307.84375 309.460938 307.882812 C 309.523438 308.171875 309.472656 308.472656 309.421875 308.761719 C 309.234375 309.855469 309.039062 310.917969 308.800781 311.960938 C 308.386719 313.769531 307.851562 315.503906 307.023438 317.246094 C 306.972656 317.351562 306.910156 317.453125 306.859375 317.566406 "/>
<path style=" stroke:none;fill-rule:nonzero;fill:rgb(50.588989%,49.01886%,40.388489%);fill-opacity:1;" d="M 309.367188 308.265625 C 309.390625 308.109375 309.398438 307.976562 309.421875 307.851562 C 309.441406 307.871094 309.449219 307.882812 309.460938 307.882812 L 309.367188 308.265625 "/>
<path style=" stroke:none;fill-rule:nonzero;fill:rgb(20.779419%,12.548828%,9.408569%);fill-opacity:1;" d="M 356.664062 158.070312 C 356.519531 160.289062 356.355469 162.457031 356.191406 164.480469 C 356.109375 165.605469 355.992188 166.730469 355.871094 167.867188 C 356.808594 167.640625 357.707031 167.183594 358.492188 166.597656 C 359.597656 165.761719 360.496094 164.675781 361.300781 163.550781 C 362.25 162.230469 363.085938 160.761719 363.539062 159.214844 C 361.226562 160.214844 358.265625 159.894531 356.664062 158.070312 Z M 370.09375 139.980469 C 367.152344 137.289062 361.855469 137.691406 359.132812 140.601562 C 356.695312 143.203125 355.714844 146.722656 355.992188 150.285156 C 356.035156 150.820312 356.054688 151.429688 355.664062 151.800781 C 355.074219 152.351562 354.042969 151.8125 353.742188 151.070312 C 353.445312 150.316406 353.597656 149.46875 353.546875 148.664062 C 353.363281 145.917969 351 143.914062 349.273438 141.769531 C 345.972656 137.636719 344.761719 131.917969 346.105469 126.808594 C 346.550781 125.117188 347.273438 123.453125 347.242188 121.710938 C 347.210938 119.953125 346.125 118.035156 344.390625 117.839844 C 343.410156 117.726562 342.472656 118.160156 341.574219 118.5625 C 331.984375 122.8125 322.023438 121.101562 311.566406 120.234375 C 307.839844 119.921875 306.394531 119.097656 303.816406 122.710938 C 302.8125 124.113281 302.183594 125.714844 301.78125 127.417969 C 301.699219 127.800781 301.625 128.171875 301.554688 128.554688 C 301.503906 128.84375 301.441406 129.121094 301.398438 129.410156 L 301.367188 129.628906 C 301.046875 132.003906 301.027344 134.5 300.976562 136.894531 C 301.007812 137.9375 301.046875 138.980469 301.121094 140.023438 C 298.085938 138.0625 295.660156 135.152344 294.441406 131.742188 C 293.636719 129.492188 293.152344 125.726562 293.800781 122.546875 C 290.394531 118.789062 286.578125 115.257812 284.234375 110.5 C 282.210938 106.410156 281.839844 101.539062 283.203125 97.191406 C 290.28125 100.125 298.304688 99.75 305.839844 98.328125 C 311.175781 97.316406 316.417969 95.789062 321.722656 94.609375 C 323.890625 94.125 326.082031 93.691406 328.289062 93.382812 C 335.875 92.296875 344 92.679688 350.617188 96.539062 C 357.945312 100.824219 360.050781 107.753906 360.121094 115.703125 C 363.148438 116.1875 365.140625 115.070312 367.6875 117.261719 C 370.21875 119.417969 371.582031 122.917969 371.828125 126.167969 C 372.191406 130.816406 371.550781 135.5625 370.09375 139.980469 "/>
<path style=" stroke:none;fill-rule:nonzero;fill:rgb(12.939453%,11.369324%,11.369324%);fill-opacity:1;" d="M 315.632812 143.222656 C 313.269531 141.53125 309.976562 142.089844 308.296875 144.453125 C 306.613281 146.828125 307.160156 150.109375 309.535156 151.792969 C 311.898438 153.476562 315.179688 152.929688 316.871094 150.554688 C 318.554688 148.1875 317.996094 144.90625 315.632812 143.222656 M 341.222656 148.53125 C 339.820312 151.214844 336.503906 152.246094 333.832031 150.832031 C 331.148438 149.429688 330.125 146.113281 331.53125 143.441406 C 332.933594 140.765625 336.246094 139.734375 338.921875 141.136719 C 341.59375 142.542969 342.625 145.855469 341.222656 148.53125 "/>
<path style=" stroke:none;fill-rule:nonzero;fill:rgb(100%,100%,100%);fill-opacity:1;" d="M 310.460938 149.914062 C 310.679688 149.605469 310.605469 149.171875 310.308594 148.953125 C 310 148.738281 309.566406 148.808594 309.347656 149.109375 C 309.132812 149.417969 309.203125 149.851562 309.511719 150.066406 C 309.8125 150.285156 310.246094 150.210938 310.460938 149.914062 M 316.480469 146.082031 C 316.089844 145.804688 315.542969 145.898438 315.261719 146.289062 C 314.984375 146.683594 315.078125 147.238281 315.46875 147.519531 C 315.859375 147.796875 316.410156 147.703125 316.6875 147.3125 C 316.964844 146.910156 316.882812 146.363281 316.480469 146.082031 M 334.523438 148.757812 C 334.710938 148.417969 334.574219 147.984375 334.222656 147.796875 C 333.882812 147.621094 333.449219 147.746094 333.265625 148.097656 C 333.078125 148.449219 333.210938 148.882812 333.5625 149.054688 C 333.914062 149.242188 334.339844 149.109375 334.523438 148.757812 M 340.582031 145.214844 C 340.34375 145.660156 339.796875 145.835938 339.355469 145.597656 C 338.910156 145.359375 338.734375 144.804688 338.972656 144.359375 C 339.199219 143.914062 339.757812 143.75 340.199219 143.976562 C 340.644531 144.214844 340.820312 144.761719 340.582031 145.214844 "/>
<path style=" stroke:none;fill-rule:nonzero;fill:rgb(22.749329%,21.179199%,21.958923%);fill-opacity:1;" d="M 317.554688 148.808594 C 317.007812 148.738281 316.46875 148.539062 315.945312 148.355469 L 315.46875 148.128906 L 315.085938 147.746094 C 314.519531 147.148438 313.695312 146.796875 312.867188 146.796875 C 312.804688 146.796875 312.753906 146.796875 312.691406 146.796875 C 311.527344 146.917969 311.113281 147.445312 310.421875 148.332031 L 310.257812 148.488281 L 310.027344 148.53125 C 309.976562 148.53125 309.925781 148.53125 309.875 148.53125 C 309.253906 148.53125 308.644531 148.46875 308.035156 148.34375 L 307.664062 148.199219 C 307.480469 148.042969 307.457031 147.765625 307.480469 147.527344 C 307.5 147.003906 307.613281 146.496094 307.800781 146 C 308.296875 144.691406 309.316406 143.5625 310.585938 142.957031 C 311.164062 142.6875 311.785156 142.5625 312.425781 142.5625 C 313.796875 142.5625 315.222656 143.140625 316.148438 144.101562 C 317.335938 145.320312 317.882812 147.125 317.554688 148.808594 M 315.976562 145.917969 C 315.695312 145.917969 315.425781 146.050781 315.261719 146.289062 C 314.984375 146.683594 315.078125 147.238281 315.46875 147.519531 C 315.625 147.621094 315.800781 147.671875 315.976562 147.671875 C 316.253906 147.671875 316.523438 147.550781 316.6875 147.3125 C 316.964844 146.910156 316.882812 146.363281 316.480469 146.082031 C 316.324219 145.980469 316.148438 145.917969 315.976562 145.917969 M 332.429688 147.507812 C 332.222656 147.507812 332.015625 147.507812 331.808594 147.488281 L 331.40625 147.394531 C 331.191406 147.261719 331.128906 146.972656 331.105469 146.722656 C 331.066406 146.175781 331.105469 145.640625 331.230469 145.113281 C 331.5625 143.679688 332.460938 142.378906 333.6875 141.570312 C 334.429688 141.085938 335.328125 140.859375 336.238281 140.859375 C 337.433594 140.859375 338.664062 141.261719 339.582031 141.972656 C 340.976562 143.058594 341.789062 144.863281 341.6875 146.628906 C 341.675781 146.628906 341.667969 146.628906 341.65625 146.628906 C 341.089844 146.628906 340.511719 146.507812 339.964844 146.394531 L 339.4375 146.226562 L 338.992188 145.886719 C 338.425781 145.433594 337.703125 145.183594 336.980469 145.183594 C 336.785156 145.183594 336.589844 145.207031 336.390625 145.246094 C 335.203125 145.527344 334.855469 146.136719 334.265625 147.136719 L 334.121094 147.320312 L 333.894531 147.40625 C 333.410156 147.464844 332.925781 147.507812 332.429688 147.507812 M 339.777344 143.875 C 339.449219 143.875 339.128906 144.050781 338.972656 144.359375 C 338.734375 144.804688 338.910156 145.359375 339.355469 145.597656 C 339.488281 145.671875 339.632812 145.703125 339.777344 145.703125 C 340.097656 145.703125 340.417969 145.527344 340.582031 145.214844 C 340.820312 144.761719 340.644531 144.214844 340.199219 143.976562 C 340.066406 143.90625 339.921875 143.875 339.777344 143.875 "/>
<path style=" stroke:none;fill-rule:nonzero;fill:rgb(99.21875%,99.21875%,99.609375%);fill-opacity:1;" d="M 315.976562 147.671875 C 315.800781 147.671875 315.625 147.621094 315.46875 147.519531 C 315.078125 147.238281 314.984375 146.683594 315.261719 146.289062 C 315.425781 146.050781 315.695312 145.917969 315.976562 145.917969 C 316.148438 145.917969 316.324219 145.980469 316.480469 146.082031 C 316.882812 146.363281 316.964844 146.910156 316.6875 147.3125 C 316.523438 147.550781 316.253906 147.671875 315.976562 147.671875 M 339.777344 145.703125 C 339.632812 145.703125 339.488281 145.671875 339.355469 145.597656 C 338.910156 145.359375 338.734375 144.804688 338.972656 144.359375 C 339.128906 144.050781 339.449219 143.875 339.777344 143.875 C 339.921875 143.875 340.066406 143.90625 340.199219 143.976562 C 340.644531 144.214844 340.820312 144.761719 340.582031 145.214844 C 340.417969 145.527344 340.097656 145.703125 339.777344 145.703125 "/>
<path style=" stroke:none;fill-rule:nonzero;fill:rgb(6.269836%,5.879211%,5.099487%);fill-opacity:1;" d="M 314.148438 145.296875 C 312.929688 144.429688 311.246094 144.710938 310.371094 145.9375 C 309.511719 147.15625 309.792969 148.851562 311.007812 149.71875 C 312.226562 150.585938 313.921875 150.296875 314.789062 149.078125 C 315.65625 147.859375 315.367188 146.164062 314.148438 145.296875 Z M 338.871094 147.300781 C 338.148438 148.675781 336.445312 149.210938 335.0625 148.476562 C 333.6875 147.753906 333.152344 146.050781 333.882812 144.679688 C 334.605469 143.296875 336.308594 142.769531 337.683594 143.492188 C 339.066406 144.214844 339.59375 145.917969 338.871094 147.300781 "/>
</g>
</svg>
