<?xml version="1.0" encoding="UTF-8"?>
<svg xmlns="http://www.w3.org/2000/svg" xmlns:xlink="http://www.w3.org/1999/xlink" width="1012.5pt" height="487.499991pt" viewBox="0 0 1012.5 487.499991" version="1.2">
<defs>
<clipPath id="clip1">
  <path d="M 0.269531 0 L 1011.730469 0 L 1011.730469 487 L 0.269531 487 Z M 0.269531 0 "/>
</clipPath>
<clipPath id="clip2">
  <path d="M 0.269531 0 L 1011.730469 0 L 1011.730469 101 L 0.269531 101 Z M 0.269531 0 "/>
</clipPath>
<clipPath id="clip3">
  <path d="M 0.269531 384 L 1011.730469 384 L 1011.730469 487 L 0.269531 487 Z M 0.269531 384 "/>
</clipPath>
</defs>
<g id="surface1">
<g clip-path="url(#clip1)" clip-rule="nonzero">
<path style=" stroke:none;fill-rule:nonzero;fill:rgb(100%,100%,100%);fill-opacity:1;" d="M 0.269531 0 L 1012.230469 0 L 1012.230469 493.988281 L 0.269531 493.988281 Z M 0.269531 0 "/>
<path style=" stroke:none;fill-rule:nonzero;fill:rgb(100%,100%,100%);fill-opacity:1;" d="M 0.269531 0 L 1012.230469 0 L 1012.230469 487.242188 L 0.269531 487.242188 Z M 0.269531 0 "/>
<path style=" stroke:none;fill-rule:nonzero;fill:rgb(93.728638%,93.728638%,93.728638%);fill-opacity:1;" d="M 0.269531 0 L 1012.230469 0 L 1012.230469 487.242188 L 0.269531 487.242188 Z M 0.269531 0 "/>
<path style=" stroke:none;fill-rule:nonzero;fill:rgb(0%,28.999329%,67.799377%);fill-opacity:1;" d="M 1011.730469 0 L 1011.730469 487 L 0.269531 487 L 0.269531 0 Z M 1011.730469 0 "/>
</g>
<g clip-path="url(#clip2)" clip-rule="nonzero">
<path style=" stroke:none;fill-rule:nonzero;fill:rgb(100%,100%,100%);fill-opacity:1;" d="M 225.511719 51.296875 C 277.859375 41.492188 328.546875 23.914062 380.75 13.25 C 455.113281 -1.945312 532.550781 -2.863281 606.796875 12.898438 C 678.945312 28.175781 753.761719 65.441406 825.054688 84.375 C 888.277344 101.171875 957.304688 108.085938 1018.507812 87.101562 L 1018.507812 0 L -64.5625 0 L -64.5625 24.859375 C -53.070312 29.246094 -41.441406 33.238281 -29.675781 36.828125 C -17.914062 40.421875 -6.042969 43.605469 5.933594 46.382812 C 17.910156 49.160156 29.96875 51.527344 42.109375 53.476562 C 54.246094 55.429688 66.4375 56.960938 78.675781 58.078125 C 90.917969 59.195312 103.183594 59.890625 115.472656 60.164062 C 127.761719 60.441406 140.042969 60.292969 152.324219 59.726562 C 164.601562 59.160156 176.847656 58.171875 189.058594 56.765625 C 201.273438 55.359375 213.421875 53.539062 225.511719 51.296875 Z M 225.511719 51.296875 "/>
</g>
<g clip-path="url(#clip3)" clip-rule="nonzero">
<path style=" stroke:none;fill-rule:nonzero;fill:rgb(100%,100%,100%);fill-opacity:1;" d="M 232.714844 434.625 C 286.640625 444.683594 338.851562 462.710938 392.625 473.648438 C 469.226562 489.234375 548.992188 490.175781 625.472656 474.011719 C 699.792969 458.339844 776.855469 420.117188 850.292969 400.699219 C 915.421875 383.472656 986.523438 376.378906 1049.570312 397.902344 L 1049.570312 487.238281 L -66.085938 487.238281 L -66.085938 461.742188 C -54.246094 457.242188 -42.265625 453.148438 -30.152344 449.464844 C -18.035156 445.78125 -5.804688 442.515625 6.53125 439.664062 C 18.871094 436.816406 31.292969 434.390625 43.792969 432.390625 C 56.296875 430.386719 68.855469 428.816406 81.464844 427.671875 C 94.074219 426.527344 106.707031 425.8125 119.367188 425.53125 C 132.023438 425.25 144.679688 425.398438 157.324219 425.980469 C 169.972656 426.5625 182.589844 427.574219 195.167969 429.015625 C 207.746094 430.457031 220.261719 432.328125 232.714844 434.625 Z M 232.714844 434.625 "/>
</g>
</g>
</svg>
