<?xml version="1.0" encoding="UTF-8"?>
<svg xmlns="http://www.w3.org/2000/svg" xmlns:xlink="http://www.w3.org/1999/xlink" width="708.75pt" height="567.000005pt" viewBox="0 0 708.75 567.000005" version="1.2">
<defs>
<clipPath id="clip1">
  <path d="M 250.472656 292.332031 L 481.683594 292.332031 L 481.683594 414.824219 L 250.472656 414.824219 Z M 250.472656 292.332031 "/>
</clipPath>
<clipPath id="clip2">
  <path d="M 194.839844 220 L 241 220 L 241 263 L 194.839844 263 Z M 194.839844 220 "/>
</clipPath>
</defs>
<g id="surface1">
<g clip-path="url(#clip1)" clip-rule="nonzero">
<path style=" stroke:none;fill-rule:nonzero;fill:rgb(78.819275%,71.759033%,68.629456%);fill-opacity:1;" d="M 413.835938 292.40625 L 413.835938 312.582031 L 381.359375 312.582031 L 381.359375 332.761719 L 348.890625 332.761719 L 348.890625 352.9375 L 316.414062 352.9375 L 316.414062 373.117188 L 283.941406 373.117188 L 283.941406 393.292969 L 251.46875 393.292969 L 250.777344 414.855469 L 481.90625 414.613281 L 481.90625 292.40625 L 413.835938 292.40625 "/>
</g>
<g clip-path="url(#clip2)" clip-rule="nonzero">
<path style=" stroke:none;fill-rule:nonzero;fill:rgb(21.179199%,43.528748%,53.329468%);fill-opacity:1;" d="M 237.472656 220.152344 C 237.472656 220.152344 218.207031 223.351562 211.269531 232.660156 C 204.335938 241.972656 202.175781 246.914062 199.976562 250.554688 C 197.78125 254.199219 194.972656 256.882812 194.972656 256.882812 C 194.972656 256.882812 195.621094 259.136719 199.953125 259.003906 C 204.285156 258.867188 204.285156 258.867188 204.285156 258.867188 C 204.285156 258.867188 202.324219 260.878906 204.664062 261.78125 C 207.003906 262.683594 210.179688 262.585938 210.179688 262.585938 C 210.179688 262.585938 213.058594 243.652344 217.207031 237.675781 C 221.355469 231.699219 234.675781 223.164062 236.410156 223.109375 C 238.140625 223.058594 240.171875 223.320312 240.171875 223.320312 C 240.171875 223.320312 242.671875 219.992188 237.472656 220.152344 "/>
</g>
<path style=" stroke:none;fill-rule:nonzero;fill:rgb(22.349548%,49.409485%,56.858826%);fill-opacity:1;" d="M 226.703125 223.613281 C 226.703125 223.613281 215.84375 227.734375 211.878906 236.832031 C 207.914062 245.929688 204.984375 257.773438 204.984375 257.773438 L 200.328125 257.945312 C 200.328125 257.945312 207.742188 241.121094 211.359375 235.457031 C 214.980469 229.792969 226.703125 223.613281 226.703125 223.613281 "/>
<path style=" stroke:none;fill-rule:nonzero;fill:rgb(24.708557%,11.759949%,10.978699%);fill-opacity:1;" d="M 239.007812 298.015625 L 239.191406 299.332031 L 238.332031 299.164062 L 238.097656 297.941406 L 239.007812 298.015625 "/>
<path style=" stroke:none;fill-rule:nonzero;fill:rgb(24.708557%,11.759949%,10.978699%);fill-opacity:1;" d="M 224.902344 294.855469 L 224.15625 295.960938 L 225.003906 296.179688 L 225.753906 295.1875 L 224.902344 294.855469 "/>
<path style=" stroke:none;fill-rule:nonzero;fill:rgb(29.40979%,30.589294%,34.118652%);fill-opacity:1;" d="M 248.980469 332.730469 C 248.644531 334.183594 247.113281 335.066406 245.5625 334.710938 L 204.167969 325.191406 C 202.617188 324.835938 201.632812 323.371094 201.96875 321.921875 L 208.179688 295.136719 C 208.515625 293.691406 210.046875 292.804688 211.597656 293.160156 L 252.988281 302.679688 C 254.542969 303.035156 255.527344 304.5 255.191406 305.949219 L 248.980469 332.730469 "/>
<path style=" stroke:none;fill-rule:nonzero;fill:rgb(1.959229%,1.179504%,0.389099%);fill-opacity:1;" d="M 248.167969 331.984375 C 247.84375 333.378906 246.375 334.226562 244.886719 333.886719 L 205.140625 324.742188 C 203.652344 324.402344 202.707031 322.996094 203.03125 321.601562 L 208.992188 295.886719 C 209.316406 294.496094 210.785156 293.644531 212.273438 293.988281 L 252.019531 303.125 C 253.507812 303.472656 254.453125 304.875 254.128906 306.269531 L 248.167969 331.984375 "/>
<path style=" stroke:none;fill-rule:nonzero;fill:rgb(1.959229%,1.179504%,0.389099%);fill-opacity:1;" d="M 239.492188 292.542969 C 239.492188 292.542969 236.003906 291.191406 233.316406 290.570312 C 230.628906 289.953125 226.898438 289.644531 226.898438 289.644531 L 224.53125 294.972656 L 225.96875 295.753906 C 225.96875 295.753906 228.179688 292.5 229.078125 292.101562 C 229.40625 291.960938 232.457031 293.015625 232.714844 293.074219 C 232.96875 293.132812 236.21875 293.527344 236.449219 293.796875 C 237.085938 294.546875 237.636719 298.4375 237.636719 298.4375 L 239.273438 298.363281 L 239.492188 292.542969 "/>
<path style=" stroke:none;fill-rule:nonzero;fill:rgb(90.979004%,58.81958%,26.269531%);fill-opacity:1;" d="M 225.753906 296.425781 L 222.375 295.648438 L 222.453125 295.304688 L 225.832031 296.082031 L 225.753906 296.425781 "/>
<path style=" stroke:none;fill-rule:nonzero;fill:rgb(90.979004%,58.81958%,26.269531%);fill-opacity:1;" d="M 240.914062 299.910156 L 237.535156 299.132812 L 237.617188 298.789062 L 240.992188 299.566406 L 240.914062 299.910156 "/>
<path style=" stroke:none;fill-rule:nonzero;fill:rgb(63.529968%,40.388489%,28.62854%);fill-opacity:1;" d="M 236.074219 207.753906 C 236.074219 207.753906 238.769531 215.316406 238.769531 218.730469 C 238.769531 222.144531 236.8125 224.828125 236.8125 224.828125 L 245.140625 238.976562 L 253.46875 238.976562 C 253.46875 238.976562 246.855469 227.511719 246.855469 223.121094 C 246.855469 218.730469 250.28125 210.683594 250.28125 210.683594 L 236.074219 207.753906 "/>
<path style=" stroke:none;fill-rule:nonzero;fill:rgb(50.979614%,28.62854%,19.60907%);fill-opacity:1;" d="M 250.28125 210.683594 L 239.644531 208.488281 C 238.425781 208.851562 237.488281 209.574219 237.085938 210.832031 C 237.375 211.773438 237.683594 212.839844 237.960938 213.917969 C 239.273438 215.308594 241.722656 217.390625 244.976562 217.949219 C 245.957031 218.117188 246.839844 218.265625 247.621094 218.394531 C 248.632812 214.554688 250.28125 210.683594 250.28125 210.683594 "/>
<path style=" stroke:none;fill-rule:nonzero;fill:rgb(1.959229%,1.179504%,0.389099%);fill-opacity:1;" d="M 239.917969 310.964844 L 240.664062 349.4375 C 240.664062 349.4375 233.5625 356.246094 232.132812 365.546875 C 230.605469 375.492188 227.566406 392.847656 224.453125 395.429688 C 221.335938 398.011719 219.636719 398.34375 220.035156 401.460938 C 220.433594 404.578125 218.996094 410.558594 218.996094 410.558594 L 220.277344 410.839844 C 220.277344 410.839844 221.078125 404.875 222.039062 405.164062 C 223 405.453125 225.636719 409.140625 226.3125 410.6875 C 226.988281 412.234375 240.996094 412.820312 240.996094 412.820312 L 240.964844 411.566406 C 240.964844 411.566406 232.589844 407.402344 231.621094 406.800781 C 230.652344 406.199219 229.164062 397.792969 235.210938 385.4375 C 241.257812 373.089844 256.453125 349.925781 256.683594 346.476562 C 256.910156 343.03125 261.636719 304.398438 261.636719 304.398438 L 239.917969 310.964844 "/>
<path style=" stroke:none;fill-rule:nonzero;fill:rgb(1.959229%,1.179504%,0.389099%);fill-opacity:1;" d="M 252.058594 305.15625 L 273.621094 333.25 C 273.621094 333.25 269.070312 340.929688 267.71875 351.222656 C 266.402344 361.210938 264.117188 376.214844 261.226562 379.09375 C 258.335938 381.972656 255.886719 381.757812 256.550781 384.820312 C 257.21875 387.886719 256.296875 393.980469 256.296875 393.980469 L 257.601562 394.132812 C 257.601562 394.132812 257.886719 388.117188 258.871094 388.308594 C 259.859375 388.5 262.8125 391.90625 263.621094 393.378906 C 264.429688 394.855469 278.476562 394.046875 278.476562 394.046875 L 278.339844 392.804688 C 278.339844 392.804688 269.609375 389.488281 268.589844 388.984375 C 267.570312 388.484375 265.285156 379.917969 271.445312 367.511719 C 277.757812 354.796875 289.683594 328.136719 289.613281 324.683594 C 289.546875 321.230469 262.035156 290.980469 262.035156 290.980469 L 252.058594 305.15625 "/>
<path style=" stroke:none;fill-rule:nonzero;fill:rgb(9.408569%,10.978699%,23.139954%);fill-opacity:1;" d="M 232.488281 272.832031 C 232.488281 272.832031 225.203125 290.574219 226.703125 295.539062 C 228.199219 300.503906 237.898438 320.472656 237.898438 320.472656 L 237.726562 334.820312 L 242.117188 335.050781 L 242.160156 323.136719 L 247.925781 336.273438 C 247.925781 336.273438 262.714844 333.988281 273.457031 325.082031 C 284.199219 316.171875 284.621094 311.332031 284.621094 311.332031 L 260.246094 280.699219 L 254.96875 269.425781 L 232.488281 272.832031 "/>
<path style=" stroke:none;fill-rule:nonzero;fill:rgb(7.058716%,7.449341%,16.079712%);fill-opacity:1;" d="M 257.730469 277.171875 L 234.460938 273.394531 C 234.460938 273.394531 233.183594 273.980469 231.652344 274.957031 C 230.851562 277.027344 229.625 280.363281 228.566406 283.808594 C 230.410156 284.101562 234.347656 284.433594 241.527344 283.867188 C 252.386719 283.007812 259.109375 279.402344 259.109375 279.402344 L 257.730469 277.171875 "/>
<path style=" stroke:none;fill-rule:nonzero;fill:rgb(9.408569%,10.978699%,23.139954%);fill-opacity:1;" d="M 247.214844 220.867188 C 247.214844 220.867188 249.109375 221.554688 250.664062 224.128906 C 252.214844 226.703125 255.316406 229.964844 255.316406 229.964844 L 252.386719 230.652344 L 255.144531 233.054688 L 252.730469 242.496094 C 252.730469 242.496094 250.835938 223.097656 247.214844 220.867188 "/>
<path style=" stroke:none;fill-rule:nonzero;fill:rgb(9.408569%,10.978699%,23.139954%);fill-opacity:1;" d="M 230.320312 224.816406 L 237.734375 220.695312 L 238.941406 218.980469 L 248.9375 223.871094 C 248.9375 223.871094 261.003906 243.523438 260.832031 247.132812 C 260.722656 249.472656 256.523438 253.480469 256.523438 253.480469 L 253.765625 267.042969 L 260.144531 278.371094 C 260.144531 278.371094 253.851562 282.070312 242.734375 282.320312 C 231.613281 282.574219 227.21875 281.460938 227.21875 281.460938 L 233.425781 269.441406 L 224.632812 242.839844 C 224.632812 242.839844 222.566406 233.570312 230.320312 224.816406 "/>
<path style=" stroke:none;fill-rule:nonzero;fill:rgb(98.039246%,71.369934%,22.349548%);fill-opacity:1;" d="M 240.40625 222.753906 C 240.40625 222.753906 244.542969 226.617188 247.902344 233.828125 C 251.265625 241.039062 251.523438 245.15625 251.523438 245.15625 C 251.523438 245.15625 251.265625 239.234375 250.75 233.3125 C 250.230469 227.390625 249.195312 224.300781 249.195312 224.300781 L 240.40625 222.753906 "/>
<path style=" stroke:none;fill-rule:nonzero;fill:rgb(24.708557%,11.759949%,10.978699%);fill-opacity:1;" d="M 234.480469 201.386719 C 234.480469 201.386719 232.566406 204.902344 234.507812 206.207031 C 236.453125 207.511719 236.910156 206.902344 236.910156 206.902344 C 236.910156 206.902344 234.539062 211.027344 237.917969 211.988281 C 241.300781 212.949219 242.890625 209.8125 242.890625 209.8125 C 242.890625 209.8125 244.535156 211.730469 245.960938 210.378906 C 247.386719 209.023438 246.953125 208.464844 246.953125 208.464844 C 246.953125 208.464844 250.621094 214.179688 255.320312 211.0625 C 260.023438 207.945312 256.058594 202.847656 256.058594 202.847656 C 256.058594 202.847656 258.832031 204.023438 259.136719 201.621094 C 259.4375 199.222656 258.257812 199.496094 258.257812 199.496094 C 258.257812 199.496094 262.472656 198.539062 262.136719 196.121094 C 261.804688 193.699219 258.929688 192.988281 258.929688 192.988281 C 258.929688 192.988281 260.066406 193.257812 260.214844 192.253906 C 260.363281 191.246094 258.851562 190.5 258.851562 190.5 C 258.851562 190.5 260.207031 189.453125 258.933594 188.015625 C 257.660156 186.574219 255.386719 187.4375 255.386719 187.4375 C 255.386719 187.4375 256.570312 185.375 254.71875 184.382812 C 252.863281 183.390625 249.433594 184.761719 249.433594 184.761719 L 242.039062 187.402344 L 223.910156 192.96875 C 223.910156 192.96875 227.464844 204.117188 234.480469 201.386719 "/>
<path style=" stroke:none;fill-rule:nonzero;fill:rgb(24.708557%,11.759949%,10.978699%);fill-opacity:1;" d="M 232.566406 188.675781 C 232.566406 188.675781 230.605469 185.015625 227.910156 185.746094 C 225.21875 186.476562 225.460938 187.210938 225.460938 187.210938 C 225.460938 187.210938 223.257812 182.820312 219.828125 184.894531 C 216.398438 186.964844 218.234375 190.136719 218.234375 190.136719 C 218.234375 190.136719 215.175781 190.261719 215.417969 192.210938 C 215.664062 194.164062 216.519531 194.164062 216.519531 194.164062 C 216.519531 194.164062 208.316406 193.550781 207.824219 199.164062 C 207.335938 204.773438 215.175781 204.773438 215.175781 204.773438 C 215.175781 204.773438 211.988281 206.238281 214.070312 207.945312 C 216.152344 209.652344 216.765625 208.554688 216.765625 208.554688 C 216.765625 208.554688 214.5625 212.457031 217.132812 213.675781 C 219.707031 214.894531 222.523438 213.066406 222.523438 213.066406 C 222.523438 213.066406 221.421875 213.796875 222.277344 214.53125 C 223.132812 215.261719 224.972656 214.53125 224.972656 214.53125 C 224.972656 214.53125 224.972656 216.238281 227.300781 216.117188 C 229.625 215.992188 230.484375 213.675781 230.484375 213.675781 C 230.484375 213.675781 231.585938 215.871094 233.914062 215.019531 C 236.238281 214.164062 237.464844 210.628906 237.464844 210.628906 L 240.402344 203.1875 L 248.488281 185.503906 C 248.488281 185.503906 235.136719 181.480469 232.566406 188.675781 "/>
<path style=" stroke:none;fill-rule:nonzero;fill:rgb(63.529968%,40.388489%,28.62854%);fill-opacity:1;" d="M 233.628906 201.65625 C 233.628906 201.65625 230.199219 199.703125 231.175781 204.582031 C 232.15625 209.460938 233.628906 209.707031 234.605469 209.707031 C 235.585938 209.707031 235.585938 209.707031 235.585938 209.707031 C 235.585938 209.707031 239.261719 215.5625 244.652344 216.050781 C 250.039062 216.535156 257.386719 213.851562 257.875 208.976562 C 258.367188 204.09375 256.652344 190.191406 251.753906 185.3125 C 246.855469 180.433594 231.421875 186.535156 233.628906 201.65625 "/>
<path style=" stroke:none;fill-rule:nonzero;fill:rgb(100%,100%,100%);fill-opacity:1;" d="M 240.128906 196.390625 C 240.128906 196.390625 242.699219 198.21875 243.921875 197.488281 C 245.148438 196.753906 245.761719 195.171875 245.761719 195.171875 C 245.761719 195.171875 245.148438 190.292969 242.453125 190.535156 C 239.757812 190.777344 240.003906 195.65625 240.128906 196.390625 "/>
<path style=" stroke:none;fill-rule:nonzero;fill:rgb(1.959229%,1.179504%,0.389099%);fill-opacity:1;" d="M 245.539062 194.621094 C 245.539062 195.167969 245.226562 195.613281 244.84375 195.613281 C 244.457031 195.613281 244.144531 195.167969 244.144531 194.621094 C 244.144531 194.074219 244.457031 193.628906 244.84375 193.628906 C 245.226562 193.628906 245.539062 194.074219 245.539062 194.621094 "/>
<path style=" stroke:none;fill-rule:nonzero;fill:rgb(100%,100%,100%);fill-opacity:1;" d="M 249.664062 192.714844 C 249.664062 192.714844 251.992188 194.300781 253.070312 193.621094 C 254.152344 192.945312 254.667969 191.515625 254.667969 191.515625 C 254.667969 191.515625 254.023438 187.175781 251.625 187.449219 C 249.222656 187.71875 249.539062 192.066406 249.664062 192.714844 "/>
<path style=" stroke:none;fill-rule:nonzero;fill:rgb(1.959229%,1.179504%,0.389099%);fill-opacity:1;" d="M 254.070312 190.515625 C 254.082031 191 253.8125 191.402344 253.46875 191.410156 C 253.125 191.417969 252.839844 191.03125 252.824219 190.542969 C 252.816406 190.054688 253.085938 189.652344 253.429688 189.644531 C 253.769531 189.636719 254.058594 190.027344 254.070312 190.515625 "/>
<path style=" stroke:none;fill-rule:nonzero;fill:rgb(24.708557%,11.759949%,10.978699%);fill-opacity:1;" d="M 243.113281 204.601562 C 243.988281 207.039062 247.398438 207.792969 250.34375 207.511719 C 251.660156 207.386719 252.925781 207.03125 253.980469 206.40625 C 255.382812 205.574219 255.894531 204.132812 256.226562 202.859375 C 256.261719 202.722656 255.527344 202.816406 255.488281 202.960938 C 254.867188 205.347656 253.425781 207.15625 249.972656 207.324219 C 247.339844 207.449219 244.609375 206.527344 243.863281 204.445312 C 243.8125 204.308594 243.066406 204.46875 243.113281 204.601562 "/>
<path style=" stroke:none;fill-rule:nonzero;fill:rgb(50.979614%,28.62854%,19.60907%);fill-opacity:1;" d="M 246.363281 186.777344 L 249.304688 195.558594 C 249.304688 195.558594 252.488281 192.386719 253.46875 195.804688 C 254.449219 199.21875 251.015625 200.4375 251.015625 200.4375 C 251.015625 200.4375 253.46875 198.363281 252.734375 196.289062 C 252 194.214844 249.183594 196.65625 249.183594 196.65625 L 246.363281 186.777344 "/>
<path style=" stroke:none;fill-rule:nonzero;fill:rgb(50.979614%,28.62854%,19.60907%);fill-opacity:1;" d="M 234.238281 203.121094 C 234.238281 203.121094 232.894531 202.023438 232.523438 203.363281 C 232.15625 204.703125 233.136719 207.265625 233.136719 207.265625 C 233.136719 207.265625 232.769531 204.460938 233.261719 203.851562 C 233.75 203.242188 234.730469 204.09375 234.730469 204.09375 C 234.730469 204.09375 235.34375 203.484375 234.238281 203.121094 "/>
<path style=" stroke:none;fill-rule:nonzero;fill:rgb(50.979614%,28.62854%,19.60907%);fill-opacity:1;" d="M 234.851562 205.4375 C 234.851562 205.4375 233.75 205.925781 234.359375 206.292969 C 234.976562 206.65625 234.605469 207.265625 234.605469 207.265625 C 234.605469 207.265625 234.484375 207.753906 234.851562 207.753906 C 235.21875 207.753906 235.710938 206.167969 234.851562 205.4375 "/>
<path style=" stroke:none;fill-rule:nonzero;fill:rgb(24.708557%,11.759949%,10.978699%);fill-opacity:1;" d="M 232.601562 182.753906 C 232.601562 182.753906 231.253906 184.21875 232.738281 185.558594 C 234.222656 186.898438 235.167969 186.167969 235.167969 186.167969 C 235.167969 186.167969 234.492188 187.875 237.195312 188.972656 C 239.894531 190.070312 242.730469 187.875 242.730469 187.875 C 242.730469 187.875 243.945312 188.730469 245.566406 187.753906 C 247.1875 186.777344 247.1875 186.167969 247.1875 186.167969 C 247.1875 186.167969 249.484375 186.167969 249.621094 185.4375 C 249.753906 184.703125 249.753906 184.703125 249.753906 184.703125 C 249.753906 184.703125 253.402344 183.972656 252.726562 181.410156 C 252.050781 178.851562 247.996094 177.507812 247.996094 177.507812 C 247.996094 177.507812 248.675781 175.679688 247.050781 175.191406 C 245.429688 174.703125 244.757812 175.800781 244.757812 175.800781 C 244.757812 175.800781 244.082031 174.09375 242.324219 174.214844 C 240.570312 174.335938 239.894531 176.410156 239.894531 176.410156 C 239.894531 176.410156 237.734375 172.628906 234.359375 174.824219 C 230.980469 177.019531 233.144531 179.460938 233.144531 179.460938 C 233.144531 179.460938 230.441406 179.824219 232.601562 182.753906 "/>
<path style=" stroke:none;fill-rule:nonzero;fill:rgb(98.039246%,71.369934%,22.349548%);fill-opacity:1;" d="M 234.542969 208.414062 L 235.039062 209.417969 L 236.144531 209.574219 L 235.34375 210.355469 L 235.535156 211.453125 L 234.542969 210.933594 L 233.550781 211.453125 L 233.738281 210.355469 L 232.9375 209.574219 L 234.046875 209.417969 L 234.542969 208.414062 "/>
<path style=" stroke:none;fill-rule:nonzero;fill:rgb(1.959229%,1.179504%,0.389099%);fill-opacity:1;" d="M 240.0625 194.605469 C 240.0625 194.605469 240.0625 191.257812 241.355469 190.828125 C 242.648438 190.398438 243.59375 190.398438 243.59375 190.398438 L 244.886719 189.710938 L 244.027344 190.742188 L 245.578125 190.398438 L 244.457031 191.082031 C 244.457031 191.082031 241.09375 190.398438 240.0625 194.605469 "/>
<path style=" stroke:none;fill-rule:nonzero;fill:rgb(1.959229%,1.179504%,0.389099%);fill-opacity:1;" d="M 249.457031 191.257812 C 249.457031 191.257812 249.457031 187.96875 250.605469 187.546875 C 251.757812 187.125 252.601562 187.125 252.601562 187.125 L 253.753906 186.449219 L 252.988281 187.460938 L 254.367188 187.125 L 253.371094 187.800781 C 253.371094 187.800781 250.375 187.125 249.457031 191.257812 "/>
<path style=" stroke:none;fill-rule:nonzero;fill:rgb(63.529968%,40.388489%,28.62854%);fill-opacity:1;" d="M 292.441406 232.605469 C 292.996094 231.726562 292.613281 230.8125 292.714844 229.859375 C 292.792969 229.140625 293.421875 228.367188 293.597656 227.667969 C 293.890625 226.488281 293.886719 226.242188 293.800781 224.621094 C 293.734375 223.398438 293.476562 222.046875 294.445312 222.113281 C 296.386719 222.242188 296.21875 223.289062 296.0625 225.203125 C 295.988281 226.085938 296.230469 227.261719 296.773438 227.453125 C 297.679688 227.777344 299.257812 226.515625 300.152344 225.84375 C 301.652344 224.726562 302.886719 223.460938 304.273438 222.242188 C 305.953125 220.761719 307.121094 222.183594 306.164062 223.453125 C 304.742188 225.332031 303.355469 226.671875 301.363281 228.035156 C 301.363281 228.035156 301.039062 228.550781 301.429688 228.550781 C 301.816406 228.550781 306.269531 225.164062 308.761719 223.34375 C 310.0625 222.394531 311.632812 224.320312 310.324219 225.273438 C 307.75 227.15625 305.460938 229.027344 302.851562 230.867188 C 302.953125 231.066406 302.757812 230.988281 302.851562 231.1875 C 305.144531 230.316406 307.46875 229.304688 309.183594 227.519531 C 310.285156 226.375 311.589844 227.84375 310.476562 229 C 308.308594 231.257812 306.269531 232.292969 303.496094 233.441406 C 303.496094 233.488281 303.5625 233.71875 303.5625 233.761719 C 305.03125 233.984375 306.933594 232.402344 308.472656 231.960938 C 309.925781 231.542969 309.960938 233.183594 308.667969 233.890625 C 306.347656 235.164062 306.082031 235.5 302.148438 236.175781 C 299.296875 237.238281 297.230469 237.0625 294.878906 237.457031 C 292.136719 237.914062 282.75 246.363281 282.75 246.363281 L 276.28125 238.269531 C 277.421875 238.710938 288.496094 234.714844 289.664062 234.214844 C 290.472656 233.867188 291.890625 233.480469 292.441406 232.605469 "/>
<path style=" stroke:none;fill-rule:nonzero;fill:rgb(7.058716%,7.449341%,16.079712%);fill-opacity:1;" d="M 260.832031 247.132812 C 260.886719 246.035156 260.210938 244.171875 259.246094 242.117188 C 251.496094 236.582031 241.21875 230.171875 236.636719 231.410156 C 236.636719 231.410156 230.464844 236.851562 231.730469 243.242188 C 232.464844 246.953125 245.199219 252.890625 255.765625 257.21875 L 256.523438 253.480469 C 256.523438 253.480469 260.722656 249.472656 260.832031 247.132812 "/>
<path style=" stroke:none;fill-rule:nonzero;fill:rgb(98.039246%,71.369934%,22.349548%);fill-opacity:1;" d="M 250.316406 248.847656 L 253.25 261.722656 L 253.078125 249.363281 Z M 250.316406 248.847656 "/>
<path style=" stroke:none;fill-rule:nonzero;fill:rgb(9.408569%,10.978699%,23.139954%);fill-opacity:1;" d="M 228.855469 227.5625 C 228.855469 227.5625 223.425781 233.742188 225.496094 239.921875 C 227.5625 246.101562 265.832031 254.339844 265.832031 254.339844 L 291.6875 245.585938 L 287.035156 234.257812 L 265.832031 241.464844 L 263.246094 241.464844 C 263.246094 241.464844 236.355469 224.472656 228.855469 227.5625 "/>
<path style=" stroke:none;fill-rule:nonzero;fill:rgb(21.179199%,43.528748%,53.329468%);fill-opacity:1;" d="M 238.480469 217.605469 C 238.480469 217.605469 239.9375 219.921875 243.8125 219.921875 C 247.691406 219.921875 249.386719 218.894531 249.386719 218.894531 C 249.386719 218.894531 249.386719 222.242188 249.628906 223.269531 C 249.875 224.300781 248.90625 225.589844 248.175781 225.589844 C 247.449219 225.589844 245.753906 226.359375 241.632812 224.816406 C 237.511719 223.269531 236.785156 221.46875 236.785156 221.46875 C 236.785156 221.46875 236.785156 216.832031 238.480469 217.605469 "/>
<path style=" stroke:none;fill-rule:nonzero;fill:rgb(22.349548%,49.409485%,56.858826%);fill-opacity:1;" d="M 237.734375 219.152344 C 237.734375 219.152344 237.046875 220.007812 240.492188 221.039062 C 243.941406 222.070312 247.042969 220.523438 247.042969 220.523438 C 247.042969 220.523438 238.59375 220.523438 237.734375 219.152344 "/>
<path style=" stroke:none;fill-rule:nonzero;fill:rgb(63.529968%,40.388489%,28.62854%);fill-opacity:1;" d="M 402.925781 222.371094 C 402.925781 222.371094 396.066406 241.054688 395.035156 249.660156 C 394.003906 258.265625 396.929688 291.855469 395.457031 295.664062 C 393.984375 299.472656 388.941406 305.925781 388.941406 305.925781 C 388.941406 305.925781 392.265625 308.261719 394.652344 306.839844 C 397.035156 305.421875 399.03125 301.773438 400.40625 301.574219 C 401.78125 301.375 403.128906 299.972656 403.433594 297.910156 C 403.738281 295.839844 399.402344 294.726562 400.566406 292.644531 C 401.734375 290.558594 411.882812 273.269531 412.890625 263.460938 C 413.898438 253.652344 410.582031 251.234375 410.582031 251.234375 L 427.316406 226.339844 L 402.925781 222.371094 "/>
<path style=" stroke:none;fill-rule:nonzero;fill:rgb(1.959229%,1.179504%,0.389099%);fill-opacity:1;" d="M 389.859375 304.855469 C 389.859375 304.855469 384.011719 308.554688 385.597656 309.429688 C 387.179688 310.304688 393.28125 311.496094 395.289062 309.21875 C 397.300781 306.945312 398.226562 301.414062 400.03125 302.007812 C 401.835938 302.601562 401.324219 307.3125 401.324219 307.3125 L 402.75 306.648438 C 402.75 306.648438 401.992188 304.136719 402.574219 302.523438 C 403.15625 300.914062 404.972656 299.171875 404.074219 297.710938 C 403.175781 296.25 401.835938 295.351562 401.835938 295.351562 C 401.835938 295.351562 397.695312 303.539062 395.882812 305.277344 C 394.066406 307.015625 390.265625 306.367188 389.859375 304.855469 "/>
<path style=" stroke:none;fill-rule:nonzero;fill:rgb(63.529968%,40.388489%,28.62854%);fill-opacity:1;" d="M 419.421875 221.417969 C 419.421875 221.417969 415.445312 253.371094 418.523438 256.679688 C 421.597656 259.984375 427.136719 264.386719 432.566406 270.339844 C 438 276.292969 441.941406 279.734375 441.925781 283.34375 C 441.90625 286.953125 442.101562 291.410156 442.101562 291.410156 L 449.519531 291.4375 C 449.519531 291.4375 450.117188 285.226562 449.503906 283.019531 C 448.890625 280.8125 445.941406 280.421875 445.300781 273.578125 C 444.660156 266.730469 443.742188 253.367188 440.351562 250.765625 C 436.960938 248.160156 433.910156 245.371094 433.910156 245.371094 L 445.449219 220.824219 L 419.421875 221.417969 "/>
<path style=" stroke:none;fill-rule:nonzero;fill:rgb(1.959229%,1.179504%,0.389099%);fill-opacity:1;" d="M 440.914062 289.914062 C 440.914062 289.914062 443.453125 288.773438 447.101562 289.390625 C 450.75 290.011719 449.300781 292.390625 449.300781 292.390625 C 449.300781 292.390625 438.292969 295.179688 440.914062 289.914062 "/>
<path style=" stroke:none;fill-rule:nonzero;fill:rgb(63.529968%,40.388489%,28.62854%);fill-opacity:1;" d="M 352.90625 198.453125 C 351.933594 198.433594 351.324219 197.632812 350.472656 197.203125 C 349.828125 196.882812 348.898438 196.980469 348.226562 196.75 C 347.089844 196.359375 346.882812 196.226562 345.511719 195.296875 C 344.472656 194.597656 343.386719 193.679688 343.054688 194.492188 C 342.402344 196.117188 343.382812 196.539062 345.097656 197.425781 C 345.886719 197.835938 346.796875 198.65625 346.742188 199.199219 C 346.648438 200.097656 344.957031 200.691406 344.042969 201.046875 C 342.523438 201.648438 340.988281 201.953125 339.445312 202.402344 C 337.589844 202.941406 338.394531 204.625 339.800781 204.546875 C 341.890625 204.429688 343.523438 204.050781 345.421875 203.191406 C 345.421875 203.191406 345.976562 203.210938 345.824219 203.519531 C 345.675781 203.832031 341.199219 205.550781 338.808594 206.539062 C 337.570312 207.050781 338.648438 209.324219 339.875 208.8125 C 342.320312 207.800781 344.691406 206.996094 347.191406 205.910156 C 347.3125 206.101562 347.328125 205.90625 347.453125 206.085938 C 345.867188 207.445312 344.179688 208.742188 342.113281 209.132812 C 340.792969 209.378906 341.542969 211.203125 342.863281 210.960938 C 345.457031 210.476562 347.042969 209.421875 349.035156 207.832031 C 349.074219 207.859375 349.230469 208.035156 349.269531 208.058594 C 348.875 209.359375 346.886719 210.011719 345.960938 210.992188 C 345.101562 211.914062 346.390625 212.847656 347.425781 212.207031 C 349.308594 211.058594 349.679688 211.03125 351.765625 208.246094 C 353.789062 206.527344 354.519531 204.757812 355.855469 203.058594 C 357.445312 201.074219 368.828125 197.917969 368.828125 197.917969 L 365.414062 188.148438 C 365.207031 189.332031 356.441406 196.363281 355.492188 197.050781 C 354.839844 197.527344 353.886719 198.476562 352.90625 198.453125 "/>
<path style=" stroke:none;fill-rule:nonzero;fill:rgb(50.979614%,28.62854%,19.60907%);fill-opacity:1;" d="M 345.40625 202.570312 C 345.40625 202.570312 347.183594 205.855469 348.328125 206.953125 C 349.457031 208.050781 349.457031 208.050781 349.457031 208.050781 C 349.457031 208.050781 346.714844 203.339844 345.40625 202.570312 "/>
<path style=" stroke:none;fill-rule:nonzero;fill:rgb(50.979614%,28.62854%,19.60907%);fill-opacity:1;" d="M 347.640625 200.28125 C 347.640625 200.28125 348.175781 201.316406 349.46875 201.757812 C 350.753906 202.195312 352.195312 202.648438 352.195312 202.648438 L 350.863281 204.863281 L 350.644531 203.351562 C 350.644531 203.351562 347.921875 202.453125 347.640625 200.28125 "/>
<path style=" stroke:none;fill-rule:nonzero;fill:rgb(1.959229%,1.179504%,0.389099%);fill-opacity:1;" d="M 394.253906 152.71875 L 386.496094 158.898438 L 376.15625 179.496094 L 373.566406 178.984375 L 374.34375 180.785156 L 359.605469 191.855469 L 365.035156 201.125 L 381.324219 193.144531 L 397.097656 178.726562 L 394.253906 152.71875 "/>
<path style=" stroke:none;fill-rule:nonzero;fill:rgb(1.959229%,1.179504%,0.389099%);fill-opacity:1;" d="M 409.765625 205.375 C 409.765625 205.375 401.234375 224.816406 398.261719 232.667969 C 395.285156 240.519531 394.898438 241.808594 394.898438 241.808594 L 393.21875 250.820312 C 393.21875 250.820312 409.597656 254.859375 419.484375 253.804688 C 430.34375 252.648438 437.859375 248.679688 439.261719 248.398438 C 439.769531 248.296875 434.847656 244.148438 434.847656 244.148438 C 434.847656 244.148438 453.691406 221.292969 455.550781 214.414062 C 458.265625 204.371094 450.101562 196.105469 450.101562 196.105469 L 409.765625 205.375 "/>
<path style=" stroke:none;fill-rule:nonzero;fill:rgb(63.529968%,40.388489%,28.62854%);fill-opacity:1;" d="M 393.605469 155.9375 C 393.605469 155.9375 395.675781 154.265625 395.285156 151.945312 C 394.898438 149.628906 394.382812 148.34375 394.382812 148.34375 L 407.828125 136.496094 C 407.828125 136.496094 406.925781 140.875 410.15625 141.90625 C 413.386719 142.933594 417.910156 143.578125 417.910156 143.578125 L 414.679688 158.511719 L 393.347656 161.34375 L 393.605469 155.9375 "/>
<path style=" stroke:none;fill-rule:nonzero;fill:rgb(50.979614%,28.62854%,19.60907%);fill-opacity:1;" d="M 410.15625 141.90625 C 407.777344 141.148438 407.640625 138.578125 407.730469 137.273438 L 406.851562 137.359375 L 394.382812 148.34375 C 394.382812 148.34375 394.734375 149.222656 395.074219 150.828125 C 396.191406 150.902344 399.351562 150.902344 403.175781 149.050781 C 406.738281 147.324219 409.292969 143.703125 410.367188 141.972656 C 410.296875 141.949219 410.226562 141.925781 410.15625 141.90625 "/>
<path style=" stroke:none;fill-rule:nonzero;fill:rgb(69.40918%,27.449036%,12.548828%);fill-opacity:1;" d="M 393.605469 155.9375 C 393.605469 155.9375 394.511719 158.640625 399.941406 156.839844 C 405.371094 155.035156 408.730469 150.144531 408.730469 150.144531 L 411.316406 180.011719 L 406.664062 186.449219 C 406.664062 186.449219 387.53125 176.664062 393.605469 155.9375 "/>
<path style=" stroke:none;fill-rule:nonzero;fill:rgb(100%,100%,100%);fill-opacity:1;" d="M 393.992188 155.59375 C 393.671875 155.59375 393.410156 155.316406 393.433594 154.96875 C 393.460938 154.621094 393.765625 154.375 394.082031 154.4375 C 394.394531 154.496094 394.613281 154.761719 394.59375 155.054688 C 394.574219 155.347656 394.3125 155.589844 393.992188 155.59375 "/>
<path style=" stroke:none;fill-rule:nonzero;fill:rgb(100%,100%,100%);fill-opacity:1;" d="M 394.078125 156.75 C 393.765625 156.800781 393.449219 156.5625 393.433594 156.210938 C 393.402344 155.863281 393.675781 155.585938 393.992188 155.59375 C 394.316406 155.597656 394.566406 155.839844 394.59375 156.132812 C 394.609375 156.421875 394.398438 156.695312 394.078125 156.75 "/>
<path style=" stroke:none;fill-rule:nonzero;fill:rgb(100%,100%,100%);fill-opacity:1;" d="M 394.355469 157.875 C 394.058594 157.988281 393.710938 157.804688 393.625 157.457031 C 393.539062 157.109375 393.753906 156.792969 394.078125 156.75 C 394.390625 156.707031 394.6875 156.902344 394.753906 157.179688 C 394.820312 157.457031 394.660156 157.757812 394.355469 157.875 "/>
<path style=" stroke:none;fill-rule:nonzero;fill:rgb(100%,100%,100%);fill-opacity:1;" d="M 394.871094 158.910156 C 394.613281 159.09375 394.238281 158.992188 394.058594 158.667969 C 393.910156 158.332031 394.039062 157.976562 394.355469 157.875 C 394.652344 157.777344 394.992188 157.898438 395.101562 158.152344 C 395.234375 158.386719 395.136719 158.726562 394.871094 158.910156 "/>
<path style=" stroke:none;fill-rule:nonzero;fill:rgb(100%,100%,100%);fill-opacity:1;" d="M 395.65625 159.769531 C 395.460938 160.019531 395.070312 160.019531 394.800781 159.757812 C 394.566406 159.464844 394.597656 159.085938 394.871094 158.910156 C 395.140625 158.742188 395.5 158.769531 395.664062 158.980469 C 395.855469 159.160156 395.851562 159.511719 395.65625 159.769531 "/>
<path style=" stroke:none;fill-rule:nonzero;fill:rgb(100%,100%,100%);fill-opacity:1;" d="M 396.65625 160.355469 C 396.535156 160.648438 396.15625 160.78125 395.835938 160.59375 C 395.523438 160.382812 395.4375 160.015625 395.65625 159.769531 C 395.859375 159.535156 396.214844 159.449219 396.433594 159.601562 C 396.664062 159.738281 396.777344 160.054688 396.65625 160.355469 "/>
<path style=" stroke:none;fill-rule:nonzero;fill:rgb(100%,100%,100%);fill-opacity:1;" d="M 397.757812 160.722656 C 397.683594 161.035156 397.34375 161.230469 397.015625 161.113281 C 396.683594 161.015625 396.519531 160.652344 396.65625 160.355469 C 396.785156 160.070312 397.089844 159.929688 397.378906 160.011719 C 397.660156 160.113281 397.832031 160.414062 397.757812 160.722656 "/>
<path style=" stroke:none;fill-rule:nonzero;fill:rgb(100%,100%,100%);fill-opacity:1;" d="M 398.90625 160.921875 C 398.878906 161.25 398.578125 161.46875 398.230469 161.417969 C 397.882812 161.363281 397.675781 161.027344 397.757812 160.722656 C 397.839844 160.410156 398.136719 160.230469 398.425781 160.273438 C 398.714844 160.316406 398.929688 160.613281 398.90625 160.921875 "/>
<path style=" stroke:none;fill-rule:nonzero;fill:rgb(100%,100%,100%);fill-opacity:1;" d="M 400.070312 160.9375 C 400.097656 161.253906 399.832031 161.523438 399.480469 161.535156 C 399.128906 161.515625 398.871094 161.242188 398.90625 160.921875 C 398.9375 160.605469 399.203125 160.359375 399.492188 160.375 C 399.785156 160.367188 400.042969 160.617188 400.070312 160.9375 "/>
<path style=" stroke:none;fill-rule:nonzero;fill:rgb(100%,100%,100%);fill-opacity:1;" d="M 401.222656 160.761719 C 401.296875 161.066406 401.085938 161.394531 400.734375 161.445312 C 400.382812 161.488281 400.089844 161.261719 400.070312 160.9375 C 400.050781 160.625 400.273438 160.335938 400.5625 160.300781 C 400.851562 160.257812 401.140625 160.445312 401.222656 160.761719 "/>
<path style=" stroke:none;fill-rule:nonzero;fill:rgb(100%,100%,100%);fill-opacity:1;" d="M 402.328125 160.410156 C 402.453125 160.695312 402.296875 161.0625 401.957031 161.15625 C 401.625 161.265625 401.289062 161.078125 401.222656 160.761719 C 401.152344 160.457031 401.328125 160.144531 401.605469 160.054688 C 401.886719 159.976562 402.203125 160.109375 402.328125 160.410156 "/>
<path style=" stroke:none;fill-rule:nonzero;fill:rgb(100%,100%,100%);fill-opacity:1;" d="M 403.371094 159.894531 C 403.535156 160.160156 403.4375 160.542969 403.121094 160.6875 C 402.808594 160.851562 402.445312 160.707031 402.328125 160.410156 C 402.214844 160.113281 402.339844 159.789062 402.601562 159.652344 C 402.871094 159.53125 403.203125 159.613281 403.371094 159.894531 "/>
<path style=" stroke:none;fill-rule:nonzero;fill:rgb(100%,100%,100%);fill-opacity:1;" d="M 404.328125 159.230469 C 404.53125 159.476562 404.484375 159.859375 404.195312 160.054688 C 403.910156 160.261719 403.53125 160.167969 403.371094 159.894531 C 403.210938 159.613281 403.292969 159.277344 403.527344 159.101562 C 403.777344 158.941406 404.121094 158.980469 404.328125 159.230469 "/>
<path style=" stroke:none;fill-rule:nonzero;fill:rgb(100%,100%,100%);fill-opacity:1;" d="M 405.179688 158.4375 C 405.417969 158.65625 405.421875 159.039062 405.164062 159.273438 C 404.914062 159.519531 404.523438 159.476562 404.328125 159.230469 C 404.125 158.972656 404.164062 158.632812 404.371094 158.425781 C 404.589844 158.230469 404.941406 158.222656 405.179688 158.4375 "/>
<path style=" stroke:none;fill-rule:nonzero;fill:rgb(100%,100%,100%);fill-opacity:1;" d="M 405.914062 157.539062 C 406.179688 157.722656 406.234375 158.09375 406.015625 158.363281 C 405.804688 158.640625 405.40625 158.65625 405.179688 158.4375 C 404.941406 158.214844 404.929688 157.875 405.109375 157.636719 C 405.296875 157.410156 405.652344 157.359375 405.914062 157.539062 "/>
<path style=" stroke:none;fill-rule:nonzero;fill:rgb(100%,100%,100%);fill-opacity:1;" d="M 406.554688 156.570312 C 406.832031 156.738281 406.910156 157.101562 406.730469 157.378906 C 406.546875 157.660156 406.171875 157.726562 405.914062 157.539062 C 405.652344 157.351562 405.589844 157 405.757812 156.742188 C 405.925781 156.484375 406.285156 156.40625 406.554688 156.570312 "/>
<path style=" stroke:none;fill-rule:nonzero;fill:rgb(100%,100%,100%);fill-opacity:1;" d="M 407.140625 155.566406 C 407.425781 155.722656 407.523438 156.074219 407.359375 156.363281 C 407.191406 156.648438 406.828125 156.738281 406.554688 156.570312 C 406.28125 156.402344 406.195312 156.050781 406.351562 155.78125 C 406.503906 155.511719 406.859375 155.417969 407.140625 155.566406 "/>
<path style=" stroke:none;fill-rule:nonzero;fill:rgb(100%,100%,100%);fill-opacity:1;" d="M 407.679688 154.539062 C 407.96875 154.679688 408.082031 155.03125 407.933594 155.324219 C 407.777344 155.613281 407.421875 155.722656 407.140625 155.566406 C 406.859375 155.410156 406.753906 155.0625 406.902344 154.789062 C 407.042969 154.507812 407.394531 154.394531 407.679688 154.539062 "/>
<path style=" stroke:none;fill-rule:nonzero;fill:rgb(100%,100%,100%);fill-opacity:1;" d="M 408.183594 153.488281 C 408.476562 153.621094 408.601562 153.96875 408.460938 154.265625 C 408.320312 154.558594 407.96875 154.679688 407.679688 154.539062 C 407.394531 154.394531 407.273438 154.050781 407.410156 153.765625 C 407.542969 153.480469 407.890625 153.359375 408.183594 153.488281 "/>
<path style=" stroke:none;fill-rule:nonzero;fill:rgb(100%,100%,100%);fill-opacity:1;" d="M 408.648438 152.425781 C 408.941406 152.546875 409.085938 152.890625 408.953125 153.191406 C 408.820312 153.488281 408.472656 153.621094 408.183594 153.488281 C 407.890625 153.355469 407.757812 153.015625 407.886719 152.726562 C 408.011719 152.441406 408.351562 152.300781 408.648438 152.425781 "/>
<path style=" stroke:none;fill-rule:nonzero;fill:rgb(100%,100%,100%);fill-opacity:1;" d="M 409.078125 151.347656 C 409.378906 151.457031 409.53125 151.796875 409.410156 152.101562 C 409.289062 152.40625 408.941406 152.550781 408.648438 152.425781 C 408.351562 152.300781 408.210938 151.964844 408.328125 151.671875 C 408.445312 151.382812 408.777344 151.238281 409.078125 151.347656 "/>
<path style=" stroke:none;fill-rule:nonzero;fill:rgb(1.959229%,1.179504%,0.389099%);fill-opacity:1;" d="M 391.839844 157.355469 C 391.839844 157.355469 387.273438 174.605469 390.632812 178.984375 C 393.996094 183.359375 400.71875 184.390625 400.71875 184.390625 L 411.058594 193.144531 L 404.335938 206.53125 C 404.335938 206.53125 412.871094 209.621094 414.9375 209.621094 C 417.007812 209.621094 417.007812 208.078125 417.007812 208.078125 C 417.007812 208.078125 418.042969 209.621094 419.074219 210.140625 C 420.109375 210.652344 435.105469 210.394531 442.347656 207.304688 C 449.585938 204.214844 453.980469 199.066406 453.980469 199.066406 C 453.980469 199.066406 439.242188 181.300781 438.726562 179.496094 C 438.210938 177.695312 435.625 154.777344 435.625 154.777344 C 435.625 154.777344 431.488281 142.675781 427.867188 142.164062 C 427.167969 142.0625 426.082031 141.992188 424.78125 141.945312 C 419.339844 141.738281 410.15625 141.90625 410.15625 141.90625 C 410.15625 141.90625 406.148438 153.75 405.890625 161.988281 C 405.628906 170.226562 407.179688 181.816406 407.179688 181.816406 C 407.179688 181.816406 400.457031 179.242188 396.0625 170.742188 C 391.667969 162.246094 394.253906 152.71875 394.253906 152.71875 L 391.839844 157.355469 "/>
<path style=" stroke:none;fill-rule:nonzero;fill:rgb(78.819275%,71.759033%,68.629456%);fill-opacity:1;" d="M 425.28125 175.894531 L 459.816406 153.777344 L 474.410156 186.707031 L 445.707031 209.621094 L 425.28125 175.894531 "/>
<path style=" stroke:none;fill-rule:nonzero;fill:rgb(69.018555%,61.959839%,59.21936%);fill-opacity:1;" d="M 445.078125 173.085938 L 452.949219 185.675781 L 455.550781 187.765625 L 456.324219 192.011719 L 460.59375 195.488281 L 462.144531 192.011719 L 456.714844 168.453125 L 452.449219 163.433594 C 452.449219 163.433594 450.171875 162.300781 447.453125 161.695312 L 438.820312 167.222656 L 445.078125 173.085938 "/>
<path style=" stroke:none;fill-rule:nonzero;fill:rgb(100%,100%,100%);fill-opacity:1;" d="M 425.28125 175.894531 L 444.675781 210.140625 L 444.933594 209.367188 L 445.707031 209.621094 C 445.707031 209.621094 426.574219 176.535156 425.28125 175.894531 "/>
<path style=" stroke:none;fill-rule:nonzero;fill:rgb(63.529968%,40.388489%,28.62854%);fill-opacity:1;" d="M 453.722656 180.871094 C 453.722656 180.871094 458.273438 188.15625 456.828125 189.28125 C 455.375 190.410156 453.949219 191.25 454.117188 191.957031 C 454.285156 192.664062 455.300781 196.433594 454.847656 197.339844 C 454.402344 198.25 454.613281 198.542969 455.289062 198.472656 C 455.960938 198.398438 457.171875 197.773438 457.160156 197.230469 C 457.148438 196.6875 457.234375 195.164062 457.234375 195.164062 C 457.234375 195.164062 458.328125 196.699219 458.855469 197.164062 C 459.386719 197.632812 460.902344 199.054688 461.519531 199.714844 C 462.132812 200.375 462.796875 200.621094 463.304688 199.84375 C 463.816406 199.066406 463.289062 197.738281 463.289062 197.738281 C 463.289062 197.738281 464.285156 197.519531 464.664062 196.800781 C 465.042969 196.082031 465.089844 195.667969 465.089844 195.667969 C 465.089844 195.667969 466.429688 194.984375 466.421875 194.28125 C 466.414062 193.582031 466.058594 191.941406 465.492188 190.710938 C 464.929688 189.480469 463.378906 188.148438 462.871094 187.203125 C 462.359375 186.261719 460.671875 182.40625 460.671875 182.40625 L 453.722656 180.871094 "/>
<path style=" stroke:none;fill-rule:nonzero;fill:rgb(63.529968%,40.388489%,28.62854%);fill-opacity:1;" d="M 462.453125 196.867188 C 462.453125 196.867188 462.90625 197.679688 463.1875 198.292969 C 463.46875 198.910156 463.515625 198.925781 463.46875 198.910156 C 463.417969 198.894531 463.289062 197.738281 463.289062 197.738281 L 463.59375 197.640625 L 462.453125 196.867188 "/>
<path style=" stroke:none;fill-rule:nonzero;fill:rgb(1.959229%,1.179504%,0.389099%);fill-opacity:1;" d="M 424.507812 144.738281 C 424.507812 144.738281 422.179688 150.402344 425.539062 156.324219 C 428.902344 162.246094 431.226562 163.019531 436.917969 165.078125 C 442.605469 167.136719 443.640625 167.136719 443.640625 167.136719 L 443.640625 168.941406 L 445.964844 169.199219 L 452.949219 185.675781 C 452.949219 185.675781 453.722656 186.191406 457.601562 185.164062 C 461.480469 184.132812 463.03125 182.070312 463.03125 182.070312 C 463.03125 182.070312 460.1875 169.972656 459.152344 166.109375 C 458.117188 162.246094 457.859375 160.703125 457.859375 160.703125 L 430.195312 141.132812 C 430.195312 141.132812 427.089844 139.328125 424.507812 144.738281 "/>
<path style=" stroke:none;fill-rule:nonzero;fill:rgb(1.959229%,1.179504%,0.389099%);fill-opacity:1;" d="M 408.730469 135.726562 C 408.730469 135.726562 413.386719 143.707031 417.523438 139.328125 C 421.660156 134.953125 419.851562 133.921875 419.851562 133.921875 C 419.851562 133.921875 425.800781 136.238281 425.539062 132.378906 C 425.28125 128.515625 423.472656 127.226562 423.472656 127.226562 C 423.472656 127.226562 426.574219 123.878906 424.246094 123.109375 C 421.917969 122.335938 417.007812 124.394531 417.007812 124.394531 C 417.007812 124.394531 419.074219 119.246094 415.714844 119.761719 C 412.351562 120.273438 406.40625 123.367188 406.40625 123.367188 C 406.40625 123.367188 403.820312 129.804688 408.730469 135.726562 "/>
<path style=" stroke:none;fill-rule:nonzero;fill:rgb(63.529968%,40.388489%,28.62854%);fill-opacity:1;" d="M 377.445312 128.128906 C 377.445312 128.128906 378.996094 134.308594 379.386719 137.011719 C 379.773438 139.714844 384.558594 147.441406 391.148438 149.5 C 397.742188 151.5625 400.773438 148.496094 404.46875 145.1875 C 408.992188 141.132812 409.894531 134.308594 409.894531 134.308594 C 409.894531 134.308594 412.09375 135.46875 412.742188 132.503906 C 413.386719 129.542969 414.421875 126.199219 412.742188 125.425781 C 411.058594 124.652344 410.15625 125.167969 410.15625 125.167969 C 410.15625 125.167969 403.949219 115.191406 398.777344 113.386719 C 393.605469 111.585938 373.761719 113.066406 377.445312 128.128906 "/>
<path style=" stroke:none;fill-rule:nonzero;fill:rgb(50.979614%,28.62854%,19.60907%);fill-opacity:1;" d="M 385.839844 127.039062 C 385.839844 127.039062 387.648438 129.578125 388.070312 132.511719 C 388.488281 135.445312 388.488281 135.445312 388.488281 135.445312 C 388.488281 135.445312 385.554688 137.285156 386.914062 139.222656 C 388.277344 141.15625 390.875 139.867188 390.875 139.867188 C 390.875 139.867188 388.199219 140.390625 387.621094 138.507812 C 387.046875 136.621094 389.273438 135.496094 389.273438 135.496094 C 389.273438 135.496094 388.960938 129.707031 385.839844 127.039062 "/>
<path style=" stroke:none;fill-rule:nonzero;fill:rgb(50.979614%,28.62854%,19.60907%);fill-opacity:1;" d="M 409.636719 127.871094 C 409.636719 127.871094 412.480469 125.167969 412.742188 126.84375 C 413 128.515625 412.480469 130.574219 412.480469 130.574219 C 412.480469 130.574219 412.480469 127.226562 411.835938 127.355469 C 411.1875 127.484375 409.765625 128.773438 409.636719 127.871094 "/>
<path style=" stroke:none;fill-rule:nonzero;fill:rgb(50.979614%,28.62854%,19.60907%);fill-opacity:1;" d="M 410.671875 129.671875 C 410.671875 129.671875 409.507812 130.316406 410.15625 130.703125 C 410.800781 131.089844 409.636719 131.605469 410.285156 131.605469 C 410.671875 131.605469 408.992188 131.992188 410.414062 132.25 C 411.835938 132.503906 411.449219 130.058594 410.671875 129.671875 "/>
<path style=" stroke:none;fill-rule:nonzero;fill:rgb(50.979614%,28.62854%,19.60907%);fill-opacity:1;" d="M 381.195312 135.695312 L 380.289062 136.078125 L 381.066406 136.046875 C 381.066406 136.046875 381.90625 137.042969 382.941406 137.042969 C 383.976562 137.042969 385.558594 135.820312 385.65625 135.273438 C 385.753906 134.726562 381.195312 135.695312 381.195312 135.695312 "/>
<path style=" stroke:none;fill-rule:nonzero;fill:rgb(50.979614%,28.62854%,19.60907%);fill-opacity:1;" d="M 396.484375 129.191406 L 397.421875 130.605469 L 398.488281 130.253906 L 397.777344 130.734375 L 398.84375 130.800781 L 397.386719 131.25 C 397.386719 131.25 396.871094 132.472656 396 133.054688 C 395.125 133.632812 394.15625 133.664062 393.25 133.375 C 392.347656 133.085938 396.484375 129.191406 396.484375 129.191406 "/>
<path style=" stroke:none;fill-rule:nonzero;fill:rgb(50.979614%,28.62854%,19.60907%);fill-opacity:1;" d="M 386.496094 132.765625 C 386.496094 132.765625 386.230469 132.617188 385.347656 132.734375 C 385.835938 133.441406 386.164062 134.105469 386.25 134.332031 C 386.25 134.332031 385.234375 136.625 383.457031 136.851562 C 382.183594 137.011719 381.320312 135.925781 381.320312 135.925781 C 381.320312 135.925781 380.996094 135.167969 380.804688 134.226562 C 379.769531 134.648438 378.953125 134.996094 378.953125 134.996094 L 379.902344 138.816406 C 379.902344 138.816406 382.316406 139.542969 383.824219 139.070312 C 385.332031 138.601562 386.710938 136.324219 386.925781 134.652344 C 387.144531 132.980469 386.496094 132.765625 386.496094 132.765625 "/>
<path style=" stroke:none;fill-rule:nonzero;fill:rgb(50.979614%,28.62854%,19.60907%);fill-opacity:1;" d="M 399.078125 129.332031 C 398.535156 128.96875 396.8125 129.09375 396.273438 129.140625 C 396.804688 129.902344 397.160156 130.628906 397.253906 130.875 C 397.253906 130.875 396.289062 133.023438 394.382812 133.535156 C 393.078125 133.886719 392.054688 132.550781 392.054688 132.550781 C 392.054688 132.550781 391.726562 131.777344 391.523438 130.804688 C 390.300781 131.285156 389.304688 131.738281 389.253906 131.949219 C 389.253906 131.949219 389.382812 133.40625 390.289062 134.136719 C 391.191406 134.867188 393.691406 136.28125 395.460938 135.8125 C 397.226562 135.339844 398.304688 134.652344 398.820312 133.191406 C 399.335938 131.734375 399.726562 129.761719 399.078125 129.332031 "/>
<path style=" stroke:none;fill-rule:nonzero;fill:rgb(100%,100%,100%);fill-opacity:1;" d="M 385.347656 132.734375 C 384.503906 131.515625 383.179688 130.1875 381.785156 130.835938 C 380.53125 131.417969 380.554688 132.988281 380.804688 134.226562 C 382.15625 133.683594 383.882812 133.019531 384.6875 132.847656 C 384.9375 132.796875 385.160156 132.761719 385.347656 132.734375 "/>
<path style=" stroke:none;fill-rule:nonzero;fill:rgb(100%,100%,100%);fill-opacity:1;" d="M 396.273438 129.140625 C 395.382812 127.871094 394 126.507812 392.542969 127.183594 C 391.207031 127.808594 391.246094 129.488281 391.523438 130.804688 C 393.519531 130.019531 396.105469 129.160156 396.105469 129.160156 C 396.105469 129.160156 396.171875 129.152344 396.273438 129.140625 "/>
<path style=" stroke:none;fill-rule:nonzero;fill:rgb(78.819275%,71.759033%,68.629456%);fill-opacity:1;" d="M 383.457031 136.851562 C 385.234375 136.625 386.25 134.332031 386.25 134.332031 C 386.164062 134.105469 385.835938 133.441406 385.347656 132.734375 C 385.160156 132.761719 384.9375 132.796875 384.6875 132.847656 C 383.882812 133.019531 382.15625 133.683594 380.804688 134.226562 C 380.996094 135.167969 381.320312 135.925781 381.320312 135.925781 C 381.320312 135.925781 382.183594 137.011719 383.457031 136.851562 "/>
<path style=" stroke:none;fill-rule:nonzero;fill:rgb(78.819275%,71.759033%,68.629456%);fill-opacity:1;" d="M 394.382812 133.535156 C 396.289062 133.023438 397.253906 130.875 397.253906 130.875 C 397.160156 130.628906 396.804688 129.902344 396.273438 129.140625 C 396.171875 129.152344 396.105469 129.160156 396.105469 129.160156 C 396.105469 129.160156 393.519531 130.019531 391.523438 130.804688 C 391.726562 131.777344 392.054688 132.550781 392.054688 132.550781 C 392.054688 132.550781 393.078125 133.886719 394.382812 133.535156 "/>
<path style=" stroke:none;fill-rule:nonzero;fill:rgb(1.959229%,1.179504%,0.389099%);fill-opacity:1;" d="M 392.53125 132.398438 C 392.792969 132.84375 393.261719 133.058594 393.578125 132.878906 C 393.890625 132.695312 393.933594 132.183594 393.671875 131.734375 C 393.410156 131.285156 392.941406 131.074219 392.625 131.253906 C 392.3125 131.4375 392.269531 131.949219 392.53125 132.398438 "/>
<path style=" stroke:none;fill-rule:nonzero;fill:rgb(24.708557%,11.759949%,10.978699%);fill-opacity:1;" d="M 385.476562 143.035156 C 386.675781 145.804688 389.871094 146.324219 392.488281 145.488281 C 395.28125 144.59375 396.453125 142.328125 396.703125 139.558594 C 396.738281 139.167969 395.972656 139.265625 395.941406 139.613281 C 395.753906 141.726562 395.117188 143.605469 393.128906 144.640625 C 390.769531 145.867188 387.136719 145.703125 385.980469 143.03125 C 385.832031 142.691406 385.332031 142.710938 385.476562 143.035156 "/>
<path style=" stroke:none;fill-rule:nonzero;fill:rgb(1.959229%,1.179504%,0.389099%);fill-opacity:1;" d="M 377.960938 119.503906 C 377.960938 119.503906 383.136719 124.652344 389.855469 125.683594 C 396.578125 126.714844 396.578125 126.714844 396.578125 126.714844 L 392.183594 124.652344 C 392.183594 124.652344 395.546875 126.453125 401.234375 127.484375 C 406.925781 128.515625 411.058594 124.910156 411.058594 124.910156 C 411.058594 124.910156 410.542969 120.019531 407.179688 115.382812 C 403.820312 110.75 388.046875 103.539062 377.960938 119.503906 "/>
<path style=" stroke:none;fill-rule:nonzero;fill:rgb(1.959229%,1.179504%,0.389099%);fill-opacity:1;" d="M 377.960938 119.890625 L 379.386719 120.917969 C 379.386719 120.917969 378.480469 124.332031 378.285156 127.421875 C 378.09375 130.511719 378.09375 130.898438 378.09375 130.898438 C 378.09375 130.898438 373.957031 124.074219 377.960938 119.890625 "/>
<path style=" stroke:none;fill-rule:nonzero;fill:rgb(1.959229%,1.179504%,0.389099%);fill-opacity:1;" d="M 408.398438 124.753906 L 408.160156 124.296875 L 399.078125 129.042969 C 398.789062 128.773438 398.363281 128.707031 397.859375 128.699219 C 396.550781 128.703125 394.558594 129.253906 392.792969 129.878906 C 391.914062 130.191406 391.097656 130.523438 390.464844 130.820312 C 389.824219 131.128906 389.398438 131.351562 389.1875 131.597656 C 389.066406 131.753906 389.050781 131.863281 388.917969 132.023438 C 388.613281 132.039062 388.355469 132.007812 388.195312 132.054688 C 387.589844 132.234375 387.359375 132.355469 387.085938 132.660156 C 387.03125 132.722656 386.640625 132.519531 386.40625 132.464844 C 386.328125 132.445312 386.257812 132.441406 386.171875 132.441406 C 385.398438 132.445312 383.410156 132.9375 381.535156 133.605469 C 380.597656 133.941406 379.703125 134.320312 379.019531 134.714844 C 378.347656 135.121094 377.839844 135.488281 377.765625 136.035156 C 377.765625 136.039062 377.765625 136.039062 377.765625 136.039062 C 377.757812 136.082031 377.757812 136.121094 377.757812 136.160156 C 377.773438 137.019531 378.457031 137.839844 379.308594 138.492188 C 380.171875 139.136719 381.21875 139.605469 382.113281 139.609375 C 382.191406 139.609375 382.269531 139.605469 382.339844 139.597656 C 384.121094 139.417969 385.304688 138.5625 386.03125 137.660156 C 386.761719 136.75 387.050781 135.8125 387.109375 135.363281 C 387.144531 135.035156 387.21875 134.546875 387.21875 134.0625 C 387.21875 133.855469 387.203125 133.648438 387.167969 133.449219 C 387.175781 133.425781 387.195312 133.390625 387.226562 133.335938 C 387.390625 133.058594 387.785156 132.546875 388.441406 132.550781 C 388.625 132.550781 388.835938 132.589844 389.074219 132.6875 C 389.183594 132.992188 389.378906 133.28125 389.585938 133.558594 C 389.90625 133.972656 390.285156 134.351562 390.53125 134.609375 C 391 135.089844 392.476562 136.121094 394.46875 136.128906 L 394.472656 136.128906 C 395.414062 136.128906 396.460938 135.886719 397.535156 135.242188 C 398.757812 134.480469 399.628906 132.410156 399.644531 130.757812 C 399.640625 130.285156 399.632812 130.300781 399.523438 129.835938 Z M 386.597656 135.300781 C 386.558594 135.628906 386.289062 136.523438 385.628906 137.335938 C 384.964844 138.152344 383.925781 138.917969 382.289062 139.085938 C 382.234375 139.09375 382.175781 139.097656 382.113281 139.097656 C 381.40625 139.101562 380.410156 138.679688 379.621094 138.082031 C 378.824219 137.488281 378.261719 136.710938 378.273438 136.160156 C 378.273438 136.132812 378.277344 136.109375 378.277344 136.085938 L 378.019531 136.0625 L 378.28125 136.082031 C 378.265625 135.921875 378.632812 135.519531 379.277344 135.160156 C 381.191406 134.046875 385.242188 132.941406 386.171875 132.953125 C 386.230469 132.953125 386.273438 132.960938 386.277344 132.960938 C 386.425781 133.003906 386.511719 133.09375 386.59375 133.289062 C 386.667969 133.484375 386.699219 133.765625 386.699219 134.0625 C 386.699219 134.5 386.636719 134.96875 386.597656 135.300781 Z M 399.082031 129.125 L 398.933594 129.257812 Z M 397.265625 134.800781 C 396.269531 135.398438 395.320312 135.613281 394.46875 135.613281 C 392.675781 135.621094 391.261719 134.632812 390.90625 134.253906 C 390.652344 133.992188 390.289062 133.628906 389.996094 133.246094 C 389.699219 132.867188 389.492188 132.464844 389.5 132.203125 C 389.5 132.089844 389.527344 132.003906 389.597656 131.917969 C 389.632812 131.847656 390.078125 131.5625 390.6875 131.285156 C 392.519531 130.421875 396.09375 129.207031 397.859375 129.214844 C 398.339844 129.210938 398.652344 129.316406 398.742188 129.429688 C 398.992188 129.707031 399.128906 130.183594 399.125 130.757812 C 399.140625 132.226562 398.238281 134.242188 397.265625 134.800781 "/>
<path style=" stroke:none;fill-rule:nonzero;fill:rgb(1.959229%,1.179504%,0.389099%);fill-opacity:1;" d="M 379.015625 129.335938 C 379.308594 128.8125 379.601562 128.265625 380.230469 127.960938 C 381.046875 127.566406 382.292969 127.742188 382.933594 128.292969 C 383.046875 128.386719 383.570312 128.222656 383.460938 128.128906 C 382.730469 127.503906 381.546875 127.46875 380.570312 127.65625 C 379.445312 127.871094 378.90625 128.605469 378.460938 129.410156 C 378.40625 129.503906 378.945312 129.460938 379.015625 129.335938 "/>
<path style=" stroke:none;fill-rule:nonzero;fill:rgb(1.959229%,1.179504%,0.389099%);fill-opacity:1;" d="M 381.769531 135.78125 C 382.019531 136.203125 382.460938 136.40625 382.761719 136.234375 C 383.0625 136.0625 383.101562 135.574219 382.851562 135.152344 C 382.601562 134.726562 382.160156 134.523438 381.863281 134.695312 C 381.5625 134.867188 381.523438 135.355469 381.769531 135.78125 "/>
<path style=" stroke:none;fill-rule:nonzero;fill:rgb(50.979614%,28.62854%,19.60907%);fill-opacity:1;" d="M 393.046875 147.398438 C 393.046875 147.398438 393.5625 147.742188 394.425781 147.226562 C 395.285156 146.710938 395.546875 146.28125 395.546875 146.28125 C 395.546875 146.28125 395.375 148.257812 393.046875 147.398438 "/>
<path style=" stroke:none;fill-rule:nonzero;fill:rgb(50.979614%,28.62854%,19.60907%);fill-opacity:1;" d="M 380.03125 133.492188 C 380.03125 133.492188 380.980469 131.691406 382.359375 131.519531 C 383.738281 131.347656 384.515625 131.433594 384.515625 131.433594 C 384.515625 131.433594 382.960938 129.976562 381.238281 130.832031 C 379.515625 131.691406 380.03125 133.492188 380.03125 133.492188 "/>
<path style=" stroke:none;fill-rule:nonzero;fill:rgb(50.979614%,28.62854%,19.60907%);fill-opacity:1;" d="M 391.066406 129.71875 C 391.066406 129.71875 392.050781 127.914062 393.484375 127.742188 C 394.914062 127.570312 395.71875 127.65625 395.71875 127.65625 C 395.71875 127.65625 394.109375 126.199219 392.320312 127.054688 C 390.53125 127.914062 391.066406 129.71875 391.066406 129.71875 "/>
</g>
</svg>
